%TF.GenerationSoftware,KiCad,Pcbnew,6.0.11-2627ca5db0~126~ubuntu22.04.1*%
%TF.CreationDate,2023-04-02T11:01:53+08:00*%
%TF.ProjectId,explorekb75,6578706c-6f72-4656-9b62-37352e6b6963,rev?*%
%TF.SameCoordinates,Original*%
%TF.FileFunction,Drillmap*%
%TF.FilePolarity,Positive*%
%FSLAX45Y45*%
G04 Gerber Fmt 4.5, Leading zero omitted, Abs format (unit mm)*
G04 Created by KiCad (PCBNEW 6.0.11-2627ca5db0~126~ubuntu22.04.1) date 2023-04-02 11:01:53*
%MOMM*%
%LPD*%
G01*
G04 APERTURE LIST*
%ADD10C,0.200000*%
%ADD11C,0.100000*%
%ADD12C,0.025000*%
%ADD13C,0.150000*%
G04 APERTURE END LIST*
D10*
X39300000Y-20000000D02*
G75*
G03*
X39600000Y-19700000I0J300000D01*
G01*
X39300000Y-20000000D02*
X6900000Y-20000000D01*
X6600000Y-19700000D02*
G75*
G03*
X6900000Y-20000000I300000J0D01*
G01*
X39600000Y-6300000D02*
G75*
G03*
X39300000Y-6000000I-300000J0D01*
G01*
D11*
X38030000Y-12350000D02*
X36900000Y-12350000D01*
X36900000Y-12350000D02*
X36900000Y-6900000D01*
X36900000Y-6900000D02*
X38030000Y-6900000D01*
X38030000Y-6900000D02*
X38030000Y-12350000D01*
D10*
X39600000Y-6300000D02*
X39600000Y-19700000D01*
X6600000Y-19700000D02*
X6600000Y-6300000D01*
X6900000Y-6000000D02*
X39300000Y-6000000D01*
X6900000Y-6000000D02*
G75*
G03*
X6600000Y-6300000I0J-300000D01*
G01*
D12*
X7560248Y-8862252D02*
X7585248Y-8887252D01*
X7585248Y-8862252D02*
X7560248Y-8887252D01*
X9116249Y-7835000D02*
X9141249Y-7860000D01*
X9141249Y-7835000D02*
X9116249Y-7860000D01*
X9166249Y-10285000D02*
X9191249Y-10310000D01*
X9191249Y-10285000D02*
X9166249Y-10310000D01*
X9366249Y-10285000D02*
X9391249Y-10310000D01*
X9391249Y-10285000D02*
X9366249Y-10310000D01*
X9416249Y-7835000D02*
X9441249Y-7860000D01*
X9441249Y-7835000D02*
X9416249Y-7860000D01*
X9766249Y-17885000D02*
X9791249Y-17910000D01*
X9791249Y-17885000D02*
X9766249Y-17910000D01*
X10066249Y-12185000D02*
X10091249Y-12210000D01*
X10091249Y-12185000D02*
X10066249Y-12210000D01*
X10116249Y-17885000D02*
X10141249Y-17910000D01*
X10141249Y-17885000D02*
X10116249Y-17910000D01*
X10366249Y-12185000D02*
X10391249Y-12210000D01*
X10391249Y-12185000D02*
X10366249Y-12210000D01*
X10516249Y-14085000D02*
X10541249Y-14110000D01*
X10541249Y-14085000D02*
X10516249Y-14110000D01*
X10816249Y-14085000D02*
X10841249Y-14110000D01*
X10841249Y-14085000D02*
X10816249Y-14110000D01*
X10851839Y-8919339D02*
X10876839Y-8944339D01*
X10876839Y-8919339D02*
X10851839Y-8944339D01*
X11370248Y-8977252D02*
X11395248Y-9002252D01*
X11395248Y-8977252D02*
X11370248Y-9002252D01*
X11466248Y-15985000D02*
X11491248Y-16010000D01*
X11491248Y-15985000D02*
X11466248Y-16010000D01*
X11766248Y-15985000D02*
X11791248Y-16010000D01*
X11791248Y-15985000D02*
X11766248Y-16010000D01*
X12916248Y-7735000D02*
X12941248Y-7760000D01*
X12941248Y-7735000D02*
X12916248Y-7760000D01*
X12916248Y-10235000D02*
X12941248Y-10260000D01*
X12941248Y-10235000D02*
X12916248Y-10260000D01*
X13216248Y-7735000D02*
X13241248Y-7760000D01*
X13241248Y-7735000D02*
X13216248Y-7760000D01*
X13216248Y-10285000D02*
X13241248Y-10310000D01*
X13241248Y-10285000D02*
X13216248Y-10310000D01*
X13916248Y-12085000D02*
X13941248Y-12110000D01*
X13941248Y-12085000D02*
X13916248Y-12110000D01*
X14166248Y-12085000D02*
X14191248Y-12110000D01*
X14191248Y-12085000D02*
X14166248Y-12110000D01*
X14171873Y-17729375D02*
X14196873Y-17754375D01*
X14196873Y-17729375D02*
X14171873Y-17754375D01*
X14366248Y-13935000D02*
X14391248Y-13960000D01*
X14391248Y-13935000D02*
X14366248Y-13960000D01*
X14391248Y-17860000D02*
X14416248Y-17885000D01*
X14416248Y-17860000D02*
X14391248Y-17885000D01*
X14616248Y-13935000D02*
X14641248Y-13960000D01*
X14641248Y-13935000D02*
X14616248Y-13960000D01*
X14661839Y-9033161D02*
X14686839Y-9058161D01*
X14686839Y-9033161D02*
X14661839Y-9058161D01*
X15180248Y-9087450D02*
X15205248Y-9112450D01*
X15205248Y-9087450D02*
X15180248Y-9112450D01*
X15316248Y-15885000D02*
X15341248Y-15910000D01*
X15341248Y-15885000D02*
X15316248Y-15910000D01*
X15591248Y-15860000D02*
X15616248Y-15885000D01*
X15616248Y-15860000D02*
X15591248Y-15885000D01*
X16766248Y-7835000D02*
X16791249Y-7860000D01*
X16791249Y-7835000D02*
X16766248Y-7860000D01*
X16766248Y-10185000D02*
X16791249Y-10210000D01*
X16791249Y-10185000D02*
X16766248Y-10210000D01*
X17016249Y-7835000D02*
X17041249Y-7860000D01*
X17041249Y-7835000D02*
X17016249Y-7860000D01*
X17016249Y-10185000D02*
X17041249Y-10210000D01*
X17041249Y-10185000D02*
X17016249Y-10210000D01*
X17716249Y-12085000D02*
X17741249Y-12110000D01*
X17741249Y-12085000D02*
X17716249Y-12110000D01*
X17966249Y-12085000D02*
X17991249Y-12110000D01*
X17991249Y-12085000D02*
X17966249Y-12110000D01*
X18166249Y-14035000D02*
X18191249Y-14060000D01*
X18191249Y-14035000D02*
X18166249Y-14060000D01*
X18416249Y-14035000D02*
X18441249Y-14060000D01*
X18441249Y-14035000D02*
X18416249Y-14060000D01*
X18837249Y-10937751D02*
X18862249Y-10962751D01*
X18862249Y-10937751D02*
X18837249Y-10962751D01*
X19166249Y-15885000D02*
X19191249Y-15910000D01*
X19191249Y-15885000D02*
X19166249Y-15910000D01*
X19340624Y-11009376D02*
X19365624Y-11034376D01*
X19365624Y-11009376D02*
X19340624Y-11034376D01*
X19416249Y-15935000D02*
X19441249Y-15960000D01*
X19441249Y-15935000D02*
X19416249Y-15960000D01*
X20566249Y-7835000D02*
X20591249Y-7860000D01*
X20591249Y-7835000D02*
X20566249Y-7860000D01*
X20566249Y-10235000D02*
X20591249Y-10260000D01*
X20591249Y-10235000D02*
X20566249Y-10260000D01*
X20816249Y-7835000D02*
X20841249Y-7860000D01*
X20841249Y-7835000D02*
X20816249Y-7860000D01*
X20816249Y-10235000D02*
X20841249Y-10260000D01*
X20841249Y-10235000D02*
X20816249Y-10260000D01*
X21516249Y-12185000D02*
X21541249Y-12210000D01*
X21541249Y-12185000D02*
X21516249Y-12210000D01*
X21766249Y-12185000D02*
X21791249Y-12210000D01*
X21791249Y-12185000D02*
X21766249Y-12210000D01*
X22016249Y-14035000D02*
X22041249Y-14060000D01*
X22041249Y-14035000D02*
X22016249Y-14060000D01*
X22266249Y-14035000D02*
X22291249Y-14060000D01*
X22291249Y-14035000D02*
X22266249Y-14060000D01*
X22792249Y-11082751D02*
X22817249Y-11107751D01*
X22817249Y-11082751D02*
X22792249Y-11107751D01*
X22887500Y-6887500D02*
X22912500Y-6912500D01*
X22912500Y-6887500D02*
X22887500Y-6912500D01*
X22966248Y-15885000D02*
X22991248Y-15910000D01*
X22991248Y-15885000D02*
X22966248Y-15910000D01*
X23216248Y-15885000D02*
X23241248Y-15910000D01*
X23241248Y-15885000D02*
X23216248Y-15910000D01*
X24366248Y-7885000D02*
X24391248Y-7910000D01*
X24391248Y-7885000D02*
X24366248Y-7910000D01*
X24366248Y-10185000D02*
X24391248Y-10210000D01*
X24391248Y-10185000D02*
X24366248Y-10210000D01*
X24616248Y-7885000D02*
X24641248Y-7910000D01*
X24641248Y-7885000D02*
X24616248Y-7910000D01*
X24616248Y-10185000D02*
X24641248Y-10210000D01*
X24641248Y-10185000D02*
X24616248Y-10210000D01*
X25316248Y-12135000D02*
X25341248Y-12160000D01*
X25341248Y-12135000D02*
X25316248Y-12160000D01*
X25616248Y-12135000D02*
X25641248Y-12160000D01*
X25641248Y-12135000D02*
X25616248Y-12160000D01*
X25816248Y-13985000D02*
X25841248Y-14010000D01*
X25841248Y-13985000D02*
X25816248Y-14010000D01*
X26066248Y-13985000D02*
X26091248Y-14010000D01*
X26091248Y-13985000D02*
X26066248Y-14010000D01*
X26766248Y-15985000D02*
X26791248Y-16010000D01*
X26791248Y-15985000D02*
X26766248Y-16010000D01*
X27016248Y-15985000D02*
X27041248Y-16010000D01*
X27041248Y-15985000D02*
X27016248Y-16010000D01*
X28166248Y-17885000D02*
X28191248Y-17910000D01*
X28191248Y-17885000D02*
X28166248Y-17910000D01*
X28216248Y-7885000D02*
X28241248Y-7910000D01*
X28241248Y-7885000D02*
X28216248Y-7910000D01*
X28216248Y-10235000D02*
X28241248Y-10260000D01*
X28241248Y-10235000D02*
X28216248Y-10260000D01*
X28416248Y-10235000D02*
X28441248Y-10260000D01*
X28441248Y-10235000D02*
X28416248Y-10260000D01*
X28466248Y-7885000D02*
X28491248Y-7910000D01*
X28491248Y-7885000D02*
X28466248Y-7910000D01*
X28466248Y-17885000D02*
X28491248Y-17910000D01*
X28491248Y-17885000D02*
X28466248Y-17910000D01*
X29116248Y-12085000D02*
X29141248Y-12110000D01*
X29141248Y-12085000D02*
X29116248Y-12110000D01*
X29416248Y-12135000D02*
X29441248Y-12160000D01*
X29441248Y-12135000D02*
X29416248Y-12160000D01*
X29566248Y-13935000D02*
X29591248Y-13960000D01*
X29591248Y-13935000D02*
X29566248Y-13960000D01*
X29613248Y-16935000D02*
X29638248Y-16960000D01*
X29638248Y-16935000D02*
X29613248Y-16960000D01*
X29866248Y-14035000D02*
X29891248Y-14060000D01*
X29891248Y-14035000D02*
X29866248Y-14060000D01*
X30053124Y-16871876D02*
X30078124Y-16896876D01*
X30078124Y-16871876D02*
X30053124Y-16896876D01*
X30566248Y-15985000D02*
X30591248Y-16010000D01*
X30591248Y-15985000D02*
X30566248Y-16010000D01*
X30816248Y-16035000D02*
X30841248Y-16060000D01*
X30841248Y-16035000D02*
X30816248Y-16060000D01*
X31966248Y-7785000D02*
X31991248Y-7810000D01*
X31991248Y-7785000D02*
X31966248Y-7810000D01*
X32016248Y-10285000D02*
X32041248Y-10310000D01*
X32041248Y-10285000D02*
X32016248Y-10310000D01*
X32031248Y-17935000D02*
X32056248Y-17960000D01*
X32056248Y-17935000D02*
X32031248Y-17960000D01*
X32216248Y-17785000D02*
X32241248Y-17810000D01*
X32241248Y-17785000D02*
X32216248Y-17810000D01*
X32316248Y-10235000D02*
X32341248Y-10260000D01*
X32341248Y-10235000D02*
X32316248Y-10260000D01*
X32966248Y-12185000D02*
X32991248Y-12210000D01*
X32991248Y-12185000D02*
X32966248Y-12210000D01*
X33216248Y-12185000D02*
X33241248Y-12210000D01*
X33241248Y-12185000D02*
X33216248Y-12210000D01*
X34082500Y-14282500D02*
X34107500Y-14307500D01*
X34107500Y-14282500D02*
X34082500Y-14307500D01*
X34192749Y-17212600D02*
X34217749Y-17237600D01*
X34217749Y-17212600D02*
X34192749Y-17237600D01*
X34712749Y-17155150D02*
X34737749Y-17180150D01*
X34737749Y-17155150D02*
X34712749Y-17180150D01*
X34837500Y-17037500D02*
X34862500Y-17062500D01*
X34862500Y-17037500D02*
X34837500Y-17062500D01*
X35316249Y-12985000D02*
X35341249Y-13010000D01*
X35341249Y-12985000D02*
X35316249Y-13010000D01*
X35373699Y-12887500D02*
X35398699Y-12912500D01*
X35398699Y-12887500D02*
X35373699Y-12912500D01*
X35787500Y-8712500D02*
X35812500Y-8737500D01*
X35812500Y-8712500D02*
X35787500Y-8737500D01*
X35966249Y-18685000D02*
X35991249Y-18710000D01*
X35991249Y-18685000D02*
X35966249Y-18710000D01*
X36023256Y-17097700D02*
X36048256Y-17122700D01*
X36048256Y-17097700D02*
X36023256Y-17122700D01*
X36037500Y-17212600D02*
X36062500Y-17237600D01*
X36062500Y-17212600D02*
X36037500Y-17237600D01*
X36037500Y-17330050D02*
X36062500Y-17355050D01*
X36062500Y-17330050D02*
X36037500Y-17355050D01*
X36087500Y-8637500D02*
X36112500Y-8662500D01*
X36112500Y-8637500D02*
X36087500Y-8662500D01*
X36087500Y-17387500D02*
X36112500Y-17412500D01*
X36112500Y-17387500D02*
X36087500Y-17412500D01*
X36088189Y-17270050D02*
X36113189Y-17295050D01*
X36113189Y-17270050D02*
X36088189Y-17295050D01*
X36089494Y-17155150D02*
X36114494Y-17180150D01*
X36114494Y-17155150D02*
X36089494Y-17180150D01*
X36337500Y-17037500D02*
X36362500Y-17062500D01*
X36362500Y-17037500D02*
X36337500Y-17062500D01*
X36337500Y-17487500D02*
X36362500Y-17512500D01*
X36362500Y-17487500D02*
X36337500Y-17512500D01*
X36394950Y-16980050D02*
X36419950Y-17005050D01*
X36419950Y-16980050D02*
X36394950Y-17005050D01*
X36566249Y-18685000D02*
X36591249Y-18710000D01*
X36591249Y-18685000D02*
X36566249Y-18710000D01*
D11*
X32443748Y-7497500D02*
G75*
G03*
X32443748Y-7497500I-50000J0D01*
G01*
X32443748Y-7997500D02*
G75*
G03*
X32443748Y-7997500I-50000J0D01*
G01*
X33893749Y-7497500D02*
G75*
G03*
X33893749Y-7497500I-50000J0D01*
G01*
X33893749Y-7747500D02*
G75*
G03*
X33893749Y-7747500I-50000J0D01*
G01*
X33893749Y-7997500D02*
G75*
G03*
X33893749Y-7997500I-50000J0D01*
G01*
X34348749Y-7497500D02*
G75*
G03*
X34348749Y-7497500I-50000J0D01*
G01*
X34348749Y-7997500D02*
G75*
G03*
X34348749Y-7997500I-50000J0D01*
G01*
X35798749Y-7497500D02*
G75*
G03*
X35798749Y-7497500I-50000J0D01*
G01*
X35798749Y-7747500D02*
G75*
G03*
X35798749Y-7747500I-50000J0D01*
G01*
X35798749Y-7997500D02*
G75*
G03*
X35798749Y-7997500I-50000J0D01*
G01*
X36750500Y-7244500D02*
G75*
G03*
X36750500Y-7244500I-50000J0D01*
G01*
X36750500Y-7498500D02*
G75*
G03*
X36750500Y-7498500I-50000J0D01*
G01*
X36750500Y-7752500D02*
G75*
G03*
X36750500Y-7752500I-50000J0D01*
G01*
X36750500Y-8006500D02*
G75*
G03*
X36750500Y-8006500I-50000J0D01*
G01*
X36750500Y-8260500D02*
G75*
G03*
X36750500Y-8260500I-50000J0D01*
G01*
X36750500Y-8514500D02*
G75*
G03*
X36750500Y-8514500I-50000J0D01*
G01*
X36750500Y-8768500D02*
G75*
G03*
X36750500Y-8768500I-50000J0D01*
G01*
X36750500Y-9022500D02*
G75*
G03*
X36750500Y-9022500I-50000J0D01*
G01*
X36750500Y-9276500D02*
G75*
G03*
X36750500Y-9276500I-50000J0D01*
G01*
X36750500Y-9530500D02*
G75*
G03*
X36750500Y-9530500I-50000J0D01*
G01*
X36750500Y-9784500D02*
G75*
G03*
X36750500Y-9784500I-50000J0D01*
G01*
X36750500Y-10038500D02*
G75*
G03*
X36750500Y-10038500I-50000J0D01*
G01*
X36750500Y-10292500D02*
G75*
G03*
X36750500Y-10292500I-50000J0D01*
G01*
X36750500Y-10546500D02*
G75*
G03*
X36750500Y-10546500I-50000J0D01*
G01*
X36750500Y-10800500D02*
G75*
G03*
X36750500Y-10800500I-50000J0D01*
G01*
X36750500Y-11054500D02*
G75*
G03*
X36750500Y-11054500I-50000J0D01*
G01*
X36750500Y-11308500D02*
G75*
G03*
X36750500Y-11308500I-50000J0D01*
G01*
X36750500Y-11562500D02*
G75*
G03*
X36750500Y-11562500I-50000J0D01*
G01*
X36750500Y-11816500D02*
G75*
G03*
X36750500Y-11816500I-50000J0D01*
G01*
X36750500Y-12070500D02*
G75*
G03*
X36750500Y-12070500I-50000J0D01*
G01*
X37150000Y-12750000D02*
G75*
G03*
X37150000Y-12750000I-50000J0D01*
G01*
X37404000Y-12750000D02*
G75*
G03*
X37404000Y-12750000I-50000J0D01*
G01*
X37658000Y-12750000D02*
G75*
G03*
X37658000Y-12750000I-50000J0D01*
G01*
X37912000Y-12750000D02*
G75*
G03*
X37912000Y-12750000I-50000J0D01*
G01*
X38274500Y-7244500D02*
G75*
G03*
X38274500Y-7244500I-50000J0D01*
G01*
X38274500Y-7498500D02*
G75*
G03*
X38274500Y-7498500I-50000J0D01*
G01*
X38274500Y-7752500D02*
G75*
G03*
X38274500Y-7752500I-50000J0D01*
G01*
X38274500Y-8006500D02*
G75*
G03*
X38274500Y-8006500I-50000J0D01*
G01*
X38274500Y-8260500D02*
G75*
G03*
X38274500Y-8260500I-50000J0D01*
G01*
X38274500Y-8514500D02*
G75*
G03*
X38274500Y-8514500I-50000J0D01*
G01*
X38274500Y-8768500D02*
G75*
G03*
X38274500Y-8768500I-50000J0D01*
G01*
X38274500Y-9022500D02*
G75*
G03*
X38274500Y-9022500I-50000J0D01*
G01*
X38274500Y-9276500D02*
G75*
G03*
X38274500Y-9276500I-50000J0D01*
G01*
X38274500Y-9530500D02*
G75*
G03*
X38274500Y-9530500I-50000J0D01*
G01*
X38274500Y-9784500D02*
G75*
G03*
X38274500Y-9784500I-50000J0D01*
G01*
X38274500Y-10038500D02*
G75*
G03*
X38274500Y-10038500I-50000J0D01*
G01*
X38274500Y-10292500D02*
G75*
G03*
X38274500Y-10292500I-50000J0D01*
G01*
X38274500Y-10546500D02*
G75*
G03*
X38274500Y-10546500I-50000J0D01*
G01*
X38274500Y-10800500D02*
G75*
G03*
X38274500Y-10800500I-50000J0D01*
G01*
X38274500Y-11054500D02*
G75*
G03*
X38274500Y-11054500I-50000J0D01*
G01*
X38274500Y-11308500D02*
G75*
G03*
X38274500Y-11308500I-50000J0D01*
G01*
X38274500Y-11562500D02*
G75*
G03*
X38274500Y-11562500I-50000J0D01*
G01*
X38274500Y-11816500D02*
G75*
G03*
X38274500Y-11816500I-50000J0D01*
G01*
X38274500Y-12070500D02*
G75*
G03*
X38274500Y-12070500I-50000J0D01*
G01*
D13*
X33093748Y-7112500D02*
X33093748Y-7262500D01*
X33018748Y-7187500D02*
X33168748Y-7187500D01*
D10*
X33158748Y-7112500D02*
X33028748Y-7112500D01*
X33158748Y-7262500D02*
X33028748Y-7262500D01*
X33028748Y-7112500D02*
G75*
G03*
X33028748Y-7262500I0J-75000D01*
G01*
X33158748Y-7262500D02*
G75*
G03*
X33158748Y-7112500I0J75000D01*
G01*
D13*
X33093748Y-8232500D02*
X33093748Y-8382500D01*
X33018748Y-8307500D02*
X33168748Y-8307500D01*
D10*
X33158748Y-8232500D02*
X33028748Y-8232500D01*
X33158748Y-8382500D02*
X33028748Y-8382500D01*
X33028748Y-8232500D02*
G75*
G03*
X33028748Y-8382500I0J-75000D01*
G01*
X33158748Y-8382500D02*
G75*
G03*
X33158748Y-8232500I0J75000D01*
G01*
D13*
X34998749Y-7112500D02*
X34998749Y-7262500D01*
X34923749Y-7187500D02*
X35073749Y-7187500D01*
D10*
X35063749Y-7112500D02*
X34933749Y-7112500D01*
X35063749Y-7262500D02*
X34933749Y-7262500D01*
X34933749Y-7112500D02*
G75*
G03*
X34933749Y-7262500I0J-75000D01*
G01*
X35063749Y-7262500D02*
G75*
G03*
X35063749Y-7112500I0J75000D01*
G01*
D13*
X34998749Y-8232500D02*
X34998749Y-8382500D01*
X34923749Y-8307500D02*
X35073749Y-8307500D01*
D10*
X35063749Y-8232500D02*
X34933749Y-8232500D01*
X35063749Y-8382500D02*
X34933749Y-8382500D01*
X34933749Y-8232500D02*
G75*
G03*
X34933749Y-8382500I0J-75000D01*
G01*
X35063749Y-8382500D02*
G75*
G03*
X35063749Y-8232500I0J75000D01*
G01*
X6847619Y-20320476D02*
X6847619Y-20120476D01*
X6895238Y-20120476D01*
X6923809Y-20130000D01*
X6942857Y-20149048D01*
X6952381Y-20168095D01*
X6961905Y-20206190D01*
X6961905Y-20234762D01*
X6952381Y-20272857D01*
X6942857Y-20291905D01*
X6923809Y-20310952D01*
X6895238Y-20320476D01*
X6847619Y-20320476D01*
X7047619Y-20320476D02*
X7047619Y-20187143D01*
X7047619Y-20225238D02*
X7057143Y-20206190D01*
X7066667Y-20196667D01*
X7085714Y-20187143D01*
X7104762Y-20187143D01*
X7171428Y-20320476D02*
X7171428Y-20187143D01*
X7171428Y-20120476D02*
X7161905Y-20130000D01*
X7171428Y-20139524D01*
X7180952Y-20130000D01*
X7171428Y-20120476D01*
X7171428Y-20139524D01*
X7295238Y-20320476D02*
X7276190Y-20310952D01*
X7266667Y-20291905D01*
X7266667Y-20120476D01*
X7400000Y-20320476D02*
X7380952Y-20310952D01*
X7371428Y-20291905D01*
X7371428Y-20120476D01*
X7628571Y-20320476D02*
X7628571Y-20120476D01*
X7695238Y-20263333D01*
X7761905Y-20120476D01*
X7761905Y-20320476D01*
X7942857Y-20320476D02*
X7942857Y-20215714D01*
X7933333Y-20196667D01*
X7914286Y-20187143D01*
X7876190Y-20187143D01*
X7857143Y-20196667D01*
X7942857Y-20310952D02*
X7923809Y-20320476D01*
X7876190Y-20320476D01*
X7857143Y-20310952D01*
X7847619Y-20291905D01*
X7847619Y-20272857D01*
X7857143Y-20253810D01*
X7876190Y-20244286D01*
X7923809Y-20244286D01*
X7942857Y-20234762D01*
X8038095Y-20187143D02*
X8038095Y-20387143D01*
X8038095Y-20196667D02*
X8057143Y-20187143D01*
X8095238Y-20187143D01*
X8114286Y-20196667D01*
X8123809Y-20206190D01*
X8133333Y-20225238D01*
X8133333Y-20282381D01*
X8123809Y-20301429D01*
X8114286Y-20310952D01*
X8095238Y-20320476D01*
X8057143Y-20320476D01*
X8038095Y-20310952D01*
X8219048Y-20301429D02*
X8228571Y-20310952D01*
X8219048Y-20320476D01*
X8209524Y-20310952D01*
X8219048Y-20301429D01*
X8219048Y-20320476D01*
X8219048Y-20196667D02*
X8228571Y-20206190D01*
X8219048Y-20215714D01*
X8209524Y-20206190D01*
X8219048Y-20196667D01*
X8219048Y-20215714D01*
D12*
X6565000Y-20637500D02*
X6590000Y-20662500D01*
X6590000Y-20637500D02*
X6565000Y-20662500D01*
D10*
X6885714Y-20540476D02*
X6904762Y-20540476D01*
X6923809Y-20550000D01*
X6933333Y-20559524D01*
X6942857Y-20578571D01*
X6952381Y-20616667D01*
X6952381Y-20664286D01*
X6942857Y-20702381D01*
X6933333Y-20721429D01*
X6923809Y-20730952D01*
X6904762Y-20740476D01*
X6885714Y-20740476D01*
X6866667Y-20730952D01*
X6857143Y-20721429D01*
X6847619Y-20702381D01*
X6838095Y-20664286D01*
X6838095Y-20616667D01*
X6847619Y-20578571D01*
X6857143Y-20559524D01*
X6866667Y-20550000D01*
X6885714Y-20540476D01*
X7038095Y-20721429D02*
X7047619Y-20730952D01*
X7038095Y-20740476D01*
X7028571Y-20730952D01*
X7038095Y-20721429D01*
X7038095Y-20740476D01*
X7123809Y-20559524D02*
X7133333Y-20550000D01*
X7152381Y-20540476D01*
X7200000Y-20540476D01*
X7219048Y-20550000D01*
X7228571Y-20559524D01*
X7238095Y-20578571D01*
X7238095Y-20597619D01*
X7228571Y-20626190D01*
X7114286Y-20740476D01*
X7238095Y-20740476D01*
X7419048Y-20540476D02*
X7323809Y-20540476D01*
X7314286Y-20635714D01*
X7323809Y-20626190D01*
X7342857Y-20616667D01*
X7390476Y-20616667D01*
X7409524Y-20626190D01*
X7419048Y-20635714D01*
X7428571Y-20654762D01*
X7428571Y-20702381D01*
X7419048Y-20721429D01*
X7409524Y-20730952D01*
X7390476Y-20740476D01*
X7342857Y-20740476D01*
X7323809Y-20730952D01*
X7314286Y-20721429D01*
X7552381Y-20540476D02*
X7571428Y-20540476D01*
X7590476Y-20550000D01*
X7600000Y-20559524D01*
X7609524Y-20578571D01*
X7619048Y-20616667D01*
X7619048Y-20664286D01*
X7609524Y-20702381D01*
X7600000Y-20721429D01*
X7590476Y-20730952D01*
X7571428Y-20740476D01*
X7552381Y-20740476D01*
X7533333Y-20730952D01*
X7523809Y-20721429D01*
X7514286Y-20702381D01*
X7504762Y-20664286D01*
X7504762Y-20616667D01*
X7514286Y-20578571D01*
X7523809Y-20559524D01*
X7533333Y-20550000D01*
X7552381Y-20540476D01*
X7704762Y-20740476D02*
X7704762Y-20607143D01*
X7704762Y-20626190D02*
X7714286Y-20616667D01*
X7733333Y-20607143D01*
X7761905Y-20607143D01*
X7780952Y-20616667D01*
X7790476Y-20635714D01*
X7790476Y-20740476D01*
X7790476Y-20635714D02*
X7800000Y-20616667D01*
X7819048Y-20607143D01*
X7847619Y-20607143D01*
X7866667Y-20616667D01*
X7876190Y-20635714D01*
X7876190Y-20740476D01*
X7971428Y-20740476D02*
X7971428Y-20607143D01*
X7971428Y-20626190D02*
X7980952Y-20616667D01*
X8000000Y-20607143D01*
X8028571Y-20607143D01*
X8047619Y-20616667D01*
X8057143Y-20635714D01*
X8057143Y-20740476D01*
X8057143Y-20635714D02*
X8066667Y-20616667D01*
X8085714Y-20607143D01*
X8114286Y-20607143D01*
X8133333Y-20616667D01*
X8142857Y-20635714D01*
X8142857Y-20740476D01*
X8533333Y-20530952D02*
X8361905Y-20788095D01*
X8790476Y-20540476D02*
X8809524Y-20540476D01*
X8828571Y-20550000D01*
X8838095Y-20559524D01*
X8847619Y-20578571D01*
X8857143Y-20616667D01*
X8857143Y-20664286D01*
X8847619Y-20702381D01*
X8838095Y-20721429D01*
X8828571Y-20730952D01*
X8809524Y-20740476D01*
X8790476Y-20740476D01*
X8771429Y-20730952D01*
X8761905Y-20721429D01*
X8752381Y-20702381D01*
X8742857Y-20664286D01*
X8742857Y-20616667D01*
X8752381Y-20578571D01*
X8761905Y-20559524D01*
X8771429Y-20550000D01*
X8790476Y-20540476D01*
X8942857Y-20721429D02*
X8952381Y-20730952D01*
X8942857Y-20740476D01*
X8933333Y-20730952D01*
X8942857Y-20721429D01*
X8942857Y-20740476D01*
X9076190Y-20540476D02*
X9095238Y-20540476D01*
X9114286Y-20550000D01*
X9123810Y-20559524D01*
X9133333Y-20578571D01*
X9142857Y-20616667D01*
X9142857Y-20664286D01*
X9133333Y-20702381D01*
X9123810Y-20721429D01*
X9114286Y-20730952D01*
X9095238Y-20740476D01*
X9076190Y-20740476D01*
X9057143Y-20730952D01*
X9047619Y-20721429D01*
X9038095Y-20702381D01*
X9028571Y-20664286D01*
X9028571Y-20616667D01*
X9038095Y-20578571D01*
X9047619Y-20559524D01*
X9057143Y-20550000D01*
X9076190Y-20540476D01*
X9266667Y-20540476D02*
X9285714Y-20540476D01*
X9304762Y-20550000D01*
X9314286Y-20559524D01*
X9323810Y-20578571D01*
X9333333Y-20616667D01*
X9333333Y-20664286D01*
X9323810Y-20702381D01*
X9314286Y-20721429D01*
X9304762Y-20730952D01*
X9285714Y-20740476D01*
X9266667Y-20740476D01*
X9247619Y-20730952D01*
X9238095Y-20721429D01*
X9228571Y-20702381D01*
X9219048Y-20664286D01*
X9219048Y-20616667D01*
X9228571Y-20578571D01*
X9238095Y-20559524D01*
X9247619Y-20550000D01*
X9266667Y-20540476D01*
X9428571Y-20740476D02*
X9466667Y-20740476D01*
X9485714Y-20730952D01*
X9495238Y-20721429D01*
X9514286Y-20692857D01*
X9523810Y-20654762D01*
X9523810Y-20578571D01*
X9514286Y-20559524D01*
X9504762Y-20550000D01*
X9485714Y-20540476D01*
X9447619Y-20540476D01*
X9428571Y-20550000D01*
X9419048Y-20559524D01*
X9409524Y-20578571D01*
X9409524Y-20626190D01*
X9419048Y-20645238D01*
X9428571Y-20654762D01*
X9447619Y-20664286D01*
X9485714Y-20664286D01*
X9504762Y-20654762D01*
X9514286Y-20645238D01*
X9523810Y-20626190D01*
X9638095Y-20626190D02*
X9619048Y-20616667D01*
X9609524Y-20607143D01*
X9600000Y-20588095D01*
X9600000Y-20578571D01*
X9609524Y-20559524D01*
X9619048Y-20550000D01*
X9638095Y-20540476D01*
X9676190Y-20540476D01*
X9695238Y-20550000D01*
X9704762Y-20559524D01*
X9714286Y-20578571D01*
X9714286Y-20588095D01*
X9704762Y-20607143D01*
X9695238Y-20616667D01*
X9676190Y-20626190D01*
X9638095Y-20626190D01*
X9619048Y-20635714D01*
X9609524Y-20645238D01*
X9600000Y-20664286D01*
X9600000Y-20702381D01*
X9609524Y-20721429D01*
X9619048Y-20730952D01*
X9638095Y-20740476D01*
X9676190Y-20740476D01*
X9695238Y-20730952D01*
X9704762Y-20721429D01*
X9714286Y-20702381D01*
X9714286Y-20664286D01*
X9704762Y-20645238D01*
X9695238Y-20635714D01*
X9676190Y-20626190D01*
X9790476Y-20540476D02*
X9790476Y-20578571D01*
X9866667Y-20540476D02*
X9866667Y-20578571D01*
X10161905Y-20816667D02*
X10152381Y-20807143D01*
X10133333Y-20778571D01*
X10123810Y-20759524D01*
X10114286Y-20730952D01*
X10104762Y-20683333D01*
X10104762Y-20645238D01*
X10114286Y-20597619D01*
X10123810Y-20569048D01*
X10133333Y-20550000D01*
X10152381Y-20521429D01*
X10161905Y-20511905D01*
X10342857Y-20740476D02*
X10228571Y-20740476D01*
X10285714Y-20740476D02*
X10285714Y-20540476D01*
X10266667Y-20569048D01*
X10247619Y-20588095D01*
X10228571Y-20597619D01*
X10466667Y-20540476D02*
X10485714Y-20540476D01*
X10504762Y-20550000D01*
X10514286Y-20559524D01*
X10523810Y-20578571D01*
X10533333Y-20616667D01*
X10533333Y-20664286D01*
X10523810Y-20702381D01*
X10514286Y-20721429D01*
X10504762Y-20730952D01*
X10485714Y-20740476D01*
X10466667Y-20740476D01*
X10447619Y-20730952D01*
X10438095Y-20721429D01*
X10428571Y-20702381D01*
X10419048Y-20664286D01*
X10419048Y-20616667D01*
X10428571Y-20578571D01*
X10438095Y-20559524D01*
X10447619Y-20550000D01*
X10466667Y-20540476D01*
X10600000Y-20540476D02*
X10723810Y-20540476D01*
X10657143Y-20616667D01*
X10685714Y-20616667D01*
X10704762Y-20626190D01*
X10714286Y-20635714D01*
X10723810Y-20654762D01*
X10723810Y-20702381D01*
X10714286Y-20721429D01*
X10704762Y-20730952D01*
X10685714Y-20740476D01*
X10628571Y-20740476D01*
X10609524Y-20730952D01*
X10600000Y-20721429D01*
X10961905Y-20740476D02*
X10961905Y-20540476D01*
X11047619Y-20740476D02*
X11047619Y-20635714D01*
X11038095Y-20616667D01*
X11019048Y-20607143D01*
X10990476Y-20607143D01*
X10971429Y-20616667D01*
X10961905Y-20626190D01*
X11171429Y-20740476D02*
X11152381Y-20730952D01*
X11142857Y-20721429D01*
X11133333Y-20702381D01*
X11133333Y-20645238D01*
X11142857Y-20626190D01*
X11152381Y-20616667D01*
X11171429Y-20607143D01*
X11200000Y-20607143D01*
X11219048Y-20616667D01*
X11228571Y-20626190D01*
X11238095Y-20645238D01*
X11238095Y-20702381D01*
X11228571Y-20721429D01*
X11219048Y-20730952D01*
X11200000Y-20740476D01*
X11171429Y-20740476D01*
X11352381Y-20740476D02*
X11333333Y-20730952D01*
X11323809Y-20711905D01*
X11323809Y-20540476D01*
X11504762Y-20730952D02*
X11485714Y-20740476D01*
X11447619Y-20740476D01*
X11428571Y-20730952D01*
X11419048Y-20711905D01*
X11419048Y-20635714D01*
X11428571Y-20616667D01*
X11447619Y-20607143D01*
X11485714Y-20607143D01*
X11504762Y-20616667D01*
X11514286Y-20635714D01*
X11514286Y-20654762D01*
X11419048Y-20673810D01*
X11590476Y-20730952D02*
X11609524Y-20740476D01*
X11647619Y-20740476D01*
X11666667Y-20730952D01*
X11676190Y-20711905D01*
X11676190Y-20702381D01*
X11666667Y-20683333D01*
X11647619Y-20673810D01*
X11619048Y-20673810D01*
X11600000Y-20664286D01*
X11590476Y-20645238D01*
X11590476Y-20635714D01*
X11600000Y-20616667D01*
X11619048Y-20607143D01*
X11647619Y-20607143D01*
X11666667Y-20616667D01*
X11742857Y-20816667D02*
X11752381Y-20807143D01*
X11771428Y-20778571D01*
X11780952Y-20759524D01*
X11790476Y-20730952D01*
X11800000Y-20683333D01*
X11800000Y-20645238D01*
X11790476Y-20597619D01*
X11780952Y-20569048D01*
X11771428Y-20550000D01*
X11752381Y-20521429D01*
X11742857Y-20511905D01*
D11*
X6590000Y-20914000D02*
G75*
G03*
X6590000Y-20914000I-50000J0D01*
G01*
D10*
X6952381Y-21004476D02*
X6838095Y-21004476D01*
X6895238Y-21004476D02*
X6895238Y-20804476D01*
X6876190Y-20833048D01*
X6857143Y-20852095D01*
X6838095Y-20861619D01*
X7038095Y-20985429D02*
X7047619Y-20994952D01*
X7038095Y-21004476D01*
X7028571Y-20994952D01*
X7038095Y-20985429D01*
X7038095Y-21004476D01*
X7171428Y-20804476D02*
X7190476Y-20804476D01*
X7209524Y-20814000D01*
X7219048Y-20823524D01*
X7228571Y-20842571D01*
X7238095Y-20880667D01*
X7238095Y-20928286D01*
X7228571Y-20966381D01*
X7219048Y-20985429D01*
X7209524Y-20994952D01*
X7190476Y-21004476D01*
X7171428Y-21004476D01*
X7152381Y-20994952D01*
X7142857Y-20985429D01*
X7133333Y-20966381D01*
X7123809Y-20928286D01*
X7123809Y-20880667D01*
X7133333Y-20842571D01*
X7142857Y-20823524D01*
X7152381Y-20814000D01*
X7171428Y-20804476D01*
X7361905Y-20804476D02*
X7380952Y-20804476D01*
X7400000Y-20814000D01*
X7409524Y-20823524D01*
X7419048Y-20842571D01*
X7428571Y-20880667D01*
X7428571Y-20928286D01*
X7419048Y-20966381D01*
X7409524Y-20985429D01*
X7400000Y-20994952D01*
X7380952Y-21004476D01*
X7361905Y-21004476D01*
X7342857Y-20994952D01*
X7333333Y-20985429D01*
X7323809Y-20966381D01*
X7314286Y-20928286D01*
X7314286Y-20880667D01*
X7323809Y-20842571D01*
X7333333Y-20823524D01*
X7342857Y-20814000D01*
X7361905Y-20804476D01*
X7552381Y-20804476D02*
X7571428Y-20804476D01*
X7590476Y-20814000D01*
X7600000Y-20823524D01*
X7609524Y-20842571D01*
X7619048Y-20880667D01*
X7619048Y-20928286D01*
X7609524Y-20966381D01*
X7600000Y-20985429D01*
X7590476Y-20994952D01*
X7571428Y-21004476D01*
X7552381Y-21004476D01*
X7533333Y-20994952D01*
X7523809Y-20985429D01*
X7514286Y-20966381D01*
X7504762Y-20928286D01*
X7504762Y-20880667D01*
X7514286Y-20842571D01*
X7523809Y-20823524D01*
X7533333Y-20814000D01*
X7552381Y-20804476D01*
X7704762Y-21004476D02*
X7704762Y-20871143D01*
X7704762Y-20890190D02*
X7714286Y-20880667D01*
X7733333Y-20871143D01*
X7761905Y-20871143D01*
X7780952Y-20880667D01*
X7790476Y-20899714D01*
X7790476Y-21004476D01*
X7790476Y-20899714D02*
X7800000Y-20880667D01*
X7819048Y-20871143D01*
X7847619Y-20871143D01*
X7866667Y-20880667D01*
X7876190Y-20899714D01*
X7876190Y-21004476D01*
X7971428Y-21004476D02*
X7971428Y-20871143D01*
X7971428Y-20890190D02*
X7980952Y-20880667D01*
X8000000Y-20871143D01*
X8028571Y-20871143D01*
X8047619Y-20880667D01*
X8057143Y-20899714D01*
X8057143Y-21004476D01*
X8057143Y-20899714D02*
X8066667Y-20880667D01*
X8085714Y-20871143D01*
X8114286Y-20871143D01*
X8133333Y-20880667D01*
X8142857Y-20899714D01*
X8142857Y-21004476D01*
X8533333Y-20794952D02*
X8361905Y-21052095D01*
X8790476Y-20804476D02*
X8809524Y-20804476D01*
X8828571Y-20814000D01*
X8838095Y-20823524D01*
X8847619Y-20842571D01*
X8857143Y-20880667D01*
X8857143Y-20928286D01*
X8847619Y-20966381D01*
X8838095Y-20985429D01*
X8828571Y-20994952D01*
X8809524Y-21004476D01*
X8790476Y-21004476D01*
X8771429Y-20994952D01*
X8761905Y-20985429D01*
X8752381Y-20966381D01*
X8742857Y-20928286D01*
X8742857Y-20880667D01*
X8752381Y-20842571D01*
X8761905Y-20823524D01*
X8771429Y-20814000D01*
X8790476Y-20804476D01*
X8942857Y-20985429D02*
X8952381Y-20994952D01*
X8942857Y-21004476D01*
X8933333Y-20994952D01*
X8942857Y-20985429D01*
X8942857Y-21004476D01*
X9076190Y-20804476D02*
X9095238Y-20804476D01*
X9114286Y-20814000D01*
X9123810Y-20823524D01*
X9133333Y-20842571D01*
X9142857Y-20880667D01*
X9142857Y-20928286D01*
X9133333Y-20966381D01*
X9123810Y-20985429D01*
X9114286Y-20994952D01*
X9095238Y-21004476D01*
X9076190Y-21004476D01*
X9057143Y-20994952D01*
X9047619Y-20985429D01*
X9038095Y-20966381D01*
X9028571Y-20928286D01*
X9028571Y-20880667D01*
X9038095Y-20842571D01*
X9047619Y-20823524D01*
X9057143Y-20814000D01*
X9076190Y-20804476D01*
X9209524Y-20804476D02*
X9333333Y-20804476D01*
X9266667Y-20880667D01*
X9295238Y-20880667D01*
X9314286Y-20890190D01*
X9323810Y-20899714D01*
X9333333Y-20918762D01*
X9333333Y-20966381D01*
X9323810Y-20985429D01*
X9314286Y-20994952D01*
X9295238Y-21004476D01*
X9238095Y-21004476D01*
X9219048Y-20994952D01*
X9209524Y-20985429D01*
X9428571Y-21004476D02*
X9466667Y-21004476D01*
X9485714Y-20994952D01*
X9495238Y-20985429D01*
X9514286Y-20956857D01*
X9523810Y-20918762D01*
X9523810Y-20842571D01*
X9514286Y-20823524D01*
X9504762Y-20814000D01*
X9485714Y-20804476D01*
X9447619Y-20804476D01*
X9428571Y-20814000D01*
X9419048Y-20823524D01*
X9409524Y-20842571D01*
X9409524Y-20890190D01*
X9419048Y-20909238D01*
X9428571Y-20918762D01*
X9447619Y-20928286D01*
X9485714Y-20928286D01*
X9504762Y-20918762D01*
X9514286Y-20909238D01*
X9523810Y-20890190D01*
X9695238Y-20871143D02*
X9695238Y-21004476D01*
X9647619Y-20794952D02*
X9600000Y-20937810D01*
X9723810Y-20937810D01*
X9790476Y-20804476D02*
X9790476Y-20842571D01*
X9866667Y-20804476D02*
X9866667Y-20842571D01*
X10161905Y-21080667D02*
X10152381Y-21071143D01*
X10133333Y-21042571D01*
X10123810Y-21023524D01*
X10114286Y-20994952D01*
X10104762Y-20947333D01*
X10104762Y-20909238D01*
X10114286Y-20861619D01*
X10123810Y-20833048D01*
X10133333Y-20814000D01*
X10152381Y-20785429D01*
X10161905Y-20775905D01*
X10333333Y-20804476D02*
X10238095Y-20804476D01*
X10228571Y-20899714D01*
X10238095Y-20890190D01*
X10257143Y-20880667D01*
X10304762Y-20880667D01*
X10323810Y-20890190D01*
X10333333Y-20899714D01*
X10342857Y-20918762D01*
X10342857Y-20966381D01*
X10333333Y-20985429D01*
X10323810Y-20994952D01*
X10304762Y-21004476D01*
X10257143Y-21004476D01*
X10238095Y-20994952D01*
X10228571Y-20985429D01*
X10514286Y-20871143D02*
X10514286Y-21004476D01*
X10466667Y-20794952D02*
X10419048Y-20937810D01*
X10542857Y-20937810D01*
X10771429Y-21004476D02*
X10771429Y-20804476D01*
X10857143Y-21004476D02*
X10857143Y-20899714D01*
X10847619Y-20880667D01*
X10828571Y-20871143D01*
X10800000Y-20871143D01*
X10780952Y-20880667D01*
X10771429Y-20890190D01*
X10980952Y-21004476D02*
X10961905Y-20994952D01*
X10952381Y-20985429D01*
X10942857Y-20966381D01*
X10942857Y-20909238D01*
X10952381Y-20890190D01*
X10961905Y-20880667D01*
X10980952Y-20871143D01*
X11009524Y-20871143D01*
X11028571Y-20880667D01*
X11038095Y-20890190D01*
X11047619Y-20909238D01*
X11047619Y-20966381D01*
X11038095Y-20985429D01*
X11028571Y-20994952D01*
X11009524Y-21004476D01*
X10980952Y-21004476D01*
X11161905Y-21004476D02*
X11142857Y-20994952D01*
X11133333Y-20975905D01*
X11133333Y-20804476D01*
X11314286Y-20994952D02*
X11295238Y-21004476D01*
X11257143Y-21004476D01*
X11238095Y-20994952D01*
X11228571Y-20975905D01*
X11228571Y-20899714D01*
X11238095Y-20880667D01*
X11257143Y-20871143D01*
X11295238Y-20871143D01*
X11314286Y-20880667D01*
X11323809Y-20899714D01*
X11323809Y-20918762D01*
X11228571Y-20937810D01*
X11400000Y-20994952D02*
X11419048Y-21004476D01*
X11457143Y-21004476D01*
X11476190Y-20994952D01*
X11485714Y-20975905D01*
X11485714Y-20966381D01*
X11476190Y-20947333D01*
X11457143Y-20937810D01*
X11428571Y-20937810D01*
X11409524Y-20928286D01*
X11400000Y-20909238D01*
X11400000Y-20899714D01*
X11409524Y-20880667D01*
X11428571Y-20871143D01*
X11457143Y-20871143D01*
X11476190Y-20880667D01*
X11552381Y-21080667D02*
X11561905Y-21071143D01*
X11580952Y-21042571D01*
X11590476Y-21023524D01*
X11600000Y-20994952D01*
X11609524Y-20947333D01*
X11609524Y-20909238D01*
X11600000Y-20861619D01*
X11590476Y-20833048D01*
X11580952Y-20814000D01*
X11561905Y-20785429D01*
X11552381Y-20775905D01*
D13*
X6515000Y-21103000D02*
X6515000Y-21253000D01*
X6440000Y-21178000D02*
X6590000Y-21178000D01*
D10*
X6952381Y-21268476D02*
X6838095Y-21268476D01*
X6895238Y-21268476D02*
X6895238Y-21068476D01*
X6876190Y-21097048D01*
X6857143Y-21116095D01*
X6838095Y-21125619D01*
X7038095Y-21249429D02*
X7047619Y-21258952D01*
X7038095Y-21268476D01*
X7028571Y-21258952D01*
X7038095Y-21249429D01*
X7038095Y-21268476D01*
X7228571Y-21068476D02*
X7133333Y-21068476D01*
X7123809Y-21163714D01*
X7133333Y-21154190D01*
X7152381Y-21144667D01*
X7200000Y-21144667D01*
X7219048Y-21154190D01*
X7228571Y-21163714D01*
X7238095Y-21182762D01*
X7238095Y-21230381D01*
X7228571Y-21249429D01*
X7219048Y-21258952D01*
X7200000Y-21268476D01*
X7152381Y-21268476D01*
X7133333Y-21258952D01*
X7123809Y-21249429D01*
X7361905Y-21068476D02*
X7380952Y-21068476D01*
X7400000Y-21078000D01*
X7409524Y-21087524D01*
X7419048Y-21106571D01*
X7428571Y-21144667D01*
X7428571Y-21192286D01*
X7419048Y-21230381D01*
X7409524Y-21249429D01*
X7400000Y-21258952D01*
X7380952Y-21268476D01*
X7361905Y-21268476D01*
X7342857Y-21258952D01*
X7333333Y-21249429D01*
X7323809Y-21230381D01*
X7314286Y-21192286D01*
X7314286Y-21144667D01*
X7323809Y-21106571D01*
X7333333Y-21087524D01*
X7342857Y-21078000D01*
X7361905Y-21068476D01*
X7552381Y-21068476D02*
X7571428Y-21068476D01*
X7590476Y-21078000D01*
X7600000Y-21087524D01*
X7609524Y-21106571D01*
X7619048Y-21144667D01*
X7619048Y-21192286D01*
X7609524Y-21230381D01*
X7600000Y-21249429D01*
X7590476Y-21258952D01*
X7571428Y-21268476D01*
X7552381Y-21268476D01*
X7533333Y-21258952D01*
X7523809Y-21249429D01*
X7514286Y-21230381D01*
X7504762Y-21192286D01*
X7504762Y-21144667D01*
X7514286Y-21106571D01*
X7523809Y-21087524D01*
X7533333Y-21078000D01*
X7552381Y-21068476D01*
X7704762Y-21268476D02*
X7704762Y-21135143D01*
X7704762Y-21154190D02*
X7714286Y-21144667D01*
X7733333Y-21135143D01*
X7761905Y-21135143D01*
X7780952Y-21144667D01*
X7790476Y-21163714D01*
X7790476Y-21268476D01*
X7790476Y-21163714D02*
X7800000Y-21144667D01*
X7819048Y-21135143D01*
X7847619Y-21135143D01*
X7866667Y-21144667D01*
X7876190Y-21163714D01*
X7876190Y-21268476D01*
X7971428Y-21268476D02*
X7971428Y-21135143D01*
X7971428Y-21154190D02*
X7980952Y-21144667D01*
X8000000Y-21135143D01*
X8028571Y-21135143D01*
X8047619Y-21144667D01*
X8057143Y-21163714D01*
X8057143Y-21268476D01*
X8057143Y-21163714D02*
X8066667Y-21144667D01*
X8085714Y-21135143D01*
X8114286Y-21135143D01*
X8133333Y-21144667D01*
X8142857Y-21163714D01*
X8142857Y-21268476D01*
X8533333Y-21058952D02*
X8361905Y-21316095D01*
X8790476Y-21068476D02*
X8809524Y-21068476D01*
X8828571Y-21078000D01*
X8838095Y-21087524D01*
X8847619Y-21106571D01*
X8857143Y-21144667D01*
X8857143Y-21192286D01*
X8847619Y-21230381D01*
X8838095Y-21249429D01*
X8828571Y-21258952D01*
X8809524Y-21268476D01*
X8790476Y-21268476D01*
X8771429Y-21258952D01*
X8761905Y-21249429D01*
X8752381Y-21230381D01*
X8742857Y-21192286D01*
X8742857Y-21144667D01*
X8752381Y-21106571D01*
X8761905Y-21087524D01*
X8771429Y-21078000D01*
X8790476Y-21068476D01*
X8942857Y-21249429D02*
X8952381Y-21258952D01*
X8942857Y-21268476D01*
X8933333Y-21258952D01*
X8942857Y-21249429D01*
X8942857Y-21268476D01*
X9076190Y-21068476D02*
X9095238Y-21068476D01*
X9114286Y-21078000D01*
X9123810Y-21087524D01*
X9133333Y-21106571D01*
X9142857Y-21144667D01*
X9142857Y-21192286D01*
X9133333Y-21230381D01*
X9123810Y-21249429D01*
X9114286Y-21258952D01*
X9095238Y-21268476D01*
X9076190Y-21268476D01*
X9057143Y-21258952D01*
X9047619Y-21249429D01*
X9038095Y-21230381D01*
X9028571Y-21192286D01*
X9028571Y-21144667D01*
X9038095Y-21106571D01*
X9047619Y-21087524D01*
X9057143Y-21078000D01*
X9076190Y-21068476D01*
X9323810Y-21068476D02*
X9228571Y-21068476D01*
X9219048Y-21163714D01*
X9228571Y-21154190D01*
X9247619Y-21144667D01*
X9295238Y-21144667D01*
X9314286Y-21154190D01*
X9323810Y-21163714D01*
X9333333Y-21182762D01*
X9333333Y-21230381D01*
X9323810Y-21249429D01*
X9314286Y-21258952D01*
X9295238Y-21268476D01*
X9247619Y-21268476D01*
X9228571Y-21258952D01*
X9219048Y-21249429D01*
X9428571Y-21268476D02*
X9466667Y-21268476D01*
X9485714Y-21258952D01*
X9495238Y-21249429D01*
X9514286Y-21220857D01*
X9523810Y-21182762D01*
X9523810Y-21106571D01*
X9514286Y-21087524D01*
X9504762Y-21078000D01*
X9485714Y-21068476D01*
X9447619Y-21068476D01*
X9428571Y-21078000D01*
X9419048Y-21087524D01*
X9409524Y-21106571D01*
X9409524Y-21154190D01*
X9419048Y-21173238D01*
X9428571Y-21182762D01*
X9447619Y-21192286D01*
X9485714Y-21192286D01*
X9504762Y-21182762D01*
X9514286Y-21173238D01*
X9523810Y-21154190D01*
X9714286Y-21268476D02*
X9600000Y-21268476D01*
X9657143Y-21268476D02*
X9657143Y-21068476D01*
X9638095Y-21097048D01*
X9619048Y-21116095D01*
X9600000Y-21125619D01*
X9790476Y-21068476D02*
X9790476Y-21106571D01*
X9866667Y-21068476D02*
X9866667Y-21106571D01*
X10161905Y-21344667D02*
X10152381Y-21335143D01*
X10133333Y-21306571D01*
X10123810Y-21287524D01*
X10114286Y-21258952D01*
X10104762Y-21211333D01*
X10104762Y-21173238D01*
X10114286Y-21125619D01*
X10123810Y-21097048D01*
X10133333Y-21078000D01*
X10152381Y-21049429D01*
X10161905Y-21039905D01*
X10276190Y-21068476D02*
X10295238Y-21068476D01*
X10314286Y-21078000D01*
X10323810Y-21087524D01*
X10333333Y-21106571D01*
X10342857Y-21144667D01*
X10342857Y-21192286D01*
X10333333Y-21230381D01*
X10323810Y-21249429D01*
X10314286Y-21258952D01*
X10295238Y-21268476D01*
X10276190Y-21268476D01*
X10257143Y-21258952D01*
X10247619Y-21249429D01*
X10238095Y-21230381D01*
X10228571Y-21192286D01*
X10228571Y-21144667D01*
X10238095Y-21106571D01*
X10247619Y-21087524D01*
X10257143Y-21078000D01*
X10276190Y-21068476D01*
X10580952Y-21268476D02*
X10580952Y-21068476D01*
X10666667Y-21268476D02*
X10666667Y-21163714D01*
X10657143Y-21144667D01*
X10638095Y-21135143D01*
X10609524Y-21135143D01*
X10590476Y-21144667D01*
X10580952Y-21154190D01*
X10790476Y-21268476D02*
X10771429Y-21258952D01*
X10761905Y-21249429D01*
X10752381Y-21230381D01*
X10752381Y-21173238D01*
X10761905Y-21154190D01*
X10771429Y-21144667D01*
X10790476Y-21135143D01*
X10819048Y-21135143D01*
X10838095Y-21144667D01*
X10847619Y-21154190D01*
X10857143Y-21173238D01*
X10857143Y-21230381D01*
X10847619Y-21249429D01*
X10838095Y-21258952D01*
X10819048Y-21268476D01*
X10790476Y-21268476D01*
X10971429Y-21268476D02*
X10952381Y-21258952D01*
X10942857Y-21239905D01*
X10942857Y-21068476D01*
X11123810Y-21258952D02*
X11104762Y-21268476D01*
X11066667Y-21268476D01*
X11047619Y-21258952D01*
X11038095Y-21239905D01*
X11038095Y-21163714D01*
X11047619Y-21144667D01*
X11066667Y-21135143D01*
X11104762Y-21135143D01*
X11123810Y-21144667D01*
X11133333Y-21163714D01*
X11133333Y-21182762D01*
X11038095Y-21201810D01*
X11209524Y-21258952D02*
X11228571Y-21268476D01*
X11266667Y-21268476D01*
X11285714Y-21258952D01*
X11295238Y-21239905D01*
X11295238Y-21230381D01*
X11285714Y-21211333D01*
X11266667Y-21201810D01*
X11238095Y-21201810D01*
X11219048Y-21192286D01*
X11209524Y-21173238D01*
X11209524Y-21163714D01*
X11219048Y-21144667D01*
X11238095Y-21135143D01*
X11266667Y-21135143D01*
X11285714Y-21144667D01*
X11533333Y-21192286D02*
X11685714Y-21192286D01*
X11609524Y-21268476D02*
X11609524Y-21116095D01*
X12019048Y-21135143D02*
X12019048Y-21268476D01*
X11971428Y-21058952D02*
X11923809Y-21201810D01*
X12047619Y-21201810D01*
X12266667Y-21258952D02*
X12285714Y-21268476D01*
X12323809Y-21268476D01*
X12342857Y-21258952D01*
X12352381Y-21239905D01*
X12352381Y-21230381D01*
X12342857Y-21211333D01*
X12323809Y-21201810D01*
X12295238Y-21201810D01*
X12276190Y-21192286D01*
X12266667Y-21173238D01*
X12266667Y-21163714D01*
X12276190Y-21144667D01*
X12295238Y-21135143D01*
X12323809Y-21135143D01*
X12342857Y-21144667D01*
X12466667Y-21268476D02*
X12447619Y-21258952D01*
X12438095Y-21239905D01*
X12438095Y-21068476D01*
X12571428Y-21268476D02*
X12552381Y-21258952D01*
X12542857Y-21249429D01*
X12533333Y-21230381D01*
X12533333Y-21173238D01*
X12542857Y-21154190D01*
X12552381Y-21144667D01*
X12571428Y-21135143D01*
X12600000Y-21135143D01*
X12619048Y-21144667D01*
X12628571Y-21154190D01*
X12638095Y-21173238D01*
X12638095Y-21230381D01*
X12628571Y-21249429D01*
X12619048Y-21258952D01*
X12600000Y-21268476D01*
X12571428Y-21268476D01*
X12695238Y-21135143D02*
X12771428Y-21135143D01*
X12723809Y-21068476D02*
X12723809Y-21239905D01*
X12733333Y-21258952D01*
X12752381Y-21268476D01*
X12771428Y-21268476D01*
X12828571Y-21258952D02*
X12847619Y-21268476D01*
X12885714Y-21268476D01*
X12904762Y-21258952D01*
X12914286Y-21239905D01*
X12914286Y-21230381D01*
X12904762Y-21211333D01*
X12885714Y-21201810D01*
X12857143Y-21201810D01*
X12838095Y-21192286D01*
X12828571Y-21173238D01*
X12828571Y-21163714D01*
X12838095Y-21144667D01*
X12857143Y-21135143D01*
X12885714Y-21135143D01*
X12904762Y-21144667D01*
X12980952Y-21344667D02*
X12990476Y-21335143D01*
X13009524Y-21306571D01*
X13019048Y-21287524D01*
X13028571Y-21258952D01*
X13038095Y-21211333D01*
X13038095Y-21173238D01*
X13028571Y-21125619D01*
X13019048Y-21097048D01*
X13009524Y-21078000D01*
X12990476Y-21049429D01*
X12980952Y-21039905D01*
M02*
