M48
; DRILL file {KiCad 6.0.11-2627ca5db0~126~ubuntu22.04.1} date Sun Apr  2 11:01:54 2023
; FORMAT={-:-/ absolute / inch / decimal}
; #@! TF.CreationDate,2023-04-02T11:01:54+08:00
; #@! TF.GenerationSoftware,Kicad,Pcbnew,6.0.11-2627ca5db0~126~ubuntu22.04.1
; #@! TF.FileFunction,Plated,1,2,PTH
FMAT,2
INCH
; #@! TA.AperFunction,Plated,PTH,ViaDrill
T1C0.0098
; #@! TA.AperFunction,Plated,PTH,ComponentDrill
T2C0.0394
; #@! TA.AperFunction,Plated,PTH,ComponentDrill
T3C0.0591
%
G90
G05
T1
X2.9814Y-3.494
X3.594Y-3.0896
X3.6137Y-4.0541
X3.6924Y-4.0541
X3.7121Y-3.0896
X3.8499Y-7.0463
X3.968Y-4.8022
X3.9877Y-7.0463
X4.0861Y-4.8022
X4.1452Y-5.5502
X4.2633Y-5.5502
X4.2773Y-3.5165
X4.4814Y-3.5393
X4.5192Y-6.2982
X4.6373Y-6.2982
X5.0901Y-3.0502
X5.0901Y-4.0344
X5.2082Y-3.0502
X5.2082Y-4.0541
X5.4838Y-4.7628
X5.5822Y-4.7628
X5.5844Y-6.985
X5.6609Y-5.4911
X5.6708Y-7.0364
X5.7593Y-5.4911
X5.7773Y-3.5613
X5.9814Y-3.5827
X6.0349Y-6.2589
X6.1432Y-6.249
X6.6058Y-3.0896
X6.6058Y-4.0148
X6.7042Y-3.0896
X6.7042Y-4.0148
X6.9798Y-4.7628
X7.0782Y-4.7628
X7.157Y-5.5305
X7.2554Y-5.5305
X7.4212Y-4.3111
X7.5507Y-6.2589
X7.6193Y-4.3393
X7.6491Y-6.2785
X8.1019Y-3.0896
X8.1019Y-4.0344
X8.2003Y-3.0896
X8.2003Y-4.0344
X8.4759Y-4.8022
X8.5743Y-4.8022
X8.6727Y-5.5305
X8.7712Y-5.5305
X8.9782Y-4.3682
X9.0157Y-2.7165
X9.0468Y-6.2589
X9.1452Y-6.2589
X9.5979Y-3.1093
X9.5979Y-4.0148
X9.6964Y-3.1093
X9.6964Y-4.0148
X9.9719Y-4.7825
X10.0901Y-4.7825
X10.1688Y-5.5108
X10.2672Y-5.5108
X10.5428Y-6.2982
X10.6412Y-6.2982
X11.094Y-7.0463
X11.1137Y-3.1093
X11.1137Y-4.0344
X11.1924Y-4.0344
X11.2121Y-3.1093
X11.2121Y-7.0463
X11.468Y-4.7628
X11.5861Y-4.7825
X11.6452Y-5.4911
X11.6637Y-6.6722
X11.7633Y-5.5305
X11.8369Y-6.6474
X12.0389Y-6.2982
X12.1373Y-6.3179
X12.5901Y-3.0699
X12.6097Y-4.0541
X12.6156Y-7.0659
X12.6885Y-7.0069
X12.7279Y-4.0344
X12.9838Y-4.8022
X13.0822Y-4.8022
X13.4232Y-5.628
X13.4666Y-6.7815
X13.6714Y-6.7589
X13.7205Y-6.7126
X13.909Y-5.1171
X13.9316Y-5.0787
X14.0945Y-3.435
X14.1649Y-7.3612
X14.1873Y-6.7363
X14.1929Y-6.7815
X14.1929Y-6.8278
X14.2126Y-3.4055
X14.2126Y-6.8504
X14.2129Y-6.8042
X14.2134Y-6.7589
X14.311Y-6.7126
X14.311Y-6.8898
X14.3336Y-6.69
X14.4011Y-7.3612
T2
X12.7534Y-2.9518
X12.7534Y-3.1486
X13.3243Y-2.9518
X13.3243Y-3.0502
X13.3243Y-3.1486
X13.5034Y-2.9518
X13.5034Y-3.1486
X14.0743Y-2.9518
X14.0743Y-3.0502
X14.0743Y-3.1486
X14.449Y-2.8522
X14.449Y-2.9522
X14.449Y-3.0522
X14.449Y-3.1522
X14.449Y-3.2522
X14.449Y-3.3522
X14.449Y-3.4522
X14.449Y-3.5522
X14.449Y-3.6522
X14.449Y-3.7522
X14.449Y-3.8522
X14.449Y-3.9522
X14.449Y-4.0522
X14.449Y-4.1522
X14.449Y-4.2522
X14.449Y-4.3522
X14.449Y-4.4522
X14.449Y-4.5522
X14.449Y-4.6522
X14.449Y-4.7522
X14.6063Y-5.0197
X14.7063Y-5.0197
X14.8063Y-5.0197
X14.9063Y-5.0197
X15.049Y-2.8522
X15.049Y-2.9522
X15.049Y-3.0522
X15.049Y-3.1522
X15.049Y-3.2522
X15.049Y-3.3522
X15.049Y-3.4522
X15.049Y-3.5522
X15.049Y-3.6522
X15.049Y-3.7522
X15.049Y-3.8522
X15.049Y-3.9522
X15.049Y-4.0522
X15.049Y-4.1522
X15.049Y-4.2522
X15.049Y-4.3522
X15.049Y-4.4522
X15.049Y-4.5522
X15.049Y-4.6522
X15.049Y-4.7522
T3
G00X13.0546Y-2.8297
M15
G01X13.0034Y-2.8297
M16
G05
G00X13.0546Y-3.2707
M15
G01X13.0034Y-3.2707
M16
G05
G00X13.8046Y-2.8297
M15
G01X13.7534Y-2.8297
M16
G05
G00X13.8046Y-3.2707
M15
G01X13.7534Y-3.2707
M16
G05
T0
M30
