M48
; DRILL file {KiCad 6.0.11-2627ca5db0~126~ubuntu22.04.1} date Sun Apr  2 11:01:54 2023
; FORMAT={-:-/ absolute / inch / decimal}
; #@! TF.CreationDate,2023-04-02T11:01:54+08:00
; #@! TF.GenerationSoftware,Kicad,Pcbnew,6.0.11-2627ca5db0~126~ubuntu22.04.1
; #@! TF.FileFunction,NonPlated,1,2,NPTH
FMAT,2
INCH
; #@! TA.AperFunction,NonPlated,NPTH,ComponentDrill
T1C0.0670
; #@! TA.AperFunction,NonPlated,NPTH,ComponentDrill
T2C0.1181
; #@! TA.AperFunction,NonPlated,NPTH,ComponentDrill
T3C0.1200
; #@! TA.AperFunction,NonPlated,NPTH,ComponentDrill
T4C0.1260
; #@! TA.AperFunction,NonPlated,NPTH,ComponentDrill
T5C0.1570
%
G90
G05
T1
X3.079Y-3.0502
X3.079Y-3.9877
X3.1762Y-6.9877
X3.2626Y-4.7377
X3.3563Y-5.4877
X3.479Y-3.0502
X3.479Y-3.9877
X3.5512Y-6.2377
X3.5762Y-6.9877
X3.6626Y-4.7377
X3.7563Y-5.4877
X3.829Y-3.0502
X3.829Y-3.9877
X3.9512Y-6.2377
X4.1137Y-6.9877
X4.2001Y-4.7377
X4.229Y-3.0502
X4.229Y-3.9877
X4.3876Y-5.4877
X4.5137Y-6.9877
X4.579Y-3.0502
X4.579Y-3.9877
X4.6001Y-4.7377
X4.77Y-6.2377
X4.7876Y-5.4877
X4.9501Y-4.7377
X4.979Y-3.0502
X4.979Y-3.9877
X5.0512Y-6.9877
X5.1376Y-5.4877
X5.17Y-6.2377
X5.329Y-3.0502
X5.329Y-3.9877
X5.3501Y-4.7377
X5.4512Y-6.9877
X5.519Y-6.2377
X5.5376Y-5.4877
X5.7001Y-4.7377
X5.729Y-3.0502
X5.729Y-3.9877
X5.8876Y-5.4877
X5.919Y-6.2377
X6.079Y-3.0502
X6.079Y-3.9877
X6.1001Y-4.7377
X6.269Y-6.2377
X6.2876Y-5.4877
X6.4501Y-4.7377
X6.479Y-3.0502
X6.479Y-3.9877
X6.6376Y-5.4877
X6.669Y-6.2377
X6.829Y-3.0502
X6.829Y-3.9877
X6.8501Y-4.7377
X7.019Y-6.2377
X7.0376Y-5.4877
X7.2001Y-4.7377
X7.229Y-3.0502
X7.229Y-3.9877
X7.3876Y-5.4877
X7.419Y-6.2377
X7.579Y-3.0502
X7.579Y-3.9877
X7.6001Y-4.7377
X7.769Y-6.2377
X7.7876Y-5.4877
X7.8627Y-6.9877
X7.9501Y-4.7377
X7.979Y-3.0502
X7.979Y-3.9877
X8.1376Y-5.4877
X8.169Y-6.2377
X8.2627Y-6.9877
X8.329Y-3.0502
X8.329Y-3.9877
X8.3501Y-4.7377
X8.519Y-6.2377
X8.5376Y-5.4877
X8.7001Y-4.7377
X8.729Y-3.0502
X8.729Y-3.9877
X8.8876Y-5.4877
X8.919Y-6.2377
X9.079Y-3.0502
X9.079Y-3.9877
X9.1001Y-4.7377
X9.269Y-6.2377
X9.2876Y-5.4877
X9.4501Y-4.7377
X9.479Y-3.0502
X9.479Y-3.9877
X9.6376Y-5.4877
X9.669Y-6.2377
X9.829Y-3.0502
X9.829Y-3.9877
X9.8501Y-4.7377
X10.019Y-6.2377
X10.0376Y-5.4877
X10.2001Y-4.7377
X10.229Y-3.0502
X10.229Y-3.9877
X10.3876Y-5.4877
X10.419Y-6.2377
X10.579Y-3.0502
X10.579Y-3.9877
X10.5815Y-6.9877
X10.6001Y-4.7377
X10.769Y-6.2377
X10.7876Y-5.4877
X10.9501Y-4.7377
X10.979Y-3.0502
X10.979Y-3.9877
X10.9815Y-6.9877
X11.1376Y-5.4877
X11.169Y-6.2377
X11.329Y-3.0502
X11.329Y-3.9877
X11.3315Y-6.9877
X11.3501Y-4.7377
X11.519Y-6.2377
X11.5376Y-5.4877
X11.7001Y-4.7377
X11.729Y-3.0502
X11.729Y-3.9877
X11.7315Y-6.9877
X11.8876Y-5.4877
X11.919Y-6.2377
X12.079Y-3.0502
X12.079Y-3.9877
X12.0815Y-6.9877
X12.1001Y-4.7377
X12.2876Y-5.4877
X12.4501Y-4.7377
X12.479Y-3.0502
X12.479Y-3.9877
X12.4815Y-6.9877
X12.5552Y-6.2377
X12.8501Y-4.7377
X12.9552Y-6.2377
X13.019Y-7.1752
X13.1063Y-5.4877
X13.204Y-3.9877
X13.3876Y-4.7377
X13.419Y-7.1752
X13.5063Y-5.4877
X13.604Y-3.9877
X13.769Y-6.4252
X13.769Y-7.1752
X13.7876Y-4.7377
X14.169Y-6.4252
X14.169Y-7.1752
X14.519Y-7.1752
X14.919Y-7.1752
T2
X3.129Y-2.9502
X3.129Y-3.8877
X3.2262Y-6.8877
X3.3126Y-4.6377
X3.379Y-2.8502
X3.379Y-3.7877
X3.4063Y-5.3877
X3.4762Y-6.7877
X3.5626Y-4.5377
X3.6012Y-6.1377
X3.6563Y-5.2877
X3.8512Y-6.0377
X3.879Y-2.9502
X3.879Y-3.8877
X4.129Y-2.8502
X4.129Y-3.7877
X4.1637Y-6.8877
X4.2501Y-4.6377
X4.4137Y-6.7877
X4.4376Y-5.3877
X4.5001Y-4.5377
X4.629Y-2.9502
X4.629Y-3.8877
X4.6876Y-5.2877
X4.82Y-6.1377
X4.879Y-2.8502
X4.879Y-3.7877
X5.0001Y-4.6377
X5.07Y-6.0377
X5.1012Y-6.8877
X5.1876Y-5.3877
X5.2501Y-4.5377
X5.3512Y-6.7877
X5.379Y-2.9502
X5.379Y-3.8877
X5.4376Y-5.2877
X5.569Y-6.1377
X5.629Y-2.8502
X5.629Y-3.7877
X5.7501Y-4.6377
X5.819Y-6.0377
X5.9376Y-5.3877
X6.0001Y-4.5377
X6.129Y-2.9502
X6.129Y-3.8877
X6.1876Y-5.2877
X6.319Y-6.1377
X6.379Y-2.8502
X6.379Y-3.7877
X6.5001Y-4.6377
X6.569Y-6.0377
X6.6876Y-5.3877
X6.7501Y-4.5377
X6.879Y-2.9502
X6.879Y-3.8877
X6.9376Y-5.2877
X7.069Y-6.1377
X7.129Y-2.8502
X7.129Y-3.7877
X7.2501Y-4.6377
X7.319Y-6.0377
X7.4376Y-5.3877
X7.5001Y-4.5377
X7.629Y-2.9502
X7.629Y-3.8877
X7.6876Y-5.2877
X7.819Y-6.1377
X7.879Y-2.8502
X7.879Y-3.7877
X7.9127Y-6.8877
X8.0001Y-4.6377
X8.069Y-6.0377
X8.1627Y-6.7877
X8.1876Y-5.3877
X8.2501Y-4.5377
X8.379Y-2.9502
X8.379Y-3.8877
X8.4376Y-5.2877
X8.569Y-6.1377
X8.629Y-2.8502
X8.629Y-3.7877
X8.7501Y-4.6377
X8.819Y-6.0377
X8.9376Y-5.3877
X9.0001Y-4.5377
X9.129Y-2.9502
X9.129Y-3.8877
X9.1876Y-5.2877
X9.319Y-6.1377
X9.379Y-2.8502
X9.379Y-3.7877
X9.5001Y-4.6377
X9.569Y-6.0377
X9.6876Y-5.3877
X9.7501Y-4.5377
X9.879Y-2.9502
X9.879Y-3.8877
X9.9376Y-5.2877
X10.069Y-6.1377
X10.129Y-2.8502
X10.129Y-3.7877
X10.2501Y-4.6377
X10.319Y-6.0377
X10.4376Y-5.3877
X10.5001Y-4.5377
X10.629Y-2.9502
X10.629Y-3.8877
X10.6315Y-6.8877
X10.6876Y-5.2877
X10.819Y-6.1377
X10.879Y-2.8502
X10.879Y-3.7877
X10.8815Y-6.7877
X11.0001Y-4.6377
X11.069Y-6.0377
X11.1876Y-5.3877
X11.2501Y-4.5377
X11.379Y-2.9502
X11.379Y-3.8877
X11.3815Y-6.8877
X11.4376Y-5.2877
X11.569Y-6.1377
X11.629Y-2.8502
X11.629Y-3.7877
X11.6315Y-6.7877
X11.7501Y-4.6377
X11.819Y-6.0377
X11.9376Y-5.3877
X12.0001Y-4.5377
X12.129Y-2.9502
X12.129Y-3.8877
X12.1315Y-6.8877
X12.1876Y-5.2877
X12.379Y-2.8502
X12.379Y-3.7877
X12.3815Y-6.7877
X12.5001Y-4.6377
X12.6052Y-6.1377
X12.7501Y-4.5377
X12.8552Y-6.0377
X13.069Y-7.0752
X13.1563Y-5.3877
X13.254Y-3.8877
X13.319Y-6.9752
X13.4063Y-5.2877
X13.4376Y-4.6377
X13.504Y-3.7877
X13.6876Y-4.5377
X13.819Y-6.3252
X13.819Y-7.0752
X14.069Y-6.2252
X14.069Y-6.9752
X14.569Y-7.0752
X14.819Y-6.9752
T3
X3.2827Y-5.9627
X4.2197Y-5.9627
X6.094Y-7.2622
X10.031Y-7.2622
X12.8378Y-5.2127
X12.9355Y-3.7127
X13.7749Y-5.2127
X13.8725Y-3.7127
T4
X2.7165Y-2.4803
X2.7165Y-7.7559
X8.8583Y-7.7559
X8.8583Y-2.4803
X9.3307Y-7.7559
X9.3307Y-2.4803
X15.4724Y-2.4803
X15.4724Y-7.7559
T5
X3.279Y-3.0502
X3.279Y-3.9877
X3.2827Y-6.5627
X3.3762Y-6.9877
X3.4626Y-4.7377
X3.5563Y-5.4877
X3.7512Y-6.2377
X4.029Y-3.0502
X4.029Y-3.9877
X4.2197Y-6.5627
X4.3137Y-6.9877
X4.4001Y-4.7377
X4.5876Y-5.4877
X4.779Y-3.0502
X4.779Y-3.9877
X4.97Y-6.2377
X5.1501Y-4.7377
X5.2512Y-6.9877
X5.3376Y-5.4877
X5.529Y-3.0502
X5.529Y-3.9877
X5.719Y-6.2377
X5.9001Y-4.7377
X6.0876Y-5.4877
X6.094Y-6.6634
X6.279Y-3.0502
X6.279Y-3.9877
X6.469Y-6.2377
X6.6501Y-4.7377
X6.8376Y-5.4877
X7.029Y-3.0502
X7.029Y-3.9877
X7.219Y-6.2377
X7.4001Y-4.7377
X7.5876Y-5.4877
X7.779Y-3.0502
X7.779Y-3.9877
X7.969Y-6.2377
X8.0627Y-6.9877
X8.1501Y-4.7377
X8.3376Y-5.4877
X8.529Y-3.0502
X8.529Y-3.9877
X8.719Y-6.2377
X8.9001Y-4.7377
X9.0876Y-5.4877
X9.279Y-3.0502
X9.279Y-3.9877
X9.469Y-6.2377
X9.6501Y-4.7377
X9.8376Y-5.4877
X10.029Y-3.0502
X10.029Y-3.9877
X10.031Y-6.6634
X10.219Y-6.2377
X10.4001Y-4.7377
X10.5876Y-5.4877
X10.779Y-3.0502
X10.779Y-3.9877
X10.7815Y-6.9877
X10.969Y-6.2377
X11.1501Y-4.7377
X11.3376Y-5.4877
X11.529Y-3.0502
X11.529Y-3.9877
X11.5315Y-6.9877
X11.719Y-6.2377
X11.9001Y-4.7377
X12.0876Y-5.4877
X12.279Y-3.0502
X12.279Y-3.9877
X12.2815Y-6.9877
X12.6501Y-4.7377
X12.7552Y-6.2377
X12.8378Y-5.8127
X12.9355Y-4.3127
X13.219Y-7.1752
X13.3063Y-5.4877
X13.404Y-3.9877
X13.5876Y-4.7377
X13.7749Y-5.8127
X13.8725Y-4.3127
X13.969Y-6.4252
X13.969Y-7.1752
X14.719Y-7.1752
T0
M30
