%TF.GenerationSoftware,KiCad,Pcbnew,6.0.11-2627ca5db0~126~ubuntu22.04.1*%
%TF.CreationDate,2023-04-02T11:01:53+08:00*%
%TF.ProjectId,explorekb75,6578706c-6f72-4656-9b62-37352e6b6963,rev?*%
%TF.SameCoordinates,Original*%
%TF.FileFunction,Drillmap*%
%TF.FilePolarity,Positive*%
%FSLAX45Y45*%
G04 Gerber Fmt 4.5, Leading zero omitted, Abs format (unit mm)*
G04 Created by KiCad (PCBNEW 6.0.11-2627ca5db0~126~ubuntu22.04.1) date 2023-04-02 11:01:53*
%MOMM*%
%LPD*%
G01*
G04 APERTURE LIST*
%ADD10C,0.200000*%
%ADD11C,0.100000*%
%ADD12C,0.170180*%
%ADD13C,0.300000*%
%ADD14C,0.304800*%
%ADD15C,0.320000*%
%ADD16C,0.398780*%
G04 APERTURE END LIST*
D10*
X39300000Y-20000000D02*
G75*
G03*
X39600000Y-19700000I0J300000D01*
G01*
X39300000Y-20000000D02*
X6900000Y-20000000D01*
X6600000Y-19700000D02*
G75*
G03*
X6900000Y-20000000I300000J0D01*
G01*
X39600000Y-6300000D02*
G75*
G03*
X39300000Y-6000000I-300000J0D01*
G01*
D11*
X38030000Y-12350000D02*
X36900000Y-12350000D01*
X36900000Y-12350000D02*
X36900000Y-6900000D01*
X36900000Y-6900000D02*
X38030000Y-6900000D01*
X38030000Y-6900000D02*
X38030000Y-12350000D01*
D10*
X39600000Y-6300000D02*
X39600000Y-19700000D01*
X6600000Y-19700000D02*
X6600000Y-6300000D01*
X6900000Y-6000000D02*
X39300000Y-6000000D01*
X6900000Y-6000000D02*
G75*
G03*
X6600000Y-6300000I0J-300000D01*
G01*
D12*
X7735658Y-7662410D02*
X7905838Y-7832590D01*
X7905838Y-7662410D02*
X7735658Y-7832590D01*
X7735658Y-10043660D02*
X7905838Y-10213840D01*
X7905838Y-10043660D02*
X7735658Y-10213840D01*
X7982533Y-17663660D02*
X8152713Y-17833840D01*
X8152713Y-17663660D02*
X7982533Y-17833840D01*
X8201908Y-11948660D02*
X8372088Y-12118840D01*
X8372088Y-11948660D02*
X8201908Y-12118840D01*
X8440034Y-13853660D02*
X8610214Y-14023840D01*
X8610214Y-13853660D02*
X8440034Y-14023840D01*
X8751659Y-7662410D02*
X8921839Y-7832590D01*
X8921839Y-7662410D02*
X8751659Y-7832590D01*
X8751659Y-10043660D02*
X8921839Y-10213840D01*
X8921839Y-10043660D02*
X8751659Y-10213840D01*
X8935034Y-15758660D02*
X9105214Y-15928840D01*
X9105214Y-15758660D02*
X8935034Y-15928840D01*
X8998534Y-17663660D02*
X9168714Y-17833840D01*
X9168714Y-17663660D02*
X8998534Y-17833840D01*
X9217909Y-11948660D02*
X9388089Y-12118840D01*
X9388089Y-11948660D02*
X9217909Y-12118840D01*
X9456034Y-13853660D02*
X9626214Y-14023840D01*
X9626214Y-13853660D02*
X9456034Y-14023840D01*
X9640659Y-7662410D02*
X9810839Y-7832590D01*
X9810839Y-7662410D02*
X9640659Y-7832590D01*
X9640659Y-10043660D02*
X9810839Y-10213840D01*
X9810839Y-10043660D02*
X9640659Y-10213840D01*
X9951034Y-15758660D02*
X10121214Y-15928840D01*
X10121214Y-15758660D02*
X9951034Y-15928840D01*
X10363784Y-17663660D02*
X10533964Y-17833840D01*
X10533964Y-17663660D02*
X10363784Y-17833840D01*
X10583159Y-11948660D02*
X10753339Y-12118840D01*
X10753339Y-11948660D02*
X10583159Y-12118840D01*
X10656659Y-7662410D02*
X10826839Y-7832590D01*
X10826839Y-7662410D02*
X10656659Y-7832590D01*
X10656659Y-10043660D02*
X10826839Y-10213840D01*
X10826839Y-10043660D02*
X10656659Y-10213840D01*
X11059409Y-13853660D02*
X11229588Y-14023840D01*
X11229588Y-13853660D02*
X11059409Y-14023840D01*
X11379783Y-17663660D02*
X11549963Y-17833840D01*
X11549963Y-17663660D02*
X11379783Y-17833840D01*
X11545658Y-7662410D02*
X11715838Y-7832590D01*
X11715838Y-7662410D02*
X11545658Y-7832590D01*
X11545658Y-10043660D02*
X11715838Y-10213840D01*
X11715838Y-10043660D02*
X11545658Y-10213840D01*
X11599158Y-11948660D02*
X11769338Y-12118840D01*
X11769338Y-11948660D02*
X11599158Y-12118840D01*
X12030658Y-15758660D02*
X12200838Y-15928840D01*
X12200838Y-15758660D02*
X12030658Y-15928840D01*
X12075408Y-13853660D02*
X12245588Y-14023840D01*
X12245588Y-13853660D02*
X12075408Y-14023840D01*
X12488158Y-11948660D02*
X12658338Y-12118840D01*
X12658338Y-11948660D02*
X12488158Y-12118840D01*
X12561658Y-7662410D02*
X12731838Y-7832590D01*
X12731838Y-7662410D02*
X12561658Y-7832590D01*
X12561658Y-10043660D02*
X12731838Y-10213840D01*
X12731838Y-10043660D02*
X12561658Y-10213840D01*
X12745033Y-17663660D02*
X12915213Y-17833840D01*
X12915213Y-17663660D02*
X12745033Y-17833840D01*
X12964408Y-13853660D02*
X13134588Y-14023840D01*
X13134588Y-13853660D02*
X12964408Y-14023840D01*
X13046658Y-15758660D02*
X13216838Y-15928840D01*
X13216838Y-15758660D02*
X13046658Y-15928840D01*
X13450658Y-7662410D02*
X13620838Y-7832590D01*
X13620838Y-7662410D02*
X13450658Y-7832590D01*
X13450658Y-10043660D02*
X13620838Y-10213840D01*
X13620838Y-10043660D02*
X13450658Y-10213840D01*
X13504158Y-11948660D02*
X13674338Y-12118840D01*
X13674338Y-11948660D02*
X13504158Y-12118840D01*
X13761033Y-17663660D02*
X13931213Y-17833840D01*
X13931213Y-17663660D02*
X13761033Y-17833840D01*
X13933158Y-15758660D02*
X14103338Y-15928840D01*
X14103338Y-15758660D02*
X13933158Y-15928840D01*
X13980408Y-13853660D02*
X14150588Y-14023840D01*
X14150588Y-13853660D02*
X13980408Y-14023840D01*
X14393158Y-11948660D02*
X14563338Y-12118840D01*
X14563338Y-11948660D02*
X14393158Y-12118840D01*
X14466658Y-7662410D02*
X14636838Y-7832590D01*
X14636838Y-7662410D02*
X14466658Y-7832590D01*
X14466658Y-10043660D02*
X14636838Y-10213840D01*
X14636838Y-10043660D02*
X14466658Y-10213840D01*
X14869408Y-13853660D02*
X15039588Y-14023840D01*
X15039588Y-13853660D02*
X14869408Y-14023840D01*
X14949158Y-15758660D02*
X15119338Y-15928840D01*
X15119338Y-15758660D02*
X14949158Y-15928840D01*
X15355658Y-7662410D02*
X15525838Y-7832590D01*
X15525838Y-7662410D02*
X15355658Y-7832590D01*
X15355658Y-10043660D02*
X15525838Y-10213840D01*
X15525838Y-10043660D02*
X15355658Y-10213840D01*
X15409158Y-11948660D02*
X15579338Y-12118840D01*
X15579338Y-11948660D02*
X15409158Y-12118840D01*
X15838158Y-15758660D02*
X16008338Y-15928840D01*
X16008338Y-15758660D02*
X15838158Y-15928840D01*
X15885408Y-13853660D02*
X16055588Y-14023840D01*
X16055588Y-13853660D02*
X15885408Y-14023840D01*
X16298158Y-11948660D02*
X16468338Y-12118840D01*
X16468338Y-11948660D02*
X16298158Y-12118840D01*
X16371658Y-7662410D02*
X16541838Y-7832590D01*
X16541838Y-7662410D02*
X16371658Y-7832590D01*
X16371658Y-10043660D02*
X16541838Y-10213840D01*
X16541838Y-10043660D02*
X16371658Y-10213840D01*
X16774408Y-13853660D02*
X16944589Y-14023840D01*
X16944589Y-13853660D02*
X16774408Y-14023840D01*
X16854159Y-15758660D02*
X17024339Y-15928840D01*
X17024339Y-15758660D02*
X16854159Y-15928840D01*
X17260659Y-7662410D02*
X17430839Y-7832590D01*
X17430839Y-7662410D02*
X17260659Y-7832590D01*
X17260659Y-10043660D02*
X17430839Y-10213840D01*
X17430839Y-10043660D02*
X17260659Y-10213840D01*
X17314159Y-11948660D02*
X17484339Y-12118840D01*
X17484339Y-11948660D02*
X17314159Y-12118840D01*
X17743159Y-15758660D02*
X17913339Y-15928840D01*
X17913339Y-15758660D02*
X17743159Y-15928840D01*
X17790409Y-13853660D02*
X17960589Y-14023840D01*
X17960589Y-13853660D02*
X17790409Y-14023840D01*
X18203159Y-11948660D02*
X18373339Y-12118840D01*
X18373339Y-11948660D02*
X18203159Y-12118840D01*
X18276659Y-7662410D02*
X18446839Y-7832590D01*
X18446839Y-7662410D02*
X18276659Y-7832590D01*
X18276659Y-10043660D02*
X18446839Y-10213840D01*
X18446839Y-10043660D02*
X18276659Y-10213840D01*
X18679409Y-13853660D02*
X18849589Y-14023840D01*
X18849589Y-13853660D02*
X18679409Y-14023840D01*
X18759159Y-15758660D02*
X18929339Y-15928840D01*
X18929339Y-15758660D02*
X18759159Y-15928840D01*
X19165659Y-7662410D02*
X19335839Y-7832590D01*
X19335839Y-7662410D02*
X19165659Y-7832590D01*
X19165659Y-10043660D02*
X19335839Y-10213840D01*
X19335839Y-10043660D02*
X19165659Y-10213840D01*
X19219159Y-11948660D02*
X19389339Y-12118840D01*
X19389339Y-11948660D02*
X19219159Y-12118840D01*
X19648159Y-15758660D02*
X19818339Y-15928840D01*
X19818339Y-15758660D02*
X19648159Y-15928840D01*
X19695409Y-13853660D02*
X19865589Y-14023840D01*
X19865589Y-13853660D02*
X19695409Y-14023840D01*
X19886284Y-17663660D02*
X20056464Y-17833840D01*
X20056464Y-17663660D02*
X19886284Y-17833840D01*
X20108159Y-11948660D02*
X20278339Y-12118840D01*
X20278339Y-11948660D02*
X20108159Y-12118840D01*
X20181659Y-7662410D02*
X20351839Y-7832590D01*
X20351839Y-7662410D02*
X20181659Y-7832590D01*
X20181659Y-10043660D02*
X20351839Y-10213840D01*
X20351839Y-10043660D02*
X20181659Y-10213840D01*
X20584409Y-13853660D02*
X20754589Y-14023840D01*
X20754589Y-13853660D02*
X20584409Y-14023840D01*
X20664159Y-15758660D02*
X20834339Y-15928840D01*
X20834339Y-15758660D02*
X20664159Y-15928840D01*
X20902284Y-17663660D02*
X21072464Y-17833840D01*
X21072464Y-17663660D02*
X20902284Y-17833840D01*
X21070659Y-7662410D02*
X21240839Y-7832590D01*
X21240839Y-7662410D02*
X21070659Y-7832590D01*
X21070659Y-10043660D02*
X21240839Y-10213840D01*
X21240839Y-10043660D02*
X21070659Y-10213840D01*
X21124159Y-11948660D02*
X21294339Y-12118840D01*
X21294339Y-11948660D02*
X21124159Y-12118840D01*
X21553159Y-15758660D02*
X21723339Y-15928840D01*
X21723339Y-15758660D02*
X21553159Y-15928840D01*
X21600409Y-13853660D02*
X21770589Y-14023840D01*
X21770589Y-13853660D02*
X21600409Y-14023840D01*
X22013159Y-11948660D02*
X22183339Y-12118840D01*
X22183339Y-11948660D02*
X22013159Y-12118840D01*
X22086659Y-7662410D02*
X22256839Y-7832590D01*
X22256839Y-7662410D02*
X22086659Y-7832590D01*
X22086659Y-10043660D02*
X22256839Y-10213840D01*
X22256839Y-10043660D02*
X22086659Y-10213840D01*
X22489408Y-13853660D02*
X22659588Y-14023840D01*
X22659588Y-13853660D02*
X22489408Y-14023840D01*
X22569158Y-15758660D02*
X22739338Y-15928840D01*
X22739338Y-15758660D02*
X22569158Y-15928840D01*
X22975658Y-7662410D02*
X23145838Y-7832590D01*
X23145838Y-7662410D02*
X22975658Y-7832590D01*
X22975658Y-10043660D02*
X23145838Y-10213840D01*
X23145838Y-10043660D02*
X22975658Y-10213840D01*
X23029158Y-11948660D02*
X23199338Y-12118840D01*
X23199338Y-11948660D02*
X23029158Y-12118840D01*
X23458158Y-15758660D02*
X23628338Y-15928840D01*
X23628338Y-15758660D02*
X23458158Y-15928840D01*
X23505408Y-13853660D02*
X23675588Y-14023840D01*
X23675588Y-13853660D02*
X23505408Y-14023840D01*
X23918158Y-11948660D02*
X24088338Y-12118840D01*
X24088338Y-11948660D02*
X23918158Y-12118840D01*
X23991658Y-7662410D02*
X24161838Y-7832590D01*
X24161838Y-7662410D02*
X23991658Y-7832590D01*
X23991658Y-10043660D02*
X24161838Y-10213840D01*
X24161838Y-10043660D02*
X23991658Y-10213840D01*
X24394408Y-13853660D02*
X24564588Y-14023840D01*
X24564588Y-13853660D02*
X24394408Y-14023840D01*
X24474158Y-15758660D02*
X24644338Y-15928840D01*
X24644338Y-15758660D02*
X24474158Y-15928840D01*
X24880658Y-7662410D02*
X25050838Y-7832590D01*
X25050838Y-7662410D02*
X24880658Y-7832590D01*
X24880658Y-10043660D02*
X25050838Y-10213840D01*
X25050838Y-10043660D02*
X24880658Y-10213840D01*
X24934158Y-11948660D02*
X25104338Y-12118840D01*
X25104338Y-11948660D02*
X24934158Y-12118840D01*
X25363158Y-15758660D02*
X25533338Y-15928840D01*
X25533338Y-15758660D02*
X25363158Y-15928840D01*
X25410408Y-13853660D02*
X25580588Y-14023840D01*
X25580588Y-13853660D02*
X25410408Y-14023840D01*
X25823158Y-11948660D02*
X25993338Y-12118840D01*
X25993338Y-11948660D02*
X25823158Y-12118840D01*
X25896658Y-7662410D02*
X26066838Y-7832590D01*
X26066838Y-7662410D02*
X25896658Y-7832590D01*
X25896658Y-10043660D02*
X26066838Y-10213840D01*
X26066838Y-10043660D02*
X25896658Y-10213840D01*
X26299408Y-13853660D02*
X26469588Y-14023840D01*
X26469588Y-13853660D02*
X26299408Y-14023840D01*
X26379158Y-15758660D02*
X26549338Y-15928840D01*
X26549338Y-15758660D02*
X26379158Y-15928840D01*
X26785658Y-7662410D02*
X26955838Y-7832590D01*
X26955838Y-7662410D02*
X26785658Y-7832590D01*
X26785658Y-10043660D02*
X26955838Y-10213840D01*
X26955838Y-10043660D02*
X26785658Y-10213840D01*
X26791908Y-17663660D02*
X26962088Y-17833840D01*
X26962088Y-17663660D02*
X26791908Y-17833840D01*
X26839158Y-11948660D02*
X27009338Y-12118840D01*
X27009338Y-11948660D02*
X26839158Y-12118840D01*
X27268158Y-15758660D02*
X27438338Y-15928840D01*
X27438338Y-15758660D02*
X27268158Y-15928840D01*
X27315408Y-13853660D02*
X27485588Y-14023840D01*
X27485588Y-13853660D02*
X27315408Y-14023840D01*
X27728158Y-11948660D02*
X27898338Y-12118840D01*
X27898338Y-11948660D02*
X27728158Y-12118840D01*
X27801658Y-7662410D02*
X27971838Y-7832590D01*
X27971838Y-7662410D02*
X27801658Y-7832590D01*
X27801658Y-10043660D02*
X27971838Y-10213840D01*
X27971838Y-10043660D02*
X27801658Y-10213840D01*
X27807908Y-17663660D02*
X27978088Y-17833840D01*
X27978088Y-17663660D02*
X27807908Y-17833840D01*
X28204408Y-13853660D02*
X28374588Y-14023840D01*
X28374588Y-13853660D02*
X28204408Y-14023840D01*
X28284158Y-15758660D02*
X28454338Y-15928840D01*
X28454338Y-15758660D02*
X28284158Y-15928840D01*
X28690658Y-7662410D02*
X28860838Y-7832590D01*
X28860838Y-7662410D02*
X28690658Y-7832590D01*
X28690658Y-10043660D02*
X28860838Y-10213840D01*
X28860838Y-10043660D02*
X28690658Y-10213840D01*
X28696908Y-17663660D02*
X28867088Y-17833840D01*
X28867088Y-17663660D02*
X28696908Y-17833840D01*
X28744158Y-11948660D02*
X28914338Y-12118840D01*
X28914338Y-11948660D02*
X28744158Y-12118840D01*
X29173158Y-15758660D02*
X29343338Y-15928840D01*
X29343338Y-15758660D02*
X29173158Y-15928840D01*
X29220408Y-13853660D02*
X29390588Y-14023840D01*
X29390588Y-13853660D02*
X29220408Y-14023840D01*
X29633158Y-11948660D02*
X29803338Y-12118840D01*
X29803338Y-11948660D02*
X29633158Y-12118840D01*
X29706658Y-7662410D02*
X29876838Y-7832590D01*
X29876838Y-7662410D02*
X29706658Y-7832590D01*
X29706658Y-10043660D02*
X29876838Y-10213840D01*
X29876838Y-10043660D02*
X29706658Y-10213840D01*
X29712908Y-17663660D02*
X29883088Y-17833840D01*
X29883088Y-17663660D02*
X29712908Y-17833840D01*
X30109408Y-13853660D02*
X30279588Y-14023840D01*
X30279588Y-13853660D02*
X30109408Y-14023840D01*
X30189158Y-15758660D02*
X30359338Y-15928840D01*
X30359338Y-15758660D02*
X30189158Y-15928840D01*
X30595658Y-7662410D02*
X30765838Y-7832590D01*
X30765838Y-7662410D02*
X30595658Y-7832590D01*
X30595658Y-10043660D02*
X30765838Y-10213840D01*
X30765838Y-10043660D02*
X30595658Y-10213840D01*
X30601908Y-17663660D02*
X30772088Y-17833840D01*
X30772088Y-17663660D02*
X30601908Y-17833840D01*
X30649158Y-11948660D02*
X30819338Y-12118840D01*
X30819338Y-11948660D02*
X30649158Y-12118840D01*
X31125408Y-13853660D02*
X31295588Y-14023840D01*
X31295588Y-13853660D02*
X31125408Y-14023840D01*
X31538158Y-11948660D02*
X31708338Y-12118840D01*
X31708338Y-11948660D02*
X31538158Y-12118840D01*
X31611658Y-7662410D02*
X31781838Y-7832590D01*
X31781838Y-7662410D02*
X31611658Y-7832590D01*
X31611658Y-10043660D02*
X31781838Y-10213840D01*
X31781838Y-10043660D02*
X31611658Y-10213840D01*
X31617908Y-17663660D02*
X31788088Y-17833840D01*
X31788088Y-17663660D02*
X31617908Y-17833840D01*
X31805033Y-15758660D02*
X31975213Y-15928840D01*
X31975213Y-15758660D02*
X31805033Y-15928840D01*
X32554158Y-11948660D02*
X32724338Y-12118840D01*
X32724338Y-11948660D02*
X32554158Y-12118840D01*
X32821033Y-15758660D02*
X32991213Y-15928840D01*
X32991213Y-15758660D02*
X32821033Y-15928840D01*
X32983158Y-18139910D02*
X33153338Y-18310090D01*
X33153338Y-18139910D02*
X32983158Y-18310090D01*
X33205033Y-13853660D02*
X33375213Y-14023840D01*
X33375213Y-13853660D02*
X33205033Y-14023840D01*
X33453158Y-10043660D02*
X33623339Y-10213840D01*
X33623339Y-10043660D02*
X33453158Y-10213840D01*
X33919409Y-11948660D02*
X34089589Y-12118840D01*
X34089589Y-11948660D02*
X33919409Y-12118840D01*
X33999159Y-18139910D02*
X34169339Y-18310090D01*
X34169339Y-18139910D02*
X33999159Y-18310090D01*
X34221034Y-13853660D02*
X34391214Y-14023840D01*
X34391214Y-13853660D02*
X34221034Y-14023840D01*
X34469159Y-10043660D02*
X34639339Y-10213840D01*
X34639339Y-10043660D02*
X34469159Y-10213840D01*
X34888159Y-16234910D02*
X35058339Y-16405090D01*
X35058339Y-16234910D02*
X34888159Y-16405090D01*
X34888159Y-18139910D02*
X35058339Y-18310090D01*
X35058339Y-18139910D02*
X34888159Y-18310090D01*
X34935409Y-11948660D02*
X35105589Y-12118840D01*
X35105589Y-11948660D02*
X34935409Y-12118840D01*
X35904159Y-16234910D02*
X36074339Y-16405090D01*
X36074339Y-16234910D02*
X35904159Y-16405090D01*
X35904159Y-18139910D02*
X36074339Y-18310090D01*
X36074339Y-18139910D02*
X35904159Y-18310090D01*
X36793159Y-18139910D02*
X36963339Y-18310090D01*
X36963339Y-18139910D02*
X36793159Y-18310090D01*
X37809159Y-18139910D02*
X37979339Y-18310090D01*
X37979339Y-18139910D02*
X37809159Y-18310090D01*
D13*
X8097748Y-7493500D02*
G75*
G03*
X8097748Y-7493500I-150000J0D01*
G01*
X8097748Y-9874750D02*
G75*
G03*
X8097748Y-9874750I-150000J0D01*
G01*
X8344623Y-17494750D02*
G75*
G03*
X8344623Y-17494750I-150000J0D01*
G01*
X8563999Y-11779750D02*
G75*
G03*
X8563999Y-11779750I-150000J0D01*
G01*
X8732749Y-7239500D02*
G75*
G03*
X8732749Y-7239500I-150000J0D01*
G01*
X8732749Y-9620750D02*
G75*
G03*
X8732749Y-9620750I-150000J0D01*
G01*
X8802124Y-13684750D02*
G75*
G03*
X8802124Y-13684750I-150000J0D01*
G01*
X8979624Y-17240750D02*
G75*
G03*
X8979624Y-17240750I-150000J0D01*
G01*
X9198999Y-11525750D02*
G75*
G03*
X9198999Y-11525750I-150000J0D01*
G01*
X9297124Y-15589750D02*
G75*
G03*
X9297124Y-15589750I-150000J0D01*
G01*
X9437124Y-13430750D02*
G75*
G03*
X9437124Y-13430750I-150000J0D01*
G01*
X9932124Y-15335750D02*
G75*
G03*
X9932124Y-15335750I-150000J0D01*
G01*
X10002749Y-7493500D02*
G75*
G03*
X10002749Y-7493500I-150000J0D01*
G01*
X10002749Y-9874750D02*
G75*
G03*
X10002749Y-9874750I-150000J0D01*
G01*
X10637749Y-7239500D02*
G75*
G03*
X10637749Y-7239500I-150000J0D01*
G01*
X10637749Y-9620750D02*
G75*
G03*
X10637749Y-9620750I-150000J0D01*
G01*
X10725874Y-17494750D02*
G75*
G03*
X10725874Y-17494750I-150000J0D01*
G01*
X10945249Y-11779750D02*
G75*
G03*
X10945249Y-11779750I-150000J0D01*
G01*
X11360873Y-17240750D02*
G75*
G03*
X11360873Y-17240750I-150000J0D01*
G01*
X11421498Y-13684750D02*
G75*
G03*
X11421498Y-13684750I-150000J0D01*
G01*
X11580248Y-11525750D02*
G75*
G03*
X11580248Y-11525750I-150000J0D01*
G01*
X11907748Y-7493500D02*
G75*
G03*
X11907748Y-7493500I-150000J0D01*
G01*
X11907748Y-9874750D02*
G75*
G03*
X11907748Y-9874750I-150000J0D01*
G01*
X12056498Y-13430750D02*
G75*
G03*
X12056498Y-13430750I-150000J0D01*
G01*
X12392748Y-15589750D02*
G75*
G03*
X12392748Y-15589750I-150000J0D01*
G01*
X12542748Y-7239500D02*
G75*
G03*
X12542748Y-7239500I-150000J0D01*
G01*
X12542748Y-9620750D02*
G75*
G03*
X12542748Y-9620750I-150000J0D01*
G01*
X12850248Y-11779750D02*
G75*
G03*
X12850248Y-11779750I-150000J0D01*
G01*
X13027748Y-15335750D02*
G75*
G03*
X13027748Y-15335750I-150000J0D01*
G01*
X13107123Y-17494750D02*
G75*
G03*
X13107123Y-17494750I-150000J0D01*
G01*
X13326498Y-13684750D02*
G75*
G03*
X13326498Y-13684750I-150000J0D01*
G01*
X13485248Y-11525750D02*
G75*
G03*
X13485248Y-11525750I-150000J0D01*
G01*
X13742123Y-17240750D02*
G75*
G03*
X13742123Y-17240750I-150000J0D01*
G01*
X13812748Y-7493500D02*
G75*
G03*
X13812748Y-7493500I-150000J0D01*
G01*
X13812748Y-9874750D02*
G75*
G03*
X13812748Y-9874750I-150000J0D01*
G01*
X13961498Y-13430750D02*
G75*
G03*
X13961498Y-13430750I-150000J0D01*
G01*
X14295248Y-15589750D02*
G75*
G03*
X14295248Y-15589750I-150000J0D01*
G01*
X14447748Y-7239500D02*
G75*
G03*
X14447748Y-7239500I-150000J0D01*
G01*
X14447748Y-9620750D02*
G75*
G03*
X14447748Y-9620750I-150000J0D01*
G01*
X14755248Y-11779750D02*
G75*
G03*
X14755248Y-11779750I-150000J0D01*
G01*
X14930248Y-15335750D02*
G75*
G03*
X14930248Y-15335750I-150000J0D01*
G01*
X15231498Y-13684750D02*
G75*
G03*
X15231498Y-13684750I-150000J0D01*
G01*
X15390248Y-11525750D02*
G75*
G03*
X15390248Y-11525750I-150000J0D01*
G01*
X15717748Y-7493500D02*
G75*
G03*
X15717748Y-7493500I-150000J0D01*
G01*
X15717748Y-9874750D02*
G75*
G03*
X15717748Y-9874750I-150000J0D01*
G01*
X15866498Y-13430750D02*
G75*
G03*
X15866498Y-13430750I-150000J0D01*
G01*
X16200248Y-15589750D02*
G75*
G03*
X16200248Y-15589750I-150000J0D01*
G01*
X16352748Y-7239500D02*
G75*
G03*
X16352748Y-7239500I-150000J0D01*
G01*
X16352748Y-9620750D02*
G75*
G03*
X16352748Y-9620750I-150000J0D01*
G01*
X16660248Y-11779750D02*
G75*
G03*
X16660248Y-11779750I-150000J0D01*
G01*
X16835249Y-15335750D02*
G75*
G03*
X16835249Y-15335750I-150000J0D01*
G01*
X17136499Y-13684750D02*
G75*
G03*
X17136499Y-13684750I-150000J0D01*
G01*
X17295249Y-11525750D02*
G75*
G03*
X17295249Y-11525750I-150000J0D01*
G01*
X17622749Y-7493500D02*
G75*
G03*
X17622749Y-7493500I-150000J0D01*
G01*
X17622749Y-9874750D02*
G75*
G03*
X17622749Y-9874750I-150000J0D01*
G01*
X17771499Y-13430750D02*
G75*
G03*
X17771499Y-13430750I-150000J0D01*
G01*
X18105249Y-15589750D02*
G75*
G03*
X18105249Y-15589750I-150000J0D01*
G01*
X18257749Y-7239500D02*
G75*
G03*
X18257749Y-7239500I-150000J0D01*
G01*
X18257749Y-9620750D02*
G75*
G03*
X18257749Y-9620750I-150000J0D01*
G01*
X18565249Y-11779750D02*
G75*
G03*
X18565249Y-11779750I-150000J0D01*
G01*
X18740249Y-15335750D02*
G75*
G03*
X18740249Y-15335750I-150000J0D01*
G01*
X19041499Y-13684750D02*
G75*
G03*
X19041499Y-13684750I-150000J0D01*
G01*
X19200249Y-11525750D02*
G75*
G03*
X19200249Y-11525750I-150000J0D01*
G01*
X19527749Y-7493500D02*
G75*
G03*
X19527749Y-7493500I-150000J0D01*
G01*
X19527749Y-9874750D02*
G75*
G03*
X19527749Y-9874750I-150000J0D01*
G01*
X19676499Y-13430750D02*
G75*
G03*
X19676499Y-13430750I-150000J0D01*
G01*
X20010249Y-15589750D02*
G75*
G03*
X20010249Y-15589750I-150000J0D01*
G01*
X20162749Y-7239500D02*
G75*
G03*
X20162749Y-7239500I-150000J0D01*
G01*
X20162749Y-9620750D02*
G75*
G03*
X20162749Y-9620750I-150000J0D01*
G01*
X20248374Y-17494750D02*
G75*
G03*
X20248374Y-17494750I-150000J0D01*
G01*
X20470249Y-11779750D02*
G75*
G03*
X20470249Y-11779750I-150000J0D01*
G01*
X20645249Y-15335750D02*
G75*
G03*
X20645249Y-15335750I-150000J0D01*
G01*
X20883374Y-17240750D02*
G75*
G03*
X20883374Y-17240750I-150000J0D01*
G01*
X20946499Y-13684750D02*
G75*
G03*
X20946499Y-13684750I-150000J0D01*
G01*
X21105249Y-11525750D02*
G75*
G03*
X21105249Y-11525750I-150000J0D01*
G01*
X21432749Y-7493500D02*
G75*
G03*
X21432749Y-7493500I-150000J0D01*
G01*
X21432749Y-9874750D02*
G75*
G03*
X21432749Y-9874750I-150000J0D01*
G01*
X21581499Y-13430750D02*
G75*
G03*
X21581499Y-13430750I-150000J0D01*
G01*
X21915249Y-15589750D02*
G75*
G03*
X21915249Y-15589750I-150000J0D01*
G01*
X22067749Y-7239500D02*
G75*
G03*
X22067749Y-7239500I-150000J0D01*
G01*
X22067749Y-9620750D02*
G75*
G03*
X22067749Y-9620750I-150000J0D01*
G01*
X22375248Y-11779750D02*
G75*
G03*
X22375248Y-11779750I-150000J0D01*
G01*
X22550248Y-15335750D02*
G75*
G03*
X22550248Y-15335750I-150000J0D01*
G01*
X22851498Y-13684750D02*
G75*
G03*
X22851498Y-13684750I-150000J0D01*
G01*
X23010248Y-11525750D02*
G75*
G03*
X23010248Y-11525750I-150000J0D01*
G01*
X23337748Y-7493500D02*
G75*
G03*
X23337748Y-7493500I-150000J0D01*
G01*
X23337748Y-9874750D02*
G75*
G03*
X23337748Y-9874750I-150000J0D01*
G01*
X23486498Y-13430750D02*
G75*
G03*
X23486498Y-13430750I-150000J0D01*
G01*
X23820248Y-15589750D02*
G75*
G03*
X23820248Y-15589750I-150000J0D01*
G01*
X23972748Y-7239500D02*
G75*
G03*
X23972748Y-7239500I-150000J0D01*
G01*
X23972748Y-9620750D02*
G75*
G03*
X23972748Y-9620750I-150000J0D01*
G01*
X24280248Y-11779750D02*
G75*
G03*
X24280248Y-11779750I-150000J0D01*
G01*
X24455248Y-15335750D02*
G75*
G03*
X24455248Y-15335750I-150000J0D01*
G01*
X24756498Y-13684750D02*
G75*
G03*
X24756498Y-13684750I-150000J0D01*
G01*
X24915248Y-11525750D02*
G75*
G03*
X24915248Y-11525750I-150000J0D01*
G01*
X25242748Y-7493500D02*
G75*
G03*
X25242748Y-7493500I-150000J0D01*
G01*
X25242748Y-9874750D02*
G75*
G03*
X25242748Y-9874750I-150000J0D01*
G01*
X25391498Y-13430750D02*
G75*
G03*
X25391498Y-13430750I-150000J0D01*
G01*
X25725248Y-15589750D02*
G75*
G03*
X25725248Y-15589750I-150000J0D01*
G01*
X25877748Y-7239500D02*
G75*
G03*
X25877748Y-7239500I-150000J0D01*
G01*
X25877748Y-9620750D02*
G75*
G03*
X25877748Y-9620750I-150000J0D01*
G01*
X26185248Y-11779750D02*
G75*
G03*
X26185248Y-11779750I-150000J0D01*
G01*
X26360248Y-15335750D02*
G75*
G03*
X26360248Y-15335750I-150000J0D01*
G01*
X26661498Y-13684750D02*
G75*
G03*
X26661498Y-13684750I-150000J0D01*
G01*
X26820248Y-11525750D02*
G75*
G03*
X26820248Y-11525750I-150000J0D01*
G01*
X27147748Y-7493500D02*
G75*
G03*
X27147748Y-7493500I-150000J0D01*
G01*
X27147748Y-9874750D02*
G75*
G03*
X27147748Y-9874750I-150000J0D01*
G01*
X27153998Y-17494750D02*
G75*
G03*
X27153998Y-17494750I-150000J0D01*
G01*
X27296498Y-13430750D02*
G75*
G03*
X27296498Y-13430750I-150000J0D01*
G01*
X27630248Y-15589750D02*
G75*
G03*
X27630248Y-15589750I-150000J0D01*
G01*
X27782748Y-7239500D02*
G75*
G03*
X27782748Y-7239500I-150000J0D01*
G01*
X27782748Y-9620750D02*
G75*
G03*
X27782748Y-9620750I-150000J0D01*
G01*
X27788998Y-17240750D02*
G75*
G03*
X27788998Y-17240750I-150000J0D01*
G01*
X28090248Y-11779750D02*
G75*
G03*
X28090248Y-11779750I-150000J0D01*
G01*
X28265248Y-15335750D02*
G75*
G03*
X28265248Y-15335750I-150000J0D01*
G01*
X28566498Y-13684750D02*
G75*
G03*
X28566498Y-13684750I-150000J0D01*
G01*
X28725248Y-11525750D02*
G75*
G03*
X28725248Y-11525750I-150000J0D01*
G01*
X29052748Y-7493500D02*
G75*
G03*
X29052748Y-7493500I-150000J0D01*
G01*
X29052748Y-9874750D02*
G75*
G03*
X29052748Y-9874750I-150000J0D01*
G01*
X29058998Y-17494750D02*
G75*
G03*
X29058998Y-17494750I-150000J0D01*
G01*
X29201498Y-13430750D02*
G75*
G03*
X29201498Y-13430750I-150000J0D01*
G01*
X29535248Y-15589750D02*
G75*
G03*
X29535248Y-15589750I-150000J0D01*
G01*
X29687748Y-7239500D02*
G75*
G03*
X29687748Y-7239500I-150000J0D01*
G01*
X29687748Y-9620750D02*
G75*
G03*
X29687748Y-9620750I-150000J0D01*
G01*
X29693998Y-17240750D02*
G75*
G03*
X29693998Y-17240750I-150000J0D01*
G01*
X29995248Y-11779750D02*
G75*
G03*
X29995248Y-11779750I-150000J0D01*
G01*
X30170248Y-15335750D02*
G75*
G03*
X30170248Y-15335750I-150000J0D01*
G01*
X30471498Y-13684750D02*
G75*
G03*
X30471498Y-13684750I-150000J0D01*
G01*
X30630248Y-11525750D02*
G75*
G03*
X30630248Y-11525750I-150000J0D01*
G01*
X30957748Y-7493500D02*
G75*
G03*
X30957748Y-7493500I-150000J0D01*
G01*
X30957748Y-9874750D02*
G75*
G03*
X30957748Y-9874750I-150000J0D01*
G01*
X30963998Y-17494750D02*
G75*
G03*
X30963998Y-17494750I-150000J0D01*
G01*
X31106498Y-13430750D02*
G75*
G03*
X31106498Y-13430750I-150000J0D01*
G01*
X31592748Y-7239500D02*
G75*
G03*
X31592748Y-7239500I-150000J0D01*
G01*
X31592748Y-9620750D02*
G75*
G03*
X31592748Y-9620750I-150000J0D01*
G01*
X31598998Y-17240750D02*
G75*
G03*
X31598998Y-17240750I-150000J0D01*
G01*
X31900248Y-11779750D02*
G75*
G03*
X31900248Y-11779750I-150000J0D01*
G01*
X32167123Y-15589750D02*
G75*
G03*
X32167123Y-15589750I-150000J0D01*
G01*
X32535248Y-11525750D02*
G75*
G03*
X32535248Y-11525750I-150000J0D01*
G01*
X32802123Y-15335750D02*
G75*
G03*
X32802123Y-15335750I-150000J0D01*
G01*
X33345248Y-17971000D02*
G75*
G03*
X33345248Y-17971000I-150000J0D01*
G01*
X33567124Y-13684750D02*
G75*
G03*
X33567124Y-13684750I-150000J0D01*
G01*
X33815249Y-9874750D02*
G75*
G03*
X33815249Y-9874750I-150000J0D01*
G01*
X33980249Y-17717000D02*
G75*
G03*
X33980249Y-17717000I-150000J0D01*
G01*
X34202124Y-13430750D02*
G75*
G03*
X34202124Y-13430750I-150000J0D01*
G01*
X34281499Y-11779750D02*
G75*
G03*
X34281499Y-11779750I-150000J0D01*
G01*
X34450249Y-9620750D02*
G75*
G03*
X34450249Y-9620750I-150000J0D01*
G01*
X34916499Y-11525750D02*
G75*
G03*
X34916499Y-11525750I-150000J0D01*
G01*
X35250249Y-16066000D02*
G75*
G03*
X35250249Y-16066000I-150000J0D01*
G01*
X35250249Y-17971000D02*
G75*
G03*
X35250249Y-17971000I-150000J0D01*
G01*
X35885249Y-15812000D02*
G75*
G03*
X35885249Y-15812000I-150000J0D01*
G01*
X35885249Y-17717000D02*
G75*
G03*
X35885249Y-17717000I-150000J0D01*
G01*
X37155249Y-17971000D02*
G75*
G03*
X37155249Y-17971000I-150000J0D01*
G01*
X37790249Y-17717000D02*
G75*
G03*
X37790249Y-17717000I-150000J0D01*
G01*
D14*
X8338123Y-14992850D02*
X8338123Y-15297650D01*
X8185723Y-15145250D02*
X8490524Y-15145250D01*
X10718124Y-14992850D02*
X10718124Y-15297650D01*
X10565724Y-15145250D02*
X10870524Y-15145250D01*
X15478748Y-18293600D02*
X15478748Y-18598400D01*
X15326348Y-18446000D02*
X15631148Y-18446000D01*
X25478748Y-18293600D02*
X25478748Y-18598400D01*
X25326348Y-18446000D02*
X25631148Y-18446000D01*
X32608123Y-13087850D02*
X32608123Y-13392650D01*
X32455723Y-13240250D02*
X32760523Y-13240250D01*
X32856248Y-9277850D02*
X32856248Y-9582650D01*
X32703848Y-9430250D02*
X33008648Y-9430250D01*
X34988124Y-13087850D02*
X34988124Y-13392650D01*
X34835724Y-13240250D02*
X35140524Y-13240250D01*
X35236249Y-9277850D02*
X35236249Y-9582650D01*
X35083849Y-9430250D02*
X35388649Y-9430250D01*
D15*
X7013138Y-6413138D02*
X7013138Y-6186862D01*
X6786862Y-6186862D01*
X6786862Y-6413138D01*
X7013138Y-6413138D01*
X7013138Y-19813138D02*
X7013138Y-19586862D01*
X6786862Y-19586862D01*
X6786862Y-19813138D01*
X7013138Y-19813138D01*
X22613138Y-19813138D02*
X22613138Y-19586862D01*
X22386862Y-19586862D01*
X22386862Y-19813138D01*
X22613138Y-19813138D01*
X22613138Y-6413138D02*
X22613138Y-6186862D01*
X22386862Y-6186862D01*
X22386862Y-6413138D01*
X22613138Y-6413138D01*
X23813138Y-19813138D02*
X23813138Y-19586862D01*
X23586862Y-19586862D01*
X23586862Y-19813138D01*
X23813138Y-19813138D01*
X23813138Y-6413138D02*
X23813138Y-6186862D01*
X23586862Y-6186862D01*
X23586862Y-6413138D01*
X23813138Y-6413138D01*
X39413138Y-6413138D02*
X39413138Y-6186862D01*
X39186862Y-6186862D01*
X39186862Y-6413138D01*
X39413138Y-6413138D01*
X39413138Y-19813138D02*
X39413138Y-19586862D01*
X39186862Y-19586862D01*
X39186862Y-19813138D01*
X39413138Y-19813138D01*
D16*
X8328748Y-7946890D02*
X8528139Y-7747500D01*
X8328748Y-7548110D01*
X8129358Y-7747500D01*
X8328748Y-7946890D01*
X8328748Y-10328140D02*
X8528139Y-10128750D01*
X8328748Y-9929360D01*
X8129358Y-10128750D01*
X8328748Y-10328140D01*
X8338123Y-16868640D02*
X8537514Y-16669250D01*
X8338123Y-16469860D01*
X8138733Y-16669250D01*
X8338123Y-16868640D01*
X8575624Y-17948140D02*
X8775014Y-17748750D01*
X8575624Y-17549360D01*
X8376233Y-17748750D01*
X8575624Y-17948140D01*
X8794999Y-12233140D02*
X8994389Y-12033750D01*
X8794999Y-11834360D01*
X8595609Y-12033750D01*
X8794999Y-12233140D01*
X9033124Y-14138140D02*
X9232514Y-13938750D01*
X9033124Y-13739360D01*
X8833734Y-13938750D01*
X9033124Y-14138140D01*
X9528124Y-16043140D02*
X9727514Y-15843750D01*
X9528124Y-15644360D01*
X9328734Y-15843750D01*
X9528124Y-16043140D01*
X10233749Y-7946890D02*
X10433139Y-7747500D01*
X10233749Y-7548110D01*
X10034359Y-7747500D01*
X10233749Y-7946890D01*
X10233749Y-10328140D02*
X10433139Y-10128750D01*
X10233749Y-9929360D01*
X10034359Y-10128750D01*
X10233749Y-10328140D01*
X10718124Y-16868640D02*
X10917514Y-16669250D01*
X10718124Y-16469860D01*
X10518734Y-16669250D01*
X10718124Y-16868640D01*
X10956874Y-17948140D02*
X11156264Y-17748750D01*
X10956874Y-17549360D01*
X10757484Y-17748750D01*
X10956874Y-17948140D01*
X11176249Y-12233140D02*
X11375638Y-12033750D01*
X11176249Y-11834360D01*
X10976859Y-12033750D01*
X11176249Y-12233140D01*
X11652498Y-14138140D02*
X11851888Y-13938750D01*
X11652498Y-13739360D01*
X11453108Y-13938750D01*
X11652498Y-14138140D01*
X12138748Y-7946890D02*
X12338138Y-7747500D01*
X12138748Y-7548110D01*
X11939358Y-7747500D01*
X12138748Y-7946890D01*
X12138748Y-10328140D02*
X12338138Y-10128750D01*
X12138748Y-9929360D01*
X11939358Y-10128750D01*
X12138748Y-10328140D01*
X12623748Y-16043140D02*
X12823138Y-15843750D01*
X12623748Y-15644360D01*
X12424358Y-15843750D01*
X12623748Y-16043140D01*
X13081248Y-12233140D02*
X13280638Y-12033750D01*
X13081248Y-11834360D01*
X12881858Y-12033750D01*
X13081248Y-12233140D01*
X13338123Y-17948140D02*
X13537513Y-17748750D01*
X13338123Y-17549360D01*
X13138733Y-17748750D01*
X13338123Y-17948140D01*
X13557498Y-14138140D02*
X13756888Y-13938750D01*
X13557498Y-13739360D01*
X13358108Y-13938750D01*
X13557498Y-14138140D01*
X14043748Y-7946890D02*
X14243138Y-7747500D01*
X14043748Y-7548110D01*
X13844358Y-7747500D01*
X14043748Y-7946890D01*
X14043748Y-10328140D02*
X14243138Y-10128750D01*
X14043748Y-9929360D01*
X13844358Y-10128750D01*
X14043748Y-10328140D01*
X14526248Y-16043140D02*
X14725638Y-15843750D01*
X14526248Y-15644360D01*
X14326858Y-15843750D01*
X14526248Y-16043140D01*
X14986248Y-12233140D02*
X15185638Y-12033750D01*
X14986248Y-11834360D01*
X14786858Y-12033750D01*
X14986248Y-12233140D01*
X15462498Y-14138140D02*
X15661888Y-13938750D01*
X15462498Y-13739360D01*
X15263108Y-13938750D01*
X15462498Y-14138140D01*
X15478748Y-17124390D02*
X15678138Y-16925000D01*
X15478748Y-16725610D01*
X15279358Y-16925000D01*
X15478748Y-17124390D01*
X15948748Y-7946890D02*
X16148138Y-7747500D01*
X15948748Y-7548110D01*
X15749358Y-7747500D01*
X15948748Y-7946890D01*
X15948748Y-10328140D02*
X16148138Y-10128750D01*
X15948748Y-9929360D01*
X15749358Y-10128750D01*
X15948748Y-10328140D01*
X16431248Y-16043140D02*
X16630638Y-15843750D01*
X16431248Y-15644360D01*
X16231858Y-15843750D01*
X16431248Y-16043140D01*
X16891249Y-12233140D02*
X17090639Y-12033750D01*
X16891249Y-11834360D01*
X16691858Y-12033750D01*
X16891249Y-12233140D01*
X17367499Y-14138140D02*
X17566889Y-13938750D01*
X17367499Y-13739360D01*
X17168109Y-13938750D01*
X17367499Y-14138140D01*
X17853749Y-7946890D02*
X18053139Y-7747500D01*
X17853749Y-7548110D01*
X17654359Y-7747500D01*
X17853749Y-7946890D01*
X17853749Y-10328140D02*
X18053139Y-10128750D01*
X17853749Y-9929360D01*
X17654359Y-10128750D01*
X17853749Y-10328140D01*
X18336249Y-16043140D02*
X18535639Y-15843750D01*
X18336249Y-15644360D01*
X18136859Y-15843750D01*
X18336249Y-16043140D01*
X18796249Y-12233140D02*
X18995639Y-12033750D01*
X18796249Y-11834360D01*
X18596859Y-12033750D01*
X18796249Y-12233140D01*
X19272499Y-14138140D02*
X19471889Y-13938750D01*
X19272499Y-13739360D01*
X19073109Y-13938750D01*
X19272499Y-14138140D01*
X19758749Y-7946890D02*
X19958139Y-7747500D01*
X19758749Y-7548110D01*
X19559359Y-7747500D01*
X19758749Y-7946890D01*
X19758749Y-10328140D02*
X19958139Y-10128750D01*
X19758749Y-9929360D01*
X19559359Y-10128750D01*
X19758749Y-10328140D01*
X20241249Y-16043140D02*
X20440639Y-15843750D01*
X20241249Y-15644360D01*
X20041859Y-15843750D01*
X20241249Y-16043140D01*
X20479374Y-17948140D02*
X20678764Y-17748750D01*
X20479374Y-17549360D01*
X20279984Y-17748750D01*
X20479374Y-17948140D01*
X20701249Y-12233140D02*
X20900639Y-12033750D01*
X20701249Y-11834360D01*
X20501859Y-12033750D01*
X20701249Y-12233140D01*
X21177499Y-14138140D02*
X21376889Y-13938750D01*
X21177499Y-13739360D01*
X20978109Y-13938750D01*
X21177499Y-14138140D01*
X21663749Y-7946890D02*
X21863139Y-7747500D01*
X21663749Y-7548110D01*
X21464359Y-7747500D01*
X21663749Y-7946890D01*
X21663749Y-10328140D02*
X21863139Y-10128750D01*
X21663749Y-9929360D01*
X21464359Y-10128750D01*
X21663749Y-10328140D01*
X22146249Y-16043140D02*
X22345639Y-15843750D01*
X22146249Y-15644360D01*
X21946859Y-15843750D01*
X22146249Y-16043140D01*
X22606248Y-12233140D02*
X22805638Y-12033750D01*
X22606248Y-11834360D01*
X22406858Y-12033750D01*
X22606248Y-12233140D01*
X23082498Y-14138140D02*
X23281888Y-13938750D01*
X23082498Y-13739360D01*
X22883108Y-13938750D01*
X23082498Y-14138140D01*
X23568748Y-7946890D02*
X23768138Y-7747500D01*
X23568748Y-7548110D01*
X23369358Y-7747500D01*
X23568748Y-7946890D01*
X23568748Y-10328140D02*
X23768138Y-10128750D01*
X23568748Y-9929360D01*
X23369358Y-10128750D01*
X23568748Y-10328140D01*
X24051248Y-16043140D02*
X24250638Y-15843750D01*
X24051248Y-15644360D01*
X23851858Y-15843750D01*
X24051248Y-16043140D01*
X24511248Y-12233140D02*
X24710638Y-12033750D01*
X24511248Y-11834360D01*
X24311858Y-12033750D01*
X24511248Y-12233140D01*
X24987498Y-14138140D02*
X25186888Y-13938750D01*
X24987498Y-13739360D01*
X24788108Y-13938750D01*
X24987498Y-14138140D01*
X25473748Y-7946890D02*
X25673138Y-7747500D01*
X25473748Y-7548110D01*
X25274358Y-7747500D01*
X25473748Y-7946890D01*
X25473748Y-10328140D02*
X25673138Y-10128750D01*
X25473748Y-9929360D01*
X25274358Y-10128750D01*
X25473748Y-10328140D01*
X25478748Y-17124390D02*
X25678138Y-16925000D01*
X25478748Y-16725610D01*
X25279358Y-16925000D01*
X25478748Y-17124390D01*
X25956248Y-16043140D02*
X26155638Y-15843750D01*
X25956248Y-15644360D01*
X25756858Y-15843750D01*
X25956248Y-16043140D01*
X26416248Y-12233140D02*
X26615638Y-12033750D01*
X26416248Y-11834360D01*
X26216858Y-12033750D01*
X26416248Y-12233140D01*
X26892498Y-14138140D02*
X27091888Y-13938750D01*
X26892498Y-13739360D01*
X26693108Y-13938750D01*
X26892498Y-14138140D01*
X27378748Y-7946890D02*
X27578138Y-7747500D01*
X27378748Y-7548110D01*
X27179358Y-7747500D01*
X27378748Y-7946890D01*
X27378748Y-10328140D02*
X27578138Y-10128750D01*
X27378748Y-9929360D01*
X27179358Y-10128750D01*
X27378748Y-10328140D01*
X27384998Y-17948140D02*
X27584388Y-17748750D01*
X27384998Y-17549360D01*
X27185608Y-17748750D01*
X27384998Y-17948140D01*
X27861248Y-16043140D02*
X28060638Y-15843750D01*
X27861248Y-15644360D01*
X27661858Y-15843750D01*
X27861248Y-16043140D01*
X28321248Y-12233140D02*
X28520638Y-12033750D01*
X28321248Y-11834360D01*
X28121858Y-12033750D01*
X28321248Y-12233140D01*
X28797498Y-14138140D02*
X28996888Y-13938750D01*
X28797498Y-13739360D01*
X28598108Y-13938750D01*
X28797498Y-14138140D01*
X29283748Y-7946890D02*
X29483138Y-7747500D01*
X29283748Y-7548110D01*
X29084358Y-7747500D01*
X29283748Y-7946890D01*
X29283748Y-10328140D02*
X29483138Y-10128750D01*
X29283748Y-9929360D01*
X29084358Y-10128750D01*
X29283748Y-10328140D01*
X29289998Y-17948140D02*
X29489388Y-17748750D01*
X29289998Y-17549360D01*
X29090608Y-17748750D01*
X29289998Y-17948140D01*
X29766248Y-16043140D02*
X29965638Y-15843750D01*
X29766248Y-15644360D01*
X29566858Y-15843750D01*
X29766248Y-16043140D01*
X30226248Y-12233140D02*
X30425638Y-12033750D01*
X30226248Y-11834360D01*
X30026858Y-12033750D01*
X30226248Y-12233140D01*
X30702498Y-14138140D02*
X30901888Y-13938750D01*
X30702498Y-13739360D01*
X30503108Y-13938750D01*
X30702498Y-14138140D01*
X31188748Y-7946890D02*
X31388138Y-7747500D01*
X31188748Y-7548110D01*
X30989358Y-7747500D01*
X31188748Y-7946890D01*
X31188748Y-10328140D02*
X31388138Y-10128750D01*
X31188748Y-9929360D01*
X30989358Y-10128750D01*
X31188748Y-10328140D01*
X31194998Y-17948140D02*
X31394388Y-17748750D01*
X31194998Y-17549360D01*
X30995608Y-17748750D01*
X31194998Y-17948140D01*
X32131248Y-12233140D02*
X32330638Y-12033750D01*
X32131248Y-11834360D01*
X31931858Y-12033750D01*
X32131248Y-12233140D01*
X32398123Y-16043140D02*
X32597513Y-15843750D01*
X32398123Y-15644360D01*
X32198733Y-15843750D01*
X32398123Y-16043140D01*
X32608123Y-14963640D02*
X32807513Y-14764250D01*
X32608123Y-14564860D01*
X32408733Y-14764250D01*
X32608123Y-14963640D01*
X32856248Y-11153640D02*
X33055638Y-10954250D01*
X32856248Y-10754860D01*
X32656858Y-10954250D01*
X32856248Y-11153640D01*
X33576249Y-18424390D02*
X33775639Y-18225000D01*
X33576249Y-18025610D01*
X33376858Y-18225000D01*
X33576249Y-18424390D01*
X33798124Y-14138140D02*
X33997514Y-13938750D01*
X33798124Y-13739360D01*
X33598734Y-13938750D01*
X33798124Y-14138140D01*
X34046249Y-10328140D02*
X34245639Y-10128750D01*
X34046249Y-9929360D01*
X33846859Y-10128750D01*
X34046249Y-10328140D01*
X34512499Y-12233140D02*
X34711889Y-12033750D01*
X34512499Y-11834360D01*
X34313109Y-12033750D01*
X34512499Y-12233140D01*
X34988124Y-14963640D02*
X35187514Y-14764250D01*
X34988124Y-14564860D01*
X34788734Y-14764250D01*
X34988124Y-14963640D01*
X35236249Y-11153640D02*
X35435639Y-10954250D01*
X35236249Y-10754860D01*
X35036859Y-10954250D01*
X35236249Y-11153640D01*
X35481249Y-16519390D02*
X35680639Y-16320000D01*
X35481249Y-16120610D01*
X35281859Y-16320000D01*
X35481249Y-16519390D01*
X35481249Y-18424390D02*
X35680639Y-18225000D01*
X35481249Y-18025610D01*
X35281859Y-18225000D01*
X35481249Y-18424390D01*
X37386249Y-18424390D02*
X37585639Y-18225000D01*
X37386249Y-18025610D01*
X37186859Y-18225000D01*
X37386249Y-18424390D01*
D10*
X6847619Y-20320476D02*
X6847619Y-20120476D01*
X6895238Y-20120476D01*
X6923809Y-20130000D01*
X6942857Y-20149048D01*
X6952381Y-20168095D01*
X6961905Y-20206190D01*
X6961905Y-20234762D01*
X6952381Y-20272857D01*
X6942857Y-20291905D01*
X6923809Y-20310952D01*
X6895238Y-20320476D01*
X6847619Y-20320476D01*
X7047619Y-20320476D02*
X7047619Y-20187143D01*
X7047619Y-20225238D02*
X7057143Y-20206190D01*
X7066667Y-20196667D01*
X7085714Y-20187143D01*
X7104762Y-20187143D01*
X7171428Y-20320476D02*
X7171428Y-20187143D01*
X7171428Y-20120476D02*
X7161905Y-20130000D01*
X7171428Y-20139524D01*
X7180952Y-20130000D01*
X7171428Y-20120476D01*
X7171428Y-20139524D01*
X7295238Y-20320476D02*
X7276190Y-20310952D01*
X7266667Y-20291905D01*
X7266667Y-20120476D01*
X7400000Y-20320476D02*
X7380952Y-20310952D01*
X7371428Y-20291905D01*
X7371428Y-20120476D01*
X7628571Y-20320476D02*
X7628571Y-20120476D01*
X7695238Y-20263333D01*
X7761905Y-20120476D01*
X7761905Y-20320476D01*
X7942857Y-20320476D02*
X7942857Y-20215714D01*
X7933333Y-20196667D01*
X7914286Y-20187143D01*
X7876190Y-20187143D01*
X7857143Y-20196667D01*
X7942857Y-20310952D02*
X7923809Y-20320476D01*
X7876190Y-20320476D01*
X7857143Y-20310952D01*
X7847619Y-20291905D01*
X7847619Y-20272857D01*
X7857143Y-20253810D01*
X7876190Y-20244286D01*
X7923809Y-20244286D01*
X7942857Y-20234762D01*
X8038095Y-20187143D02*
X8038095Y-20387143D01*
X8038095Y-20196667D02*
X8057143Y-20187143D01*
X8095238Y-20187143D01*
X8114286Y-20196667D01*
X8123809Y-20206190D01*
X8133333Y-20225238D01*
X8133333Y-20282381D01*
X8123809Y-20301429D01*
X8114286Y-20310952D01*
X8095238Y-20320476D01*
X8057143Y-20320476D01*
X8038095Y-20310952D01*
X8219048Y-20301429D02*
X8228571Y-20310952D01*
X8219048Y-20320476D01*
X8209524Y-20310952D01*
X8219048Y-20301429D01*
X8219048Y-20320476D01*
X8219048Y-20196667D02*
X8228571Y-20206190D01*
X8219048Y-20215714D01*
X8209524Y-20206190D01*
X8219048Y-20196667D01*
X8219048Y-20215714D01*
D12*
X6419820Y-20564910D02*
X6590000Y-20735090D01*
X6590000Y-20564910D02*
X6419820Y-20735090D01*
D10*
X6952381Y-20740476D02*
X6838095Y-20740476D01*
X6895238Y-20740476D02*
X6895238Y-20540476D01*
X6876190Y-20569048D01*
X6857143Y-20588095D01*
X6838095Y-20597619D01*
X7038095Y-20721429D02*
X7047619Y-20730952D01*
X7038095Y-20740476D01*
X7028571Y-20730952D01*
X7038095Y-20721429D01*
X7038095Y-20740476D01*
X7114286Y-20540476D02*
X7247619Y-20540476D01*
X7161905Y-20740476D01*
X7361905Y-20540476D02*
X7380952Y-20540476D01*
X7400000Y-20550000D01*
X7409524Y-20559524D01*
X7419048Y-20578571D01*
X7428571Y-20616667D01*
X7428571Y-20664286D01*
X7419048Y-20702381D01*
X7409524Y-20721429D01*
X7400000Y-20730952D01*
X7380952Y-20740476D01*
X7361905Y-20740476D01*
X7342857Y-20730952D01*
X7333333Y-20721429D01*
X7323809Y-20702381D01*
X7314286Y-20664286D01*
X7314286Y-20616667D01*
X7323809Y-20578571D01*
X7333333Y-20559524D01*
X7342857Y-20550000D01*
X7361905Y-20540476D01*
X7504762Y-20559524D02*
X7514286Y-20550000D01*
X7533333Y-20540476D01*
X7580952Y-20540476D01*
X7600000Y-20550000D01*
X7609524Y-20559524D01*
X7619048Y-20578571D01*
X7619048Y-20597619D01*
X7609524Y-20626190D01*
X7495238Y-20740476D01*
X7619048Y-20740476D01*
X7704762Y-20740476D02*
X7704762Y-20607143D01*
X7704762Y-20626190D02*
X7714286Y-20616667D01*
X7733333Y-20607143D01*
X7761905Y-20607143D01*
X7780952Y-20616667D01*
X7790476Y-20635714D01*
X7790476Y-20740476D01*
X7790476Y-20635714D02*
X7800000Y-20616667D01*
X7819048Y-20607143D01*
X7847619Y-20607143D01*
X7866667Y-20616667D01*
X7876190Y-20635714D01*
X7876190Y-20740476D01*
X7971428Y-20740476D02*
X7971428Y-20607143D01*
X7971428Y-20626190D02*
X7980952Y-20616667D01*
X8000000Y-20607143D01*
X8028571Y-20607143D01*
X8047619Y-20616667D01*
X8057143Y-20635714D01*
X8057143Y-20740476D01*
X8057143Y-20635714D02*
X8066667Y-20616667D01*
X8085714Y-20607143D01*
X8114286Y-20607143D01*
X8133333Y-20616667D01*
X8142857Y-20635714D01*
X8142857Y-20740476D01*
X8533333Y-20530952D02*
X8361905Y-20788095D01*
X8790476Y-20540476D02*
X8809524Y-20540476D01*
X8828571Y-20550000D01*
X8838095Y-20559524D01*
X8847619Y-20578571D01*
X8857143Y-20616667D01*
X8857143Y-20664286D01*
X8847619Y-20702381D01*
X8838095Y-20721429D01*
X8828571Y-20730952D01*
X8809524Y-20740476D01*
X8790476Y-20740476D01*
X8771429Y-20730952D01*
X8761905Y-20721429D01*
X8752381Y-20702381D01*
X8742857Y-20664286D01*
X8742857Y-20616667D01*
X8752381Y-20578571D01*
X8761905Y-20559524D01*
X8771429Y-20550000D01*
X8790476Y-20540476D01*
X8942857Y-20721429D02*
X8952381Y-20730952D01*
X8942857Y-20740476D01*
X8933333Y-20730952D01*
X8942857Y-20721429D01*
X8942857Y-20740476D01*
X9076190Y-20540476D02*
X9095238Y-20540476D01*
X9114286Y-20550000D01*
X9123810Y-20559524D01*
X9133333Y-20578571D01*
X9142857Y-20616667D01*
X9142857Y-20664286D01*
X9133333Y-20702381D01*
X9123810Y-20721429D01*
X9114286Y-20730952D01*
X9095238Y-20740476D01*
X9076190Y-20740476D01*
X9057143Y-20730952D01*
X9047619Y-20721429D01*
X9038095Y-20702381D01*
X9028571Y-20664286D01*
X9028571Y-20616667D01*
X9038095Y-20578571D01*
X9047619Y-20559524D01*
X9057143Y-20550000D01*
X9076190Y-20540476D01*
X9314286Y-20540476D02*
X9276190Y-20540476D01*
X9257143Y-20550000D01*
X9247619Y-20559524D01*
X9228571Y-20588095D01*
X9219048Y-20626190D01*
X9219048Y-20702381D01*
X9228571Y-20721429D01*
X9238095Y-20730952D01*
X9257143Y-20740476D01*
X9295238Y-20740476D01*
X9314286Y-20730952D01*
X9323810Y-20721429D01*
X9333333Y-20702381D01*
X9333333Y-20654762D01*
X9323810Y-20635714D01*
X9314286Y-20626190D01*
X9295238Y-20616667D01*
X9257143Y-20616667D01*
X9238095Y-20626190D01*
X9228571Y-20635714D01*
X9219048Y-20654762D01*
X9400000Y-20540476D02*
X9533333Y-20540476D01*
X9447619Y-20740476D01*
X9647619Y-20540476D02*
X9666667Y-20540476D01*
X9685714Y-20550000D01*
X9695238Y-20559524D01*
X9704762Y-20578571D01*
X9714286Y-20616667D01*
X9714286Y-20664286D01*
X9704762Y-20702381D01*
X9695238Y-20721429D01*
X9685714Y-20730952D01*
X9666667Y-20740476D01*
X9647619Y-20740476D01*
X9628571Y-20730952D01*
X9619048Y-20721429D01*
X9609524Y-20702381D01*
X9600000Y-20664286D01*
X9600000Y-20616667D01*
X9609524Y-20578571D01*
X9619048Y-20559524D01*
X9628571Y-20550000D01*
X9647619Y-20540476D01*
X9790476Y-20540476D02*
X9790476Y-20578571D01*
X9866667Y-20540476D02*
X9866667Y-20578571D01*
X10161905Y-20816667D02*
X10152381Y-20807143D01*
X10133333Y-20778571D01*
X10123810Y-20759524D01*
X10114286Y-20730952D01*
X10104762Y-20683333D01*
X10104762Y-20645238D01*
X10114286Y-20597619D01*
X10123810Y-20569048D01*
X10133333Y-20550000D01*
X10152381Y-20521429D01*
X10161905Y-20511905D01*
X10342857Y-20740476D02*
X10228571Y-20740476D01*
X10285714Y-20740476D02*
X10285714Y-20540476D01*
X10266667Y-20569048D01*
X10247619Y-20588095D01*
X10228571Y-20597619D01*
X10523810Y-20540476D02*
X10428571Y-20540476D01*
X10419048Y-20635714D01*
X10428571Y-20626190D01*
X10447619Y-20616667D01*
X10495238Y-20616667D01*
X10514286Y-20626190D01*
X10523810Y-20635714D01*
X10533333Y-20654762D01*
X10533333Y-20702381D01*
X10523810Y-20721429D01*
X10514286Y-20730952D01*
X10495238Y-20740476D01*
X10447619Y-20740476D01*
X10428571Y-20730952D01*
X10419048Y-20721429D01*
X10704762Y-20607143D02*
X10704762Y-20740476D01*
X10657143Y-20530952D02*
X10609524Y-20673810D01*
X10733333Y-20673810D01*
X10961905Y-20740476D02*
X10961905Y-20540476D01*
X11047619Y-20740476D02*
X11047619Y-20635714D01*
X11038095Y-20616667D01*
X11019048Y-20607143D01*
X10990476Y-20607143D01*
X10971429Y-20616667D01*
X10961905Y-20626190D01*
X11171429Y-20740476D02*
X11152381Y-20730952D01*
X11142857Y-20721429D01*
X11133333Y-20702381D01*
X11133333Y-20645238D01*
X11142857Y-20626190D01*
X11152381Y-20616667D01*
X11171429Y-20607143D01*
X11200000Y-20607143D01*
X11219048Y-20616667D01*
X11228571Y-20626190D01*
X11238095Y-20645238D01*
X11238095Y-20702381D01*
X11228571Y-20721429D01*
X11219048Y-20730952D01*
X11200000Y-20740476D01*
X11171429Y-20740476D01*
X11352381Y-20740476D02*
X11333333Y-20730952D01*
X11323809Y-20711905D01*
X11323809Y-20540476D01*
X11504762Y-20730952D02*
X11485714Y-20740476D01*
X11447619Y-20740476D01*
X11428571Y-20730952D01*
X11419048Y-20711905D01*
X11419048Y-20635714D01*
X11428571Y-20616667D01*
X11447619Y-20607143D01*
X11485714Y-20607143D01*
X11504762Y-20616667D01*
X11514286Y-20635714D01*
X11514286Y-20654762D01*
X11419048Y-20673810D01*
X11590476Y-20730952D02*
X11609524Y-20740476D01*
X11647619Y-20740476D01*
X11666667Y-20730952D01*
X11676190Y-20711905D01*
X11676190Y-20702381D01*
X11666667Y-20683333D01*
X11647619Y-20673810D01*
X11619048Y-20673810D01*
X11600000Y-20664286D01*
X11590476Y-20645238D01*
X11590476Y-20635714D01*
X11600000Y-20616667D01*
X11619048Y-20607143D01*
X11647619Y-20607143D01*
X11666667Y-20616667D01*
X11742857Y-20816667D02*
X11752381Y-20807143D01*
X11771428Y-20778571D01*
X11780952Y-20759524D01*
X11790476Y-20730952D01*
X11800000Y-20683333D01*
X11800000Y-20645238D01*
X11790476Y-20597619D01*
X11780952Y-20569048D01*
X11771428Y-20550000D01*
X11752381Y-20521429D01*
X11742857Y-20511905D01*
X12104762Y-20816667D02*
X12095238Y-20807143D01*
X12076190Y-20778571D01*
X12066667Y-20759524D01*
X12057143Y-20730952D01*
X12047619Y-20683333D01*
X12047619Y-20645238D01*
X12057143Y-20597619D01*
X12066667Y-20569048D01*
X12076190Y-20550000D01*
X12095238Y-20521429D01*
X12104762Y-20511905D01*
X12180952Y-20607143D02*
X12180952Y-20740476D01*
X12180952Y-20626190D02*
X12190476Y-20616667D01*
X12209524Y-20607143D01*
X12238095Y-20607143D01*
X12257143Y-20616667D01*
X12266667Y-20635714D01*
X12266667Y-20740476D01*
X12390476Y-20740476D02*
X12371428Y-20730952D01*
X12361905Y-20721429D01*
X12352381Y-20702381D01*
X12352381Y-20645238D01*
X12361905Y-20626190D01*
X12371428Y-20616667D01*
X12390476Y-20607143D01*
X12419048Y-20607143D01*
X12438095Y-20616667D01*
X12447619Y-20626190D01*
X12457143Y-20645238D01*
X12457143Y-20702381D01*
X12447619Y-20721429D01*
X12438095Y-20730952D01*
X12419048Y-20740476D01*
X12390476Y-20740476D01*
X12514286Y-20607143D02*
X12590476Y-20607143D01*
X12542857Y-20540476D02*
X12542857Y-20711905D01*
X12552381Y-20730952D01*
X12571428Y-20740476D01*
X12590476Y-20740476D01*
X12809524Y-20607143D02*
X12809524Y-20807143D01*
X12809524Y-20616667D02*
X12828571Y-20607143D01*
X12866667Y-20607143D01*
X12885714Y-20616667D01*
X12895238Y-20626190D01*
X12904762Y-20645238D01*
X12904762Y-20702381D01*
X12895238Y-20721429D01*
X12885714Y-20730952D01*
X12866667Y-20740476D01*
X12828571Y-20740476D01*
X12809524Y-20730952D01*
X13019048Y-20740476D02*
X13000000Y-20730952D01*
X12990476Y-20711905D01*
X12990476Y-20540476D01*
X13180952Y-20740476D02*
X13180952Y-20635714D01*
X13171428Y-20616667D01*
X13152381Y-20607143D01*
X13114286Y-20607143D01*
X13095238Y-20616667D01*
X13180952Y-20730952D02*
X13161905Y-20740476D01*
X13114286Y-20740476D01*
X13095238Y-20730952D01*
X13085714Y-20711905D01*
X13085714Y-20692857D01*
X13095238Y-20673810D01*
X13114286Y-20664286D01*
X13161905Y-20664286D01*
X13180952Y-20654762D01*
X13247619Y-20607143D02*
X13323809Y-20607143D01*
X13276190Y-20540476D02*
X13276190Y-20711905D01*
X13285714Y-20730952D01*
X13304762Y-20740476D01*
X13323809Y-20740476D01*
X13466667Y-20730952D02*
X13447619Y-20740476D01*
X13409524Y-20740476D01*
X13390476Y-20730952D01*
X13380952Y-20711905D01*
X13380952Y-20635714D01*
X13390476Y-20616667D01*
X13409524Y-20607143D01*
X13447619Y-20607143D01*
X13466667Y-20616667D01*
X13476190Y-20635714D01*
X13476190Y-20654762D01*
X13380952Y-20673810D01*
X13647619Y-20740476D02*
X13647619Y-20540476D01*
X13647619Y-20730952D02*
X13628571Y-20740476D01*
X13590476Y-20740476D01*
X13571428Y-20730952D01*
X13561905Y-20721429D01*
X13552381Y-20702381D01*
X13552381Y-20645238D01*
X13561905Y-20626190D01*
X13571428Y-20616667D01*
X13590476Y-20607143D01*
X13628571Y-20607143D01*
X13647619Y-20616667D01*
X13723809Y-20816667D02*
X13733333Y-20807143D01*
X13752381Y-20778571D01*
X13761905Y-20759524D01*
X13771428Y-20730952D01*
X13780952Y-20683333D01*
X13780952Y-20645238D01*
X13771428Y-20597619D01*
X13761905Y-20569048D01*
X13752381Y-20550000D01*
X13733333Y-20521429D01*
X13723809Y-20511905D01*
X6590000Y-20940180D02*
G75*
G03*
X6590000Y-20940180I-100000J0D01*
G01*
X6828571Y-20830656D02*
X6952381Y-20830656D01*
X6885714Y-20906847D01*
X6914286Y-20906847D01*
X6933333Y-20916370D01*
X6942857Y-20925894D01*
X6952381Y-20944942D01*
X6952381Y-20992561D01*
X6942857Y-21011609D01*
X6933333Y-21021132D01*
X6914286Y-21030656D01*
X6857143Y-21030656D01*
X6838095Y-21021132D01*
X6828571Y-21011609D01*
X7038095Y-21011609D02*
X7047619Y-21021132D01*
X7038095Y-21030656D01*
X7028571Y-21021132D01*
X7038095Y-21011609D01*
X7038095Y-21030656D01*
X7171428Y-20830656D02*
X7190476Y-20830656D01*
X7209524Y-20840180D01*
X7219048Y-20849704D01*
X7228571Y-20868751D01*
X7238095Y-20906847D01*
X7238095Y-20954466D01*
X7228571Y-20992561D01*
X7219048Y-21011609D01*
X7209524Y-21021132D01*
X7190476Y-21030656D01*
X7171428Y-21030656D01*
X7152381Y-21021132D01*
X7142857Y-21011609D01*
X7133333Y-20992561D01*
X7123809Y-20954466D01*
X7123809Y-20906847D01*
X7133333Y-20868751D01*
X7142857Y-20849704D01*
X7152381Y-20840180D01*
X7171428Y-20830656D01*
X7361905Y-20830656D02*
X7380952Y-20830656D01*
X7400000Y-20840180D01*
X7409524Y-20849704D01*
X7419048Y-20868751D01*
X7428571Y-20906847D01*
X7428571Y-20954466D01*
X7419048Y-20992561D01*
X7409524Y-21011609D01*
X7400000Y-21021132D01*
X7380952Y-21030656D01*
X7361905Y-21030656D01*
X7342857Y-21021132D01*
X7333333Y-21011609D01*
X7323809Y-20992561D01*
X7314286Y-20954466D01*
X7314286Y-20906847D01*
X7323809Y-20868751D01*
X7333333Y-20849704D01*
X7342857Y-20840180D01*
X7361905Y-20830656D01*
X7552381Y-20830656D02*
X7571428Y-20830656D01*
X7590476Y-20840180D01*
X7600000Y-20849704D01*
X7609524Y-20868751D01*
X7619048Y-20906847D01*
X7619048Y-20954466D01*
X7609524Y-20992561D01*
X7600000Y-21011609D01*
X7590476Y-21021132D01*
X7571428Y-21030656D01*
X7552381Y-21030656D01*
X7533333Y-21021132D01*
X7523809Y-21011609D01*
X7514286Y-20992561D01*
X7504762Y-20954466D01*
X7504762Y-20906847D01*
X7514286Y-20868751D01*
X7523809Y-20849704D01*
X7533333Y-20840180D01*
X7552381Y-20830656D01*
X7704762Y-21030656D02*
X7704762Y-20897323D01*
X7704762Y-20916370D02*
X7714286Y-20906847D01*
X7733333Y-20897323D01*
X7761905Y-20897323D01*
X7780952Y-20906847D01*
X7790476Y-20925894D01*
X7790476Y-21030656D01*
X7790476Y-20925894D02*
X7800000Y-20906847D01*
X7819048Y-20897323D01*
X7847619Y-20897323D01*
X7866667Y-20906847D01*
X7876190Y-20925894D01*
X7876190Y-21030656D01*
X7971428Y-21030656D02*
X7971428Y-20897323D01*
X7971428Y-20916370D02*
X7980952Y-20906847D01*
X8000000Y-20897323D01*
X8028571Y-20897323D01*
X8047619Y-20906847D01*
X8057143Y-20925894D01*
X8057143Y-21030656D01*
X8057143Y-20925894D02*
X8066667Y-20906847D01*
X8085714Y-20897323D01*
X8114286Y-20897323D01*
X8133333Y-20906847D01*
X8142857Y-20925894D01*
X8142857Y-21030656D01*
X8533333Y-20821132D02*
X8361905Y-21078275D01*
X8790476Y-20830656D02*
X8809524Y-20830656D01*
X8828571Y-20840180D01*
X8838095Y-20849704D01*
X8847619Y-20868751D01*
X8857143Y-20906847D01*
X8857143Y-20954466D01*
X8847619Y-20992561D01*
X8838095Y-21011609D01*
X8828571Y-21021132D01*
X8809524Y-21030656D01*
X8790476Y-21030656D01*
X8771429Y-21021132D01*
X8761905Y-21011609D01*
X8752381Y-20992561D01*
X8742857Y-20954466D01*
X8742857Y-20906847D01*
X8752381Y-20868751D01*
X8761905Y-20849704D01*
X8771429Y-20840180D01*
X8790476Y-20830656D01*
X8942857Y-21011609D02*
X8952381Y-21021132D01*
X8942857Y-21030656D01*
X8933333Y-21021132D01*
X8942857Y-21011609D01*
X8942857Y-21030656D01*
X9142857Y-21030656D02*
X9028571Y-21030656D01*
X9085714Y-21030656D02*
X9085714Y-20830656D01*
X9066667Y-20859228D01*
X9047619Y-20878275D01*
X9028571Y-20887799D01*
X9333333Y-21030656D02*
X9219048Y-21030656D01*
X9276190Y-21030656D02*
X9276190Y-20830656D01*
X9257143Y-20859228D01*
X9238095Y-20878275D01*
X9219048Y-20887799D01*
X9447619Y-20916370D02*
X9428571Y-20906847D01*
X9419048Y-20897323D01*
X9409524Y-20878275D01*
X9409524Y-20868751D01*
X9419048Y-20849704D01*
X9428571Y-20840180D01*
X9447619Y-20830656D01*
X9485714Y-20830656D01*
X9504762Y-20840180D01*
X9514286Y-20849704D01*
X9523810Y-20868751D01*
X9523810Y-20878275D01*
X9514286Y-20897323D01*
X9504762Y-20906847D01*
X9485714Y-20916370D01*
X9447619Y-20916370D01*
X9428571Y-20925894D01*
X9419048Y-20935418D01*
X9409524Y-20954466D01*
X9409524Y-20992561D01*
X9419048Y-21011609D01*
X9428571Y-21021132D01*
X9447619Y-21030656D01*
X9485714Y-21030656D01*
X9504762Y-21021132D01*
X9514286Y-21011609D01*
X9523810Y-20992561D01*
X9523810Y-20954466D01*
X9514286Y-20935418D01*
X9504762Y-20925894D01*
X9485714Y-20916370D01*
X9714286Y-21030656D02*
X9600000Y-21030656D01*
X9657143Y-21030656D02*
X9657143Y-20830656D01*
X9638095Y-20859228D01*
X9619048Y-20878275D01*
X9600000Y-20887799D01*
X9790476Y-20830656D02*
X9790476Y-20868751D01*
X9866667Y-20830656D02*
X9866667Y-20868751D01*
X10161905Y-21106847D02*
X10152381Y-21097323D01*
X10133333Y-21068751D01*
X10123810Y-21049704D01*
X10114286Y-21021132D01*
X10104762Y-20973513D01*
X10104762Y-20935418D01*
X10114286Y-20887799D01*
X10123810Y-20859228D01*
X10133333Y-20840180D01*
X10152381Y-20811609D01*
X10161905Y-20802085D01*
X10342857Y-21030656D02*
X10228571Y-21030656D01*
X10285714Y-21030656D02*
X10285714Y-20830656D01*
X10266667Y-20859228D01*
X10247619Y-20878275D01*
X10228571Y-20887799D01*
X10523810Y-20830656D02*
X10428571Y-20830656D01*
X10419048Y-20925894D01*
X10428571Y-20916370D01*
X10447619Y-20906847D01*
X10495238Y-20906847D01*
X10514286Y-20916370D01*
X10523810Y-20925894D01*
X10533333Y-20944942D01*
X10533333Y-20992561D01*
X10523810Y-21011609D01*
X10514286Y-21021132D01*
X10495238Y-21030656D01*
X10447619Y-21030656D01*
X10428571Y-21021132D01*
X10419048Y-21011609D01*
X10704762Y-20897323D02*
X10704762Y-21030656D01*
X10657143Y-20821132D02*
X10609524Y-20963990D01*
X10733333Y-20963990D01*
X10961905Y-21030656D02*
X10961905Y-20830656D01*
X11047619Y-21030656D02*
X11047619Y-20925894D01*
X11038095Y-20906847D01*
X11019048Y-20897323D01*
X10990476Y-20897323D01*
X10971429Y-20906847D01*
X10961905Y-20916370D01*
X11171429Y-21030656D02*
X11152381Y-21021132D01*
X11142857Y-21011609D01*
X11133333Y-20992561D01*
X11133333Y-20935418D01*
X11142857Y-20916370D01*
X11152381Y-20906847D01*
X11171429Y-20897323D01*
X11200000Y-20897323D01*
X11219048Y-20906847D01*
X11228571Y-20916370D01*
X11238095Y-20935418D01*
X11238095Y-20992561D01*
X11228571Y-21011609D01*
X11219048Y-21021132D01*
X11200000Y-21030656D01*
X11171429Y-21030656D01*
X11352381Y-21030656D02*
X11333333Y-21021132D01*
X11323809Y-21002085D01*
X11323809Y-20830656D01*
X11504762Y-21021132D02*
X11485714Y-21030656D01*
X11447619Y-21030656D01*
X11428571Y-21021132D01*
X11419048Y-21002085D01*
X11419048Y-20925894D01*
X11428571Y-20906847D01*
X11447619Y-20897323D01*
X11485714Y-20897323D01*
X11504762Y-20906847D01*
X11514286Y-20925894D01*
X11514286Y-20944942D01*
X11419048Y-20963990D01*
X11590476Y-21021132D02*
X11609524Y-21030656D01*
X11647619Y-21030656D01*
X11666667Y-21021132D01*
X11676190Y-21002085D01*
X11676190Y-20992561D01*
X11666667Y-20973513D01*
X11647619Y-20963990D01*
X11619048Y-20963990D01*
X11600000Y-20954466D01*
X11590476Y-20935418D01*
X11590476Y-20925894D01*
X11600000Y-20906847D01*
X11619048Y-20897323D01*
X11647619Y-20897323D01*
X11666667Y-20906847D01*
X11742857Y-21106847D02*
X11752381Y-21097323D01*
X11771428Y-21068751D01*
X11780952Y-21049704D01*
X11790476Y-21021132D01*
X11800000Y-20973513D01*
X11800000Y-20935418D01*
X11790476Y-20887799D01*
X11780952Y-20859228D01*
X11771428Y-20840180D01*
X11752381Y-20811609D01*
X11742857Y-20802085D01*
X12104762Y-21106847D02*
X12095238Y-21097323D01*
X12076190Y-21068751D01*
X12066667Y-21049704D01*
X12057143Y-21021132D01*
X12047619Y-20973513D01*
X12047619Y-20935418D01*
X12057143Y-20887799D01*
X12066667Y-20859228D01*
X12076190Y-20840180D01*
X12095238Y-20811609D01*
X12104762Y-20802085D01*
X12180952Y-20897323D02*
X12180952Y-21030656D01*
X12180952Y-20916370D02*
X12190476Y-20906847D01*
X12209524Y-20897323D01*
X12238095Y-20897323D01*
X12257143Y-20906847D01*
X12266667Y-20925894D01*
X12266667Y-21030656D01*
X12390476Y-21030656D02*
X12371428Y-21021132D01*
X12361905Y-21011609D01*
X12352381Y-20992561D01*
X12352381Y-20935418D01*
X12361905Y-20916370D01*
X12371428Y-20906847D01*
X12390476Y-20897323D01*
X12419048Y-20897323D01*
X12438095Y-20906847D01*
X12447619Y-20916370D01*
X12457143Y-20935418D01*
X12457143Y-20992561D01*
X12447619Y-21011609D01*
X12438095Y-21021132D01*
X12419048Y-21030656D01*
X12390476Y-21030656D01*
X12514286Y-20897323D02*
X12590476Y-20897323D01*
X12542857Y-20830656D02*
X12542857Y-21002085D01*
X12552381Y-21021132D01*
X12571428Y-21030656D01*
X12590476Y-21030656D01*
X12809524Y-20897323D02*
X12809524Y-21097323D01*
X12809524Y-20906847D02*
X12828571Y-20897323D01*
X12866667Y-20897323D01*
X12885714Y-20906847D01*
X12895238Y-20916370D01*
X12904762Y-20935418D01*
X12904762Y-20992561D01*
X12895238Y-21011609D01*
X12885714Y-21021132D01*
X12866667Y-21030656D01*
X12828571Y-21030656D01*
X12809524Y-21021132D01*
X13019048Y-21030656D02*
X13000000Y-21021132D01*
X12990476Y-21002085D01*
X12990476Y-20830656D01*
X13180952Y-21030656D02*
X13180952Y-20925894D01*
X13171428Y-20906847D01*
X13152381Y-20897323D01*
X13114286Y-20897323D01*
X13095238Y-20906847D01*
X13180952Y-21021132D02*
X13161905Y-21030656D01*
X13114286Y-21030656D01*
X13095238Y-21021132D01*
X13085714Y-21002085D01*
X13085714Y-20983037D01*
X13095238Y-20963990D01*
X13114286Y-20954466D01*
X13161905Y-20954466D01*
X13180952Y-20944942D01*
X13247619Y-20897323D02*
X13323809Y-20897323D01*
X13276190Y-20830656D02*
X13276190Y-21002085D01*
X13285714Y-21021132D01*
X13304762Y-21030656D01*
X13323809Y-21030656D01*
X13466667Y-21021132D02*
X13447619Y-21030656D01*
X13409524Y-21030656D01*
X13390476Y-21021132D01*
X13380952Y-21002085D01*
X13380952Y-20925894D01*
X13390476Y-20906847D01*
X13409524Y-20897323D01*
X13447619Y-20897323D01*
X13466667Y-20906847D01*
X13476190Y-20925894D01*
X13476190Y-20944942D01*
X13380952Y-20963990D01*
X13647619Y-21030656D02*
X13647619Y-20830656D01*
X13647619Y-21021132D02*
X13628571Y-21030656D01*
X13590476Y-21030656D01*
X13571428Y-21021132D01*
X13561905Y-21011609D01*
X13552381Y-20992561D01*
X13552381Y-20935418D01*
X13561905Y-20916370D01*
X13571428Y-20906847D01*
X13590476Y-20897323D01*
X13628571Y-20897323D01*
X13647619Y-20906847D01*
X13723809Y-21106847D02*
X13733333Y-21097323D01*
X13752381Y-21068751D01*
X13761905Y-21049704D01*
X13771428Y-21021132D01*
X13780952Y-20973513D01*
X13780952Y-20935418D01*
X13771428Y-20887799D01*
X13761905Y-20859228D01*
X13752381Y-20840180D01*
X13733333Y-20811609D01*
X13723809Y-20802085D01*
X6490000Y-21160180D02*
X6490000Y-21360180D01*
X6390000Y-21260180D02*
X6590000Y-21260180D01*
X6828571Y-21150656D02*
X6952381Y-21150656D01*
X6885714Y-21226847D01*
X6914286Y-21226847D01*
X6933333Y-21236370D01*
X6942857Y-21245894D01*
X6952381Y-21264942D01*
X6952381Y-21312561D01*
X6942857Y-21331609D01*
X6933333Y-21341132D01*
X6914286Y-21350656D01*
X6857143Y-21350656D01*
X6838095Y-21341132D01*
X6828571Y-21331609D01*
X7038095Y-21331609D02*
X7047619Y-21341132D01*
X7038095Y-21350656D01*
X7028571Y-21341132D01*
X7038095Y-21331609D01*
X7038095Y-21350656D01*
X7171428Y-21150656D02*
X7190476Y-21150656D01*
X7209524Y-21160180D01*
X7219048Y-21169704D01*
X7228571Y-21188751D01*
X7238095Y-21226847D01*
X7238095Y-21274466D01*
X7228571Y-21312561D01*
X7219048Y-21331609D01*
X7209524Y-21341132D01*
X7190476Y-21350656D01*
X7171428Y-21350656D01*
X7152381Y-21341132D01*
X7142857Y-21331609D01*
X7133333Y-21312561D01*
X7123809Y-21274466D01*
X7123809Y-21226847D01*
X7133333Y-21188751D01*
X7142857Y-21169704D01*
X7152381Y-21160180D01*
X7171428Y-21150656D01*
X7409524Y-21217323D02*
X7409524Y-21350656D01*
X7361905Y-21141132D02*
X7314286Y-21283990D01*
X7438095Y-21283990D01*
X7542857Y-21236370D02*
X7523809Y-21226847D01*
X7514286Y-21217323D01*
X7504762Y-21198275D01*
X7504762Y-21188751D01*
X7514286Y-21169704D01*
X7523809Y-21160180D01*
X7542857Y-21150656D01*
X7580952Y-21150656D01*
X7600000Y-21160180D01*
X7609524Y-21169704D01*
X7619048Y-21188751D01*
X7619048Y-21198275D01*
X7609524Y-21217323D01*
X7600000Y-21226847D01*
X7580952Y-21236370D01*
X7542857Y-21236370D01*
X7523809Y-21245894D01*
X7514286Y-21255418D01*
X7504762Y-21274466D01*
X7504762Y-21312561D01*
X7514286Y-21331609D01*
X7523809Y-21341132D01*
X7542857Y-21350656D01*
X7580952Y-21350656D01*
X7600000Y-21341132D01*
X7609524Y-21331609D01*
X7619048Y-21312561D01*
X7619048Y-21274466D01*
X7609524Y-21255418D01*
X7600000Y-21245894D01*
X7580952Y-21236370D01*
X7704762Y-21350656D02*
X7704762Y-21217323D01*
X7704762Y-21236370D02*
X7714286Y-21226847D01*
X7733333Y-21217323D01*
X7761905Y-21217323D01*
X7780952Y-21226847D01*
X7790476Y-21245894D01*
X7790476Y-21350656D01*
X7790476Y-21245894D02*
X7800000Y-21226847D01*
X7819048Y-21217323D01*
X7847619Y-21217323D01*
X7866667Y-21226847D01*
X7876190Y-21245894D01*
X7876190Y-21350656D01*
X7971428Y-21350656D02*
X7971428Y-21217323D01*
X7971428Y-21236370D02*
X7980952Y-21226847D01*
X8000000Y-21217323D01*
X8028571Y-21217323D01*
X8047619Y-21226847D01*
X8057143Y-21245894D01*
X8057143Y-21350656D01*
X8057143Y-21245894D02*
X8066667Y-21226847D01*
X8085714Y-21217323D01*
X8114286Y-21217323D01*
X8133333Y-21226847D01*
X8142857Y-21245894D01*
X8142857Y-21350656D01*
X8533333Y-21141132D02*
X8361905Y-21398275D01*
X8790476Y-21150656D02*
X8809524Y-21150656D01*
X8828571Y-21160180D01*
X8838095Y-21169704D01*
X8847619Y-21188751D01*
X8857143Y-21226847D01*
X8857143Y-21274466D01*
X8847619Y-21312561D01*
X8838095Y-21331609D01*
X8828571Y-21341132D01*
X8809524Y-21350656D01*
X8790476Y-21350656D01*
X8771429Y-21341132D01*
X8761905Y-21331609D01*
X8752381Y-21312561D01*
X8742857Y-21274466D01*
X8742857Y-21226847D01*
X8752381Y-21188751D01*
X8761905Y-21169704D01*
X8771429Y-21160180D01*
X8790476Y-21150656D01*
X8942857Y-21331609D02*
X8952381Y-21341132D01*
X8942857Y-21350656D01*
X8933333Y-21341132D01*
X8942857Y-21331609D01*
X8942857Y-21350656D01*
X9142857Y-21350656D02*
X9028571Y-21350656D01*
X9085714Y-21350656D02*
X9085714Y-21150656D01*
X9066667Y-21179228D01*
X9047619Y-21198275D01*
X9028571Y-21207799D01*
X9219048Y-21169704D02*
X9228571Y-21160180D01*
X9247619Y-21150656D01*
X9295238Y-21150656D01*
X9314286Y-21160180D01*
X9323810Y-21169704D01*
X9333333Y-21188751D01*
X9333333Y-21207799D01*
X9323810Y-21236370D01*
X9209524Y-21350656D01*
X9333333Y-21350656D01*
X9457143Y-21150656D02*
X9476190Y-21150656D01*
X9495238Y-21160180D01*
X9504762Y-21169704D01*
X9514286Y-21188751D01*
X9523810Y-21226847D01*
X9523810Y-21274466D01*
X9514286Y-21312561D01*
X9504762Y-21331609D01*
X9495238Y-21341132D01*
X9476190Y-21350656D01*
X9457143Y-21350656D01*
X9438095Y-21341132D01*
X9428571Y-21331609D01*
X9419048Y-21312561D01*
X9409524Y-21274466D01*
X9409524Y-21226847D01*
X9419048Y-21188751D01*
X9428571Y-21169704D01*
X9438095Y-21160180D01*
X9457143Y-21150656D01*
X9647619Y-21150656D02*
X9666667Y-21150656D01*
X9685714Y-21160180D01*
X9695238Y-21169704D01*
X9704762Y-21188751D01*
X9714286Y-21226847D01*
X9714286Y-21274466D01*
X9704762Y-21312561D01*
X9695238Y-21331609D01*
X9685714Y-21341132D01*
X9666667Y-21350656D01*
X9647619Y-21350656D01*
X9628571Y-21341132D01*
X9619048Y-21331609D01*
X9609524Y-21312561D01*
X9600000Y-21274466D01*
X9600000Y-21226847D01*
X9609524Y-21188751D01*
X9619048Y-21169704D01*
X9628571Y-21160180D01*
X9647619Y-21150656D01*
X9790476Y-21150656D02*
X9790476Y-21188751D01*
X9866667Y-21150656D02*
X9866667Y-21188751D01*
X10161905Y-21426847D02*
X10152381Y-21417323D01*
X10133333Y-21388751D01*
X10123810Y-21369704D01*
X10114286Y-21341132D01*
X10104762Y-21293513D01*
X10104762Y-21255418D01*
X10114286Y-21207799D01*
X10123810Y-21179228D01*
X10133333Y-21160180D01*
X10152381Y-21131609D01*
X10161905Y-21122085D01*
X10266667Y-21236370D02*
X10247619Y-21226847D01*
X10238095Y-21217323D01*
X10228571Y-21198275D01*
X10228571Y-21188751D01*
X10238095Y-21169704D01*
X10247619Y-21160180D01*
X10266667Y-21150656D01*
X10304762Y-21150656D01*
X10323810Y-21160180D01*
X10333333Y-21169704D01*
X10342857Y-21188751D01*
X10342857Y-21198275D01*
X10333333Y-21217323D01*
X10323810Y-21226847D01*
X10304762Y-21236370D01*
X10266667Y-21236370D01*
X10247619Y-21245894D01*
X10238095Y-21255418D01*
X10228571Y-21274466D01*
X10228571Y-21312561D01*
X10238095Y-21331609D01*
X10247619Y-21341132D01*
X10266667Y-21350656D01*
X10304762Y-21350656D01*
X10323810Y-21341132D01*
X10333333Y-21331609D01*
X10342857Y-21312561D01*
X10342857Y-21274466D01*
X10333333Y-21255418D01*
X10323810Y-21245894D01*
X10304762Y-21236370D01*
X10580952Y-21350656D02*
X10580952Y-21150656D01*
X10666667Y-21350656D02*
X10666667Y-21245894D01*
X10657143Y-21226847D01*
X10638095Y-21217323D01*
X10609524Y-21217323D01*
X10590476Y-21226847D01*
X10580952Y-21236370D01*
X10790476Y-21350656D02*
X10771429Y-21341132D01*
X10761905Y-21331609D01*
X10752381Y-21312561D01*
X10752381Y-21255418D01*
X10761905Y-21236370D01*
X10771429Y-21226847D01*
X10790476Y-21217323D01*
X10819048Y-21217323D01*
X10838095Y-21226847D01*
X10847619Y-21236370D01*
X10857143Y-21255418D01*
X10857143Y-21312561D01*
X10847619Y-21331609D01*
X10838095Y-21341132D01*
X10819048Y-21350656D01*
X10790476Y-21350656D01*
X10971429Y-21350656D02*
X10952381Y-21341132D01*
X10942857Y-21322085D01*
X10942857Y-21150656D01*
X11123810Y-21341132D02*
X11104762Y-21350656D01*
X11066667Y-21350656D01*
X11047619Y-21341132D01*
X11038095Y-21322085D01*
X11038095Y-21245894D01*
X11047619Y-21226847D01*
X11066667Y-21217323D01*
X11104762Y-21217323D01*
X11123810Y-21226847D01*
X11133333Y-21245894D01*
X11133333Y-21264942D01*
X11038095Y-21283990D01*
X11209524Y-21341132D02*
X11228571Y-21350656D01*
X11266667Y-21350656D01*
X11285714Y-21341132D01*
X11295238Y-21322085D01*
X11295238Y-21312561D01*
X11285714Y-21293513D01*
X11266667Y-21283990D01*
X11238095Y-21283990D01*
X11219048Y-21274466D01*
X11209524Y-21255418D01*
X11209524Y-21245894D01*
X11219048Y-21226847D01*
X11238095Y-21217323D01*
X11266667Y-21217323D01*
X11285714Y-21226847D01*
X11361905Y-21426847D02*
X11371428Y-21417323D01*
X11390476Y-21388751D01*
X11400000Y-21369704D01*
X11409524Y-21341132D01*
X11419048Y-21293513D01*
X11419048Y-21255418D01*
X11409524Y-21207799D01*
X11400000Y-21179228D01*
X11390476Y-21160180D01*
X11371428Y-21131609D01*
X11361905Y-21122085D01*
X11723809Y-21426847D02*
X11714286Y-21417323D01*
X11695238Y-21388751D01*
X11685714Y-21369704D01*
X11676190Y-21341132D01*
X11666667Y-21293513D01*
X11666667Y-21255418D01*
X11676190Y-21207799D01*
X11685714Y-21179228D01*
X11695238Y-21160180D01*
X11714286Y-21131609D01*
X11723809Y-21122085D01*
X11800000Y-21217323D02*
X11800000Y-21350656D01*
X11800000Y-21236370D02*
X11809524Y-21226847D01*
X11828571Y-21217323D01*
X11857143Y-21217323D01*
X11876190Y-21226847D01*
X11885714Y-21245894D01*
X11885714Y-21350656D01*
X12009524Y-21350656D02*
X11990476Y-21341132D01*
X11980952Y-21331609D01*
X11971428Y-21312561D01*
X11971428Y-21255418D01*
X11980952Y-21236370D01*
X11990476Y-21226847D01*
X12009524Y-21217323D01*
X12038095Y-21217323D01*
X12057143Y-21226847D01*
X12066667Y-21236370D01*
X12076190Y-21255418D01*
X12076190Y-21312561D01*
X12066667Y-21331609D01*
X12057143Y-21341132D01*
X12038095Y-21350656D01*
X12009524Y-21350656D01*
X12133333Y-21217323D02*
X12209524Y-21217323D01*
X12161905Y-21150656D02*
X12161905Y-21322085D01*
X12171428Y-21341132D01*
X12190476Y-21350656D01*
X12209524Y-21350656D01*
X12428571Y-21217323D02*
X12428571Y-21417323D01*
X12428571Y-21226847D02*
X12447619Y-21217323D01*
X12485714Y-21217323D01*
X12504762Y-21226847D01*
X12514286Y-21236370D01*
X12523809Y-21255418D01*
X12523809Y-21312561D01*
X12514286Y-21331609D01*
X12504762Y-21341132D01*
X12485714Y-21350656D01*
X12447619Y-21350656D01*
X12428571Y-21341132D01*
X12638095Y-21350656D02*
X12619048Y-21341132D01*
X12609524Y-21322085D01*
X12609524Y-21150656D01*
X12800000Y-21350656D02*
X12800000Y-21245894D01*
X12790476Y-21226847D01*
X12771428Y-21217323D01*
X12733333Y-21217323D01*
X12714286Y-21226847D01*
X12800000Y-21341132D02*
X12780952Y-21350656D01*
X12733333Y-21350656D01*
X12714286Y-21341132D01*
X12704762Y-21322085D01*
X12704762Y-21303037D01*
X12714286Y-21283990D01*
X12733333Y-21274466D01*
X12780952Y-21274466D01*
X12800000Y-21264942D01*
X12866667Y-21217323D02*
X12942857Y-21217323D01*
X12895238Y-21150656D02*
X12895238Y-21322085D01*
X12904762Y-21341132D01*
X12923809Y-21350656D01*
X12942857Y-21350656D01*
X13085714Y-21341132D02*
X13066667Y-21350656D01*
X13028571Y-21350656D01*
X13009524Y-21341132D01*
X13000000Y-21322085D01*
X13000000Y-21245894D01*
X13009524Y-21226847D01*
X13028571Y-21217323D01*
X13066667Y-21217323D01*
X13085714Y-21226847D01*
X13095238Y-21245894D01*
X13095238Y-21264942D01*
X13000000Y-21283990D01*
X13266667Y-21350656D02*
X13266667Y-21150656D01*
X13266667Y-21341132D02*
X13247619Y-21350656D01*
X13209524Y-21350656D01*
X13190476Y-21341132D01*
X13180952Y-21331609D01*
X13171428Y-21312561D01*
X13171428Y-21255418D01*
X13180952Y-21236370D01*
X13190476Y-21226847D01*
X13209524Y-21217323D01*
X13247619Y-21217323D01*
X13266667Y-21226847D01*
X13342857Y-21426847D02*
X13352381Y-21417323D01*
X13371428Y-21388751D01*
X13380952Y-21369704D01*
X13390476Y-21341132D01*
X13400000Y-21293513D01*
X13400000Y-21255418D01*
X13390476Y-21207799D01*
X13380952Y-21179228D01*
X13371428Y-21160180D01*
X13352381Y-21131609D01*
X13342857Y-21122085D01*
X6560711Y-21650891D02*
X6560711Y-21509469D01*
X6419289Y-21509469D01*
X6419289Y-21650891D01*
X6560711Y-21650891D01*
X6828571Y-21470656D02*
X6952381Y-21470656D01*
X6885714Y-21546847D01*
X6914286Y-21546847D01*
X6933333Y-21556370D01*
X6942857Y-21565894D01*
X6952381Y-21584942D01*
X6952381Y-21632561D01*
X6942857Y-21651609D01*
X6933333Y-21661132D01*
X6914286Y-21670656D01*
X6857143Y-21670656D01*
X6838095Y-21661132D01*
X6828571Y-21651609D01*
X7038095Y-21651609D02*
X7047619Y-21661132D01*
X7038095Y-21670656D01*
X7028571Y-21661132D01*
X7038095Y-21651609D01*
X7038095Y-21670656D01*
X7123809Y-21489704D02*
X7133333Y-21480180D01*
X7152381Y-21470656D01*
X7200000Y-21470656D01*
X7219048Y-21480180D01*
X7228571Y-21489704D01*
X7238095Y-21508751D01*
X7238095Y-21527799D01*
X7228571Y-21556370D01*
X7114286Y-21670656D01*
X7238095Y-21670656D01*
X7361905Y-21470656D02*
X7380952Y-21470656D01*
X7400000Y-21480180D01*
X7409524Y-21489704D01*
X7419048Y-21508751D01*
X7428571Y-21546847D01*
X7428571Y-21594466D01*
X7419048Y-21632561D01*
X7409524Y-21651609D01*
X7400000Y-21661132D01*
X7380952Y-21670656D01*
X7361905Y-21670656D01*
X7342857Y-21661132D01*
X7333333Y-21651609D01*
X7323809Y-21632561D01*
X7314286Y-21594466D01*
X7314286Y-21546847D01*
X7323809Y-21508751D01*
X7333333Y-21489704D01*
X7342857Y-21480180D01*
X7361905Y-21470656D01*
X7552381Y-21470656D02*
X7571428Y-21470656D01*
X7590476Y-21480180D01*
X7600000Y-21489704D01*
X7609524Y-21508751D01*
X7619048Y-21546847D01*
X7619048Y-21594466D01*
X7609524Y-21632561D01*
X7600000Y-21651609D01*
X7590476Y-21661132D01*
X7571428Y-21670656D01*
X7552381Y-21670656D01*
X7533333Y-21661132D01*
X7523809Y-21651609D01*
X7514286Y-21632561D01*
X7504762Y-21594466D01*
X7504762Y-21546847D01*
X7514286Y-21508751D01*
X7523809Y-21489704D01*
X7533333Y-21480180D01*
X7552381Y-21470656D01*
X7704762Y-21670656D02*
X7704762Y-21537323D01*
X7704762Y-21556370D02*
X7714286Y-21546847D01*
X7733333Y-21537323D01*
X7761905Y-21537323D01*
X7780952Y-21546847D01*
X7790476Y-21565894D01*
X7790476Y-21670656D01*
X7790476Y-21565894D02*
X7800000Y-21546847D01*
X7819048Y-21537323D01*
X7847619Y-21537323D01*
X7866667Y-21546847D01*
X7876190Y-21565894D01*
X7876190Y-21670656D01*
X7971428Y-21670656D02*
X7971428Y-21537323D01*
X7971428Y-21556370D02*
X7980952Y-21546847D01*
X8000000Y-21537323D01*
X8028571Y-21537323D01*
X8047619Y-21546847D01*
X8057143Y-21565894D01*
X8057143Y-21670656D01*
X8057143Y-21565894D02*
X8066667Y-21546847D01*
X8085714Y-21537323D01*
X8114286Y-21537323D01*
X8133333Y-21546847D01*
X8142857Y-21565894D01*
X8142857Y-21670656D01*
X8533333Y-21461132D02*
X8361905Y-21718275D01*
X8790476Y-21470656D02*
X8809524Y-21470656D01*
X8828571Y-21480180D01*
X8838095Y-21489704D01*
X8847619Y-21508751D01*
X8857143Y-21546847D01*
X8857143Y-21594466D01*
X8847619Y-21632561D01*
X8838095Y-21651609D01*
X8828571Y-21661132D01*
X8809524Y-21670656D01*
X8790476Y-21670656D01*
X8771429Y-21661132D01*
X8761905Y-21651609D01*
X8752381Y-21632561D01*
X8742857Y-21594466D01*
X8742857Y-21546847D01*
X8752381Y-21508751D01*
X8761905Y-21489704D01*
X8771429Y-21480180D01*
X8790476Y-21470656D01*
X8942857Y-21651609D02*
X8952381Y-21661132D01*
X8942857Y-21670656D01*
X8933333Y-21661132D01*
X8942857Y-21651609D01*
X8942857Y-21670656D01*
X9142857Y-21670656D02*
X9028571Y-21670656D01*
X9085714Y-21670656D02*
X9085714Y-21470656D01*
X9066667Y-21499228D01*
X9047619Y-21518275D01*
X9028571Y-21527799D01*
X9219048Y-21489704D02*
X9228571Y-21480180D01*
X9247619Y-21470656D01*
X9295238Y-21470656D01*
X9314286Y-21480180D01*
X9323810Y-21489704D01*
X9333333Y-21508751D01*
X9333333Y-21527799D01*
X9323810Y-21556370D01*
X9209524Y-21670656D01*
X9333333Y-21670656D01*
X9504762Y-21470656D02*
X9466667Y-21470656D01*
X9447619Y-21480180D01*
X9438095Y-21489704D01*
X9419048Y-21518275D01*
X9409524Y-21556370D01*
X9409524Y-21632561D01*
X9419048Y-21651609D01*
X9428571Y-21661132D01*
X9447619Y-21670656D01*
X9485714Y-21670656D01*
X9504762Y-21661132D01*
X9514286Y-21651609D01*
X9523810Y-21632561D01*
X9523810Y-21584942D01*
X9514286Y-21565894D01*
X9504762Y-21556370D01*
X9485714Y-21546847D01*
X9447619Y-21546847D01*
X9428571Y-21556370D01*
X9419048Y-21565894D01*
X9409524Y-21584942D01*
X9647619Y-21470656D02*
X9666667Y-21470656D01*
X9685714Y-21480180D01*
X9695238Y-21489704D01*
X9704762Y-21508751D01*
X9714286Y-21546847D01*
X9714286Y-21594466D01*
X9704762Y-21632561D01*
X9695238Y-21651609D01*
X9685714Y-21661132D01*
X9666667Y-21670656D01*
X9647619Y-21670656D01*
X9628571Y-21661132D01*
X9619048Y-21651609D01*
X9609524Y-21632561D01*
X9600000Y-21594466D01*
X9600000Y-21546847D01*
X9609524Y-21508751D01*
X9619048Y-21489704D01*
X9628571Y-21480180D01*
X9647619Y-21470656D01*
X9790476Y-21470656D02*
X9790476Y-21508751D01*
X9866667Y-21470656D02*
X9866667Y-21508751D01*
X10161905Y-21746847D02*
X10152381Y-21737323D01*
X10133333Y-21708751D01*
X10123810Y-21689704D01*
X10114286Y-21661132D01*
X10104762Y-21613513D01*
X10104762Y-21575418D01*
X10114286Y-21527799D01*
X10123810Y-21499228D01*
X10133333Y-21480180D01*
X10152381Y-21451609D01*
X10161905Y-21442085D01*
X10266667Y-21556370D02*
X10247619Y-21546847D01*
X10238095Y-21537323D01*
X10228571Y-21518275D01*
X10228571Y-21508751D01*
X10238095Y-21489704D01*
X10247619Y-21480180D01*
X10266667Y-21470656D01*
X10304762Y-21470656D01*
X10323810Y-21480180D01*
X10333333Y-21489704D01*
X10342857Y-21508751D01*
X10342857Y-21518275D01*
X10333333Y-21537323D01*
X10323810Y-21546847D01*
X10304762Y-21556370D01*
X10266667Y-21556370D01*
X10247619Y-21565894D01*
X10238095Y-21575418D01*
X10228571Y-21594466D01*
X10228571Y-21632561D01*
X10238095Y-21651609D01*
X10247619Y-21661132D01*
X10266667Y-21670656D01*
X10304762Y-21670656D01*
X10323810Y-21661132D01*
X10333333Y-21651609D01*
X10342857Y-21632561D01*
X10342857Y-21594466D01*
X10333333Y-21575418D01*
X10323810Y-21565894D01*
X10304762Y-21556370D01*
X10580952Y-21670656D02*
X10580952Y-21470656D01*
X10666667Y-21670656D02*
X10666667Y-21565894D01*
X10657143Y-21546847D01*
X10638095Y-21537323D01*
X10609524Y-21537323D01*
X10590476Y-21546847D01*
X10580952Y-21556370D01*
X10790476Y-21670656D02*
X10771429Y-21661132D01*
X10761905Y-21651609D01*
X10752381Y-21632561D01*
X10752381Y-21575418D01*
X10761905Y-21556370D01*
X10771429Y-21546847D01*
X10790476Y-21537323D01*
X10819048Y-21537323D01*
X10838095Y-21546847D01*
X10847619Y-21556370D01*
X10857143Y-21575418D01*
X10857143Y-21632561D01*
X10847619Y-21651609D01*
X10838095Y-21661132D01*
X10819048Y-21670656D01*
X10790476Y-21670656D01*
X10971429Y-21670656D02*
X10952381Y-21661132D01*
X10942857Y-21642085D01*
X10942857Y-21470656D01*
X11123810Y-21661132D02*
X11104762Y-21670656D01*
X11066667Y-21670656D01*
X11047619Y-21661132D01*
X11038095Y-21642085D01*
X11038095Y-21565894D01*
X11047619Y-21546847D01*
X11066667Y-21537323D01*
X11104762Y-21537323D01*
X11123810Y-21546847D01*
X11133333Y-21565894D01*
X11133333Y-21584942D01*
X11038095Y-21603990D01*
X11209524Y-21661132D02*
X11228571Y-21670656D01*
X11266667Y-21670656D01*
X11285714Y-21661132D01*
X11295238Y-21642085D01*
X11295238Y-21632561D01*
X11285714Y-21613513D01*
X11266667Y-21603990D01*
X11238095Y-21603990D01*
X11219048Y-21594466D01*
X11209524Y-21575418D01*
X11209524Y-21565894D01*
X11219048Y-21546847D01*
X11238095Y-21537323D01*
X11266667Y-21537323D01*
X11285714Y-21546847D01*
X11361905Y-21746847D02*
X11371428Y-21737323D01*
X11390476Y-21708751D01*
X11400000Y-21689704D01*
X11409524Y-21661132D01*
X11419048Y-21613513D01*
X11419048Y-21575418D01*
X11409524Y-21527799D01*
X11400000Y-21499228D01*
X11390476Y-21480180D01*
X11371428Y-21451609D01*
X11361905Y-21442085D01*
X11723809Y-21746847D02*
X11714286Y-21737323D01*
X11695238Y-21708751D01*
X11685714Y-21689704D01*
X11676190Y-21661132D01*
X11666667Y-21613513D01*
X11666667Y-21575418D01*
X11676190Y-21527799D01*
X11685714Y-21499228D01*
X11695238Y-21480180D01*
X11714286Y-21451609D01*
X11723809Y-21442085D01*
X11800000Y-21537323D02*
X11800000Y-21670656D01*
X11800000Y-21556370D02*
X11809524Y-21546847D01*
X11828571Y-21537323D01*
X11857143Y-21537323D01*
X11876190Y-21546847D01*
X11885714Y-21565894D01*
X11885714Y-21670656D01*
X12009524Y-21670656D02*
X11990476Y-21661132D01*
X11980952Y-21651609D01*
X11971428Y-21632561D01*
X11971428Y-21575418D01*
X11980952Y-21556370D01*
X11990476Y-21546847D01*
X12009524Y-21537323D01*
X12038095Y-21537323D01*
X12057143Y-21546847D01*
X12066667Y-21556370D01*
X12076190Y-21575418D01*
X12076190Y-21632561D01*
X12066667Y-21651609D01*
X12057143Y-21661132D01*
X12038095Y-21670656D01*
X12009524Y-21670656D01*
X12133333Y-21537323D02*
X12209524Y-21537323D01*
X12161905Y-21470656D02*
X12161905Y-21642085D01*
X12171428Y-21661132D01*
X12190476Y-21670656D01*
X12209524Y-21670656D01*
X12428571Y-21537323D02*
X12428571Y-21737323D01*
X12428571Y-21546847D02*
X12447619Y-21537323D01*
X12485714Y-21537323D01*
X12504762Y-21546847D01*
X12514286Y-21556370D01*
X12523809Y-21575418D01*
X12523809Y-21632561D01*
X12514286Y-21651609D01*
X12504762Y-21661132D01*
X12485714Y-21670656D01*
X12447619Y-21670656D01*
X12428571Y-21661132D01*
X12638095Y-21670656D02*
X12619048Y-21661132D01*
X12609524Y-21642085D01*
X12609524Y-21470656D01*
X12800000Y-21670656D02*
X12800000Y-21565894D01*
X12790476Y-21546847D01*
X12771428Y-21537323D01*
X12733333Y-21537323D01*
X12714286Y-21546847D01*
X12800000Y-21661132D02*
X12780952Y-21670656D01*
X12733333Y-21670656D01*
X12714286Y-21661132D01*
X12704762Y-21642085D01*
X12704762Y-21623037D01*
X12714286Y-21603990D01*
X12733333Y-21594466D01*
X12780952Y-21594466D01*
X12800000Y-21584942D01*
X12866667Y-21537323D02*
X12942857Y-21537323D01*
X12895238Y-21470656D02*
X12895238Y-21642085D01*
X12904762Y-21661132D01*
X12923809Y-21670656D01*
X12942857Y-21670656D01*
X13085714Y-21661132D02*
X13066667Y-21670656D01*
X13028571Y-21670656D01*
X13009524Y-21661132D01*
X13000000Y-21642085D01*
X13000000Y-21565894D01*
X13009524Y-21546847D01*
X13028571Y-21537323D01*
X13066667Y-21537323D01*
X13085714Y-21546847D01*
X13095238Y-21565894D01*
X13095238Y-21584942D01*
X13000000Y-21603990D01*
X13266667Y-21670656D02*
X13266667Y-21470656D01*
X13266667Y-21661132D02*
X13247619Y-21670656D01*
X13209524Y-21670656D01*
X13190476Y-21661132D01*
X13180952Y-21651609D01*
X13171428Y-21632561D01*
X13171428Y-21575418D01*
X13180952Y-21556370D01*
X13190476Y-21546847D01*
X13209524Y-21537323D01*
X13247619Y-21537323D01*
X13266667Y-21546847D01*
X13342857Y-21746847D02*
X13352381Y-21737323D01*
X13371428Y-21708751D01*
X13380952Y-21689704D01*
X13390476Y-21661132D01*
X13400000Y-21613513D01*
X13400000Y-21575418D01*
X13390476Y-21527799D01*
X13380952Y-21499228D01*
X13371428Y-21480180D01*
X13352381Y-21451609D01*
X13342857Y-21442085D01*
X6490000Y-22000180D02*
X6590000Y-21900180D01*
X6490000Y-21800180D01*
X6390000Y-21900180D01*
X6490000Y-22000180D01*
X6828571Y-21790656D02*
X6952381Y-21790656D01*
X6885714Y-21866847D01*
X6914286Y-21866847D01*
X6933333Y-21876370D01*
X6942857Y-21885894D01*
X6952381Y-21904942D01*
X6952381Y-21952561D01*
X6942857Y-21971609D01*
X6933333Y-21981132D01*
X6914286Y-21990656D01*
X6857143Y-21990656D01*
X6838095Y-21981132D01*
X6828571Y-21971609D01*
X7038095Y-21971609D02*
X7047619Y-21981132D01*
X7038095Y-21990656D01*
X7028571Y-21981132D01*
X7038095Y-21971609D01*
X7038095Y-21990656D01*
X7142857Y-21990656D02*
X7180952Y-21990656D01*
X7200000Y-21981132D01*
X7209524Y-21971609D01*
X7228571Y-21943037D01*
X7238095Y-21904942D01*
X7238095Y-21828751D01*
X7228571Y-21809704D01*
X7219048Y-21800180D01*
X7200000Y-21790656D01*
X7161905Y-21790656D01*
X7142857Y-21800180D01*
X7133333Y-21809704D01*
X7123809Y-21828751D01*
X7123809Y-21876370D01*
X7133333Y-21895418D01*
X7142857Y-21904942D01*
X7161905Y-21914466D01*
X7200000Y-21914466D01*
X7219048Y-21904942D01*
X7228571Y-21895418D01*
X7238095Y-21876370D01*
X7352381Y-21876370D02*
X7333333Y-21866847D01*
X7323809Y-21857323D01*
X7314286Y-21838275D01*
X7314286Y-21828751D01*
X7323809Y-21809704D01*
X7333333Y-21800180D01*
X7352381Y-21790656D01*
X7390476Y-21790656D01*
X7409524Y-21800180D01*
X7419048Y-21809704D01*
X7428571Y-21828751D01*
X7428571Y-21838275D01*
X7419048Y-21857323D01*
X7409524Y-21866847D01*
X7390476Y-21876370D01*
X7352381Y-21876370D01*
X7333333Y-21885894D01*
X7323809Y-21895418D01*
X7314286Y-21914466D01*
X7314286Y-21952561D01*
X7323809Y-21971609D01*
X7333333Y-21981132D01*
X7352381Y-21990656D01*
X7390476Y-21990656D01*
X7409524Y-21981132D01*
X7419048Y-21971609D01*
X7428571Y-21952561D01*
X7428571Y-21914466D01*
X7419048Y-21895418D01*
X7409524Y-21885894D01*
X7390476Y-21876370D01*
X7542857Y-21876370D02*
X7523809Y-21866847D01*
X7514286Y-21857323D01*
X7504762Y-21838275D01*
X7504762Y-21828751D01*
X7514286Y-21809704D01*
X7523809Y-21800180D01*
X7542857Y-21790656D01*
X7580952Y-21790656D01*
X7600000Y-21800180D01*
X7609524Y-21809704D01*
X7619048Y-21828751D01*
X7619048Y-21838275D01*
X7609524Y-21857323D01*
X7600000Y-21866847D01*
X7580952Y-21876370D01*
X7542857Y-21876370D01*
X7523809Y-21885894D01*
X7514286Y-21895418D01*
X7504762Y-21914466D01*
X7504762Y-21952561D01*
X7514286Y-21971609D01*
X7523809Y-21981132D01*
X7542857Y-21990656D01*
X7580952Y-21990656D01*
X7600000Y-21981132D01*
X7609524Y-21971609D01*
X7619048Y-21952561D01*
X7619048Y-21914466D01*
X7609524Y-21895418D01*
X7600000Y-21885894D01*
X7580952Y-21876370D01*
X7704762Y-21990656D02*
X7704762Y-21857323D01*
X7704762Y-21876370D02*
X7714286Y-21866847D01*
X7733333Y-21857323D01*
X7761905Y-21857323D01*
X7780952Y-21866847D01*
X7790476Y-21885894D01*
X7790476Y-21990656D01*
X7790476Y-21885894D02*
X7800000Y-21866847D01*
X7819048Y-21857323D01*
X7847619Y-21857323D01*
X7866667Y-21866847D01*
X7876190Y-21885894D01*
X7876190Y-21990656D01*
X7971428Y-21990656D02*
X7971428Y-21857323D01*
X7971428Y-21876370D02*
X7980952Y-21866847D01*
X8000000Y-21857323D01*
X8028571Y-21857323D01*
X8047619Y-21866847D01*
X8057143Y-21885894D01*
X8057143Y-21990656D01*
X8057143Y-21885894D02*
X8066667Y-21866847D01*
X8085714Y-21857323D01*
X8114286Y-21857323D01*
X8133333Y-21866847D01*
X8142857Y-21885894D01*
X8142857Y-21990656D01*
X8533333Y-21781132D02*
X8361905Y-22038275D01*
X8790476Y-21790656D02*
X8809524Y-21790656D01*
X8828571Y-21800180D01*
X8838095Y-21809704D01*
X8847619Y-21828751D01*
X8857143Y-21866847D01*
X8857143Y-21914466D01*
X8847619Y-21952561D01*
X8838095Y-21971609D01*
X8828571Y-21981132D01*
X8809524Y-21990656D01*
X8790476Y-21990656D01*
X8771429Y-21981132D01*
X8761905Y-21971609D01*
X8752381Y-21952561D01*
X8742857Y-21914466D01*
X8742857Y-21866847D01*
X8752381Y-21828751D01*
X8761905Y-21809704D01*
X8771429Y-21800180D01*
X8790476Y-21790656D01*
X8942857Y-21971609D02*
X8952381Y-21981132D01*
X8942857Y-21990656D01*
X8933333Y-21981132D01*
X8942857Y-21971609D01*
X8942857Y-21990656D01*
X9142857Y-21990656D02*
X9028571Y-21990656D01*
X9085714Y-21990656D02*
X9085714Y-21790656D01*
X9066667Y-21819228D01*
X9047619Y-21838275D01*
X9028571Y-21847799D01*
X9323810Y-21790656D02*
X9228571Y-21790656D01*
X9219048Y-21885894D01*
X9228571Y-21876370D01*
X9247619Y-21866847D01*
X9295238Y-21866847D01*
X9314286Y-21876370D01*
X9323810Y-21885894D01*
X9333333Y-21904942D01*
X9333333Y-21952561D01*
X9323810Y-21971609D01*
X9314286Y-21981132D01*
X9295238Y-21990656D01*
X9247619Y-21990656D01*
X9228571Y-21981132D01*
X9219048Y-21971609D01*
X9400000Y-21790656D02*
X9533333Y-21790656D01*
X9447619Y-21990656D01*
X9647619Y-21790656D02*
X9666667Y-21790656D01*
X9685714Y-21800180D01*
X9695238Y-21809704D01*
X9704762Y-21828751D01*
X9714286Y-21866847D01*
X9714286Y-21914466D01*
X9704762Y-21952561D01*
X9695238Y-21971609D01*
X9685714Y-21981132D01*
X9666667Y-21990656D01*
X9647619Y-21990656D01*
X9628571Y-21981132D01*
X9619048Y-21971609D01*
X9609524Y-21952561D01*
X9600000Y-21914466D01*
X9600000Y-21866847D01*
X9609524Y-21828751D01*
X9619048Y-21809704D01*
X9628571Y-21800180D01*
X9647619Y-21790656D01*
X9790476Y-21790656D02*
X9790476Y-21828751D01*
X9866667Y-21790656D02*
X9866667Y-21828751D01*
X10161905Y-22066847D02*
X10152381Y-22057323D01*
X10133333Y-22028751D01*
X10123810Y-22009704D01*
X10114286Y-21981132D01*
X10104762Y-21933513D01*
X10104762Y-21895418D01*
X10114286Y-21847799D01*
X10123810Y-21819228D01*
X10133333Y-21800180D01*
X10152381Y-21771609D01*
X10161905Y-21762085D01*
X10266667Y-21876370D02*
X10247619Y-21866847D01*
X10238095Y-21857323D01*
X10228571Y-21838275D01*
X10228571Y-21828751D01*
X10238095Y-21809704D01*
X10247619Y-21800180D01*
X10266667Y-21790656D01*
X10304762Y-21790656D01*
X10323810Y-21800180D01*
X10333333Y-21809704D01*
X10342857Y-21828751D01*
X10342857Y-21838275D01*
X10333333Y-21857323D01*
X10323810Y-21866847D01*
X10304762Y-21876370D01*
X10266667Y-21876370D01*
X10247619Y-21885894D01*
X10238095Y-21895418D01*
X10228571Y-21914466D01*
X10228571Y-21952561D01*
X10238095Y-21971609D01*
X10247619Y-21981132D01*
X10266667Y-21990656D01*
X10304762Y-21990656D01*
X10323810Y-21981132D01*
X10333333Y-21971609D01*
X10342857Y-21952561D01*
X10342857Y-21914466D01*
X10333333Y-21895418D01*
X10323810Y-21885894D01*
X10304762Y-21876370D01*
X10523810Y-21790656D02*
X10428571Y-21790656D01*
X10419048Y-21885894D01*
X10428571Y-21876370D01*
X10447619Y-21866847D01*
X10495238Y-21866847D01*
X10514286Y-21876370D01*
X10523810Y-21885894D01*
X10533333Y-21904942D01*
X10533333Y-21952561D01*
X10523810Y-21971609D01*
X10514286Y-21981132D01*
X10495238Y-21990656D01*
X10447619Y-21990656D01*
X10428571Y-21981132D01*
X10419048Y-21971609D01*
X10771429Y-21990656D02*
X10771429Y-21790656D01*
X10857143Y-21990656D02*
X10857143Y-21885894D01*
X10847619Y-21866847D01*
X10828571Y-21857323D01*
X10800000Y-21857323D01*
X10780952Y-21866847D01*
X10771429Y-21876370D01*
X10980952Y-21990656D02*
X10961905Y-21981132D01*
X10952381Y-21971609D01*
X10942857Y-21952561D01*
X10942857Y-21895418D01*
X10952381Y-21876370D01*
X10961905Y-21866847D01*
X10980952Y-21857323D01*
X11009524Y-21857323D01*
X11028571Y-21866847D01*
X11038095Y-21876370D01*
X11047619Y-21895418D01*
X11047619Y-21952561D01*
X11038095Y-21971609D01*
X11028571Y-21981132D01*
X11009524Y-21990656D01*
X10980952Y-21990656D01*
X11161905Y-21990656D02*
X11142857Y-21981132D01*
X11133333Y-21962085D01*
X11133333Y-21790656D01*
X11314286Y-21981132D02*
X11295238Y-21990656D01*
X11257143Y-21990656D01*
X11238095Y-21981132D01*
X11228571Y-21962085D01*
X11228571Y-21885894D01*
X11238095Y-21866847D01*
X11257143Y-21857323D01*
X11295238Y-21857323D01*
X11314286Y-21866847D01*
X11323809Y-21885894D01*
X11323809Y-21904942D01*
X11228571Y-21923990D01*
X11400000Y-21981132D02*
X11419048Y-21990656D01*
X11457143Y-21990656D01*
X11476190Y-21981132D01*
X11485714Y-21962085D01*
X11485714Y-21952561D01*
X11476190Y-21933513D01*
X11457143Y-21923990D01*
X11428571Y-21923990D01*
X11409524Y-21914466D01*
X11400000Y-21895418D01*
X11400000Y-21885894D01*
X11409524Y-21866847D01*
X11428571Y-21857323D01*
X11457143Y-21857323D01*
X11476190Y-21866847D01*
X11552381Y-22066847D02*
X11561905Y-22057323D01*
X11580952Y-22028751D01*
X11590476Y-22009704D01*
X11600000Y-21981132D01*
X11609524Y-21933513D01*
X11609524Y-21895418D01*
X11600000Y-21847799D01*
X11590476Y-21819228D01*
X11580952Y-21800180D01*
X11561905Y-21771609D01*
X11552381Y-21762085D01*
X11914286Y-22066847D02*
X11904762Y-22057323D01*
X11885714Y-22028751D01*
X11876190Y-22009704D01*
X11866667Y-21981132D01*
X11857143Y-21933513D01*
X11857143Y-21895418D01*
X11866667Y-21847799D01*
X11876190Y-21819228D01*
X11885714Y-21800180D01*
X11904762Y-21771609D01*
X11914286Y-21762085D01*
X11990476Y-21857323D02*
X11990476Y-21990656D01*
X11990476Y-21876370D02*
X12000000Y-21866847D01*
X12019048Y-21857323D01*
X12047619Y-21857323D01*
X12066667Y-21866847D01*
X12076190Y-21885894D01*
X12076190Y-21990656D01*
X12200000Y-21990656D02*
X12180952Y-21981132D01*
X12171428Y-21971609D01*
X12161905Y-21952561D01*
X12161905Y-21895418D01*
X12171428Y-21876370D01*
X12180952Y-21866847D01*
X12200000Y-21857323D01*
X12228571Y-21857323D01*
X12247619Y-21866847D01*
X12257143Y-21876370D01*
X12266667Y-21895418D01*
X12266667Y-21952561D01*
X12257143Y-21971609D01*
X12247619Y-21981132D01*
X12228571Y-21990656D01*
X12200000Y-21990656D01*
X12323809Y-21857323D02*
X12400000Y-21857323D01*
X12352381Y-21790656D02*
X12352381Y-21962085D01*
X12361905Y-21981132D01*
X12380952Y-21990656D01*
X12400000Y-21990656D01*
X12619048Y-21857323D02*
X12619048Y-22057323D01*
X12619048Y-21866847D02*
X12638095Y-21857323D01*
X12676190Y-21857323D01*
X12695238Y-21866847D01*
X12704762Y-21876370D01*
X12714286Y-21895418D01*
X12714286Y-21952561D01*
X12704762Y-21971609D01*
X12695238Y-21981132D01*
X12676190Y-21990656D01*
X12638095Y-21990656D01*
X12619048Y-21981132D01*
X12828571Y-21990656D02*
X12809524Y-21981132D01*
X12800000Y-21962085D01*
X12800000Y-21790656D01*
X12990476Y-21990656D02*
X12990476Y-21885894D01*
X12980952Y-21866847D01*
X12961905Y-21857323D01*
X12923809Y-21857323D01*
X12904762Y-21866847D01*
X12990476Y-21981132D02*
X12971428Y-21990656D01*
X12923809Y-21990656D01*
X12904762Y-21981132D01*
X12895238Y-21962085D01*
X12895238Y-21943037D01*
X12904762Y-21923990D01*
X12923809Y-21914466D01*
X12971428Y-21914466D01*
X12990476Y-21904942D01*
X13057143Y-21857323D02*
X13133333Y-21857323D01*
X13085714Y-21790656D02*
X13085714Y-21962085D01*
X13095238Y-21981132D01*
X13114286Y-21990656D01*
X13133333Y-21990656D01*
X13276190Y-21981132D02*
X13257143Y-21990656D01*
X13219048Y-21990656D01*
X13200000Y-21981132D01*
X13190476Y-21962085D01*
X13190476Y-21885894D01*
X13200000Y-21866847D01*
X13219048Y-21857323D01*
X13257143Y-21857323D01*
X13276190Y-21866847D01*
X13285714Y-21885894D01*
X13285714Y-21904942D01*
X13190476Y-21923990D01*
X13457143Y-21990656D02*
X13457143Y-21790656D01*
X13457143Y-21981132D02*
X13438095Y-21990656D01*
X13400000Y-21990656D01*
X13380952Y-21981132D01*
X13371428Y-21971609D01*
X13361905Y-21952561D01*
X13361905Y-21895418D01*
X13371428Y-21876370D01*
X13380952Y-21866847D01*
X13400000Y-21857323D01*
X13438095Y-21857323D01*
X13457143Y-21866847D01*
X13533333Y-22066847D02*
X13542857Y-22057323D01*
X13561905Y-22028751D01*
X13571428Y-22009704D01*
X13580952Y-21981132D01*
X13590476Y-21933513D01*
X13590476Y-21895418D01*
X13580952Y-21847799D01*
X13571428Y-21819228D01*
X13561905Y-21800180D01*
X13542857Y-21771609D01*
X13533333Y-21762085D01*
M02*
