%TF.GenerationSoftware,KiCad,Pcbnew,6.0.11-2627ca5db0~126~ubuntu22.04.1*%
%TF.CreationDate,2023-04-02T11:01:56+08:00*%
%TF.ProjectId,explorekb75,6578706c-6f72-4656-9b62-37352e6b6963,rev?*%
%TF.SameCoordinates,Original*%
%TF.FileFunction,Legend,Top*%
%TF.FilePolarity,Positive*%
%FSLAX46Y46*%
G04 Gerber Fmt 4.6, Leading zero omitted, Abs format (unit mm)*
G04 Created by KiCad (PCBNEW 6.0.11-2627ca5db0~126~ubuntu22.04.1) date 2023-04-02 11:01:56*
%MOMM*%
%LPD*%
G01*
G04 APERTURE LIST*
%ADD10C,0.300000*%
%ADD11C,0.120000*%
G04 APERTURE END LIST*
D10*
X76285714Y-66742857D02*
X76785714Y-66742857D01*
X77000000Y-67528571D02*
X76285714Y-67528571D01*
X76285714Y-66028571D01*
X77000000Y-66028571D01*
X77500000Y-66028571D02*
X78500000Y-67528571D01*
X78500000Y-66028571D02*
X77500000Y-67528571D01*
X79071428Y-67528571D02*
X79071428Y-66028571D01*
X79642857Y-66028571D01*
X79785714Y-66100000D01*
X79857142Y-66171428D01*
X79928571Y-66314285D01*
X79928571Y-66528571D01*
X79857142Y-66671428D01*
X79785714Y-66742857D01*
X79642857Y-66814285D01*
X79071428Y-66814285D01*
X81285714Y-67528571D02*
X80571428Y-67528571D01*
X80571428Y-66028571D01*
X82071428Y-66028571D02*
X82357142Y-66028571D01*
X82500000Y-66100000D01*
X82642857Y-66242857D01*
X82714285Y-66528571D01*
X82714285Y-67028571D01*
X82642857Y-67314285D01*
X82500000Y-67457142D01*
X82357142Y-67528571D01*
X82071428Y-67528571D01*
X81928571Y-67457142D01*
X81785714Y-67314285D01*
X81714285Y-67028571D01*
X81714285Y-66528571D01*
X81785714Y-66242857D01*
X81928571Y-66100000D01*
X82071428Y-66028571D01*
X84214285Y-67528571D02*
X83714285Y-66814285D01*
X83357142Y-67528571D02*
X83357142Y-66028571D01*
X83928571Y-66028571D01*
X84071428Y-66100000D01*
X84142857Y-66171428D01*
X84214285Y-66314285D01*
X84214285Y-66528571D01*
X84142857Y-66671428D01*
X84071428Y-66742857D01*
X83928571Y-66814285D01*
X83357142Y-66814285D01*
X84857142Y-66742857D02*
X85357142Y-66742857D01*
X85571428Y-67528571D02*
X84857142Y-67528571D01*
X84857142Y-66028571D01*
X85571428Y-66028571D01*
X88214285Y-67528571D02*
X87714285Y-66814285D01*
X87357142Y-67528571D02*
X87357142Y-66028571D01*
X87928571Y-66028571D01*
X88071428Y-66100000D01*
X88142857Y-66171428D01*
X88214285Y-66314285D01*
X88214285Y-66528571D01*
X88142857Y-66671428D01*
X88071428Y-66742857D01*
X87928571Y-66814285D01*
X87357142Y-66814285D01*
X88857142Y-66742857D02*
X89357142Y-66742857D01*
X89571428Y-67528571D02*
X88857142Y-67528571D01*
X88857142Y-66028571D01*
X89571428Y-66028571D01*
X90000000Y-66028571D02*
X90500000Y-67528571D01*
X91000000Y-66028571D01*
X91357142Y-66028571D02*
X92285714Y-66028571D01*
X91785714Y-66600000D01*
X92000000Y-66600000D01*
X92142857Y-66671428D01*
X92214285Y-66742857D01*
X92285714Y-66885714D01*
X92285714Y-67242857D01*
X92214285Y-67385714D01*
X92142857Y-67457142D01*
X92000000Y-67528571D01*
X91571428Y-67528571D01*
X91428571Y-67457142D01*
X91357142Y-67385714D01*
X367964285Y-166750000D02*
X367892857Y-166678571D01*
X367750000Y-166464285D01*
X367678571Y-166321428D01*
X367607142Y-166107142D01*
X367535714Y-165750000D01*
X367535714Y-165464285D01*
X367607142Y-165107142D01*
X367678571Y-164892857D01*
X367750000Y-164750000D01*
X367892857Y-164535714D01*
X367964285Y-164464285D01*
X369392857Y-166035714D02*
X369321428Y-166107142D01*
X369107142Y-166178571D01*
X368964285Y-166178571D01*
X368750000Y-166107142D01*
X368607142Y-165964285D01*
X368535714Y-165821428D01*
X368464285Y-165535714D01*
X368464285Y-165321428D01*
X368535714Y-165035714D01*
X368607142Y-164892857D01*
X368750000Y-164750000D01*
X368964285Y-164678571D01*
X369107142Y-164678571D01*
X369321428Y-164750000D01*
X369392857Y-164821428D01*
X369892857Y-166750000D02*
X369964285Y-166678571D01*
X370107142Y-166464285D01*
X370178571Y-166321428D01*
X370250000Y-166107142D01*
X370321428Y-165750000D01*
X370321428Y-165464285D01*
X370250000Y-165107142D01*
X370178571Y-164892857D01*
X370107142Y-164750000D01*
X369964285Y-164535714D01*
X369892857Y-164464285D01*
X372107142Y-166107142D02*
X372321428Y-166178571D01*
X372678571Y-166178571D01*
X372821428Y-166107142D01*
X372892857Y-166035714D01*
X372964285Y-165892857D01*
X372964285Y-165750000D01*
X372892857Y-165607142D01*
X372821428Y-165535714D01*
X372678571Y-165464285D01*
X372392857Y-165392857D01*
X372250000Y-165321428D01*
X372178571Y-165250000D01*
X372107142Y-165107142D01*
X372107142Y-164964285D01*
X372178571Y-164821428D01*
X372250000Y-164750000D01*
X372392857Y-164678571D01*
X372750000Y-164678571D01*
X372964285Y-164750000D01*
X374464285Y-166035714D02*
X374392857Y-166107142D01*
X374178571Y-166178571D01*
X374035714Y-166178571D01*
X373821428Y-166107142D01*
X373678571Y-165964285D01*
X373607142Y-165821428D01*
X373535714Y-165535714D01*
X373535714Y-165321428D01*
X373607142Y-165035714D01*
X373678571Y-164892857D01*
X373821428Y-164750000D01*
X374035714Y-164678571D01*
X374178571Y-164678571D01*
X374392857Y-164750000D01*
X374464285Y-164821428D01*
X375392857Y-164678571D02*
X375678571Y-164678571D01*
X375821428Y-164750000D01*
X375964285Y-164892857D01*
X376035714Y-165178571D01*
X376035714Y-165678571D01*
X375964285Y-165964285D01*
X375821428Y-166107142D01*
X375678571Y-166178571D01*
X375392857Y-166178571D01*
X375250000Y-166107142D01*
X375107142Y-165964285D01*
X375035714Y-165678571D01*
X375035714Y-165178571D01*
X375107142Y-164892857D01*
X375250000Y-164750000D01*
X375392857Y-164678571D01*
X376464285Y-164678571D02*
X377321428Y-164678571D01*
X376892857Y-166178571D02*
X376892857Y-164678571D01*
X377607142Y-164678571D02*
X378464285Y-164678571D01*
X378035714Y-166178571D02*
X378035714Y-164678571D01*
X380964285Y-166035714D02*
X380892857Y-166107142D01*
X380678571Y-166178571D01*
X380535714Y-166178571D01*
X380321428Y-166107142D01*
X380178571Y-165964285D01*
X380107142Y-165821428D01*
X380035714Y-165535714D01*
X380035714Y-165321428D01*
X380107142Y-165035714D01*
X380178571Y-164892857D01*
X380321428Y-164750000D01*
X380535714Y-164678571D01*
X380678571Y-164678571D01*
X380892857Y-164750000D01*
X380964285Y-164821428D01*
X382035714Y-164678571D02*
X382035714Y-165750000D01*
X381964285Y-165964285D01*
X381821428Y-166107142D01*
X381607142Y-166178571D01*
X381464285Y-166178571D01*
X382607142Y-164678571D02*
X383607142Y-166178571D01*
X383607142Y-164678571D02*
X382607142Y-166178571D01*
D11*
%TO.C,SW14*%
X330937485Y-77975000D02*
X330937485Y-76975000D01*
X331437485Y-77475000D02*
X330437485Y-77475000D01*
%TO.C,SW15*%
X350487485Y-77475000D02*
X349487485Y-77475000D01*
X349987485Y-77975000D02*
X349987485Y-76975000D01*
%TD*%
M02*
