%TF.GenerationSoftware,KiCad,Pcbnew,6.0.11-2627ca5db0~126~ubuntu22.04.1*%
%TF.CreationDate,2023-04-02T11:01:56+08:00*%
%TF.ProjectId,explorekb75,6578706c-6f72-4656-9b62-37352e6b6963,rev?*%
%TF.SameCoordinates,Original*%
%TF.FileFunction,Soldermask,Bot*%
%TF.FilePolarity,Negative*%
%FSLAX46Y46*%
G04 Gerber Fmt 4.6, Leading zero omitted, Abs format (unit mm)*
G04 Created by KiCad (PCBNEW 6.0.11-2627ca5db0~126~ubuntu22.04.1) date 2023-04-02 11:01:56*
%MOMM*%
%LPD*%
G01*
G04 APERTURE LIST*
G04 Aperture macros list*
%AMRoundRect*
0 Rectangle with rounded corners*
0 $1 Rounding radius*
0 $2 $3 $4 $5 $6 $7 $8 $9 X,Y pos of 4 corners*
0 Add a 4 corners polygon primitive as box body*
4,1,4,$2,$3,$4,$5,$6,$7,$8,$9,$2,$3,0*
0 Add four circle primitives for the rounded corners*
1,1,$1+$1,$2,$3*
1,1,$1+$1,$4,$5*
1,1,$1+$1,$6,$7*
1,1,$1+$1,$8,$9*
0 Add four rect primitives between the rounded corners*
20,1,$1+$1,$2,$3,$4,$5,0*
20,1,$1+$1,$4,$5,$6,$7,0*
20,1,$1+$1,$6,$7,$8,$9,0*
20,1,$1+$1,$8,$9,$2,$3,0*%
G04 Aperture macros list end*
%ADD10C,1.701800*%
%ADD11C,3.000000*%
%ADD12C,3.987800*%
%ADD13R,2.550000X2.500000*%
%ADD14R,2.000000X2.000000*%
%ADD15C,2.000000*%
%ADD16R,3.200000X2.000000*%
%ADD17C,3.200000*%
%ADD18C,3.048000*%
%ADD19R,1.700000X1.700000*%
%ADD20O,1.700000X1.700000*%
%ADD21RoundRect,0.237500X-0.237500X0.300000X-0.237500X-0.300000X0.237500X-0.300000X0.237500X0.300000X0*%
%ADD22RoundRect,0.237500X0.237500X-0.300000X0.237500X0.300000X-0.237500X0.300000X-0.237500X-0.300000X0*%
%ADD23C,1.700000*%
G04 APERTURE END LIST*
D10*
%TO.C,SW6*%
X183617485Y-77475000D03*
D11*
X174727485Y-74935000D03*
D10*
X173457485Y-77475000D03*
D11*
X181077485Y-72395000D03*
D12*
X178537485Y-77475000D03*
D13*
X184827485Y-72395000D03*
X170977485Y-74935000D03*
%TD*%
D11*
%TO.C,SW1*%
X85827485Y-72395000D03*
D12*
X83287485Y-77475000D03*
D10*
X88367485Y-77475000D03*
X78207485Y-77475000D03*
D11*
X79477485Y-74935000D03*
D13*
X89577485Y-72395000D03*
X75727485Y-74935000D03*
%TD*%
D11*
%TO.C,SW54*%
X284164985Y-136847500D03*
D12*
X287974985Y-139387500D03*
D10*
X293054985Y-139387500D03*
D11*
X290514985Y-134307500D03*
D10*
X282894985Y-139387500D03*
D13*
X294264985Y-134307500D03*
X280414985Y-136847500D03*
%TD*%
D12*
%TO.C,SW62*%
X202412485Y-158437500D03*
D10*
X197332485Y-158437500D03*
X207492485Y-158437500D03*
D11*
X204952485Y-153357500D03*
X198602485Y-155897500D03*
D13*
X208702485Y-153357500D03*
X194852485Y-155897500D03*
%TD*%
D12*
%TO.C,SW43*%
X345124985Y-120337500D03*
D11*
X347664985Y-115257500D03*
D10*
X340044985Y-120337500D03*
X350204985Y-120337500D03*
D11*
X341314985Y-117797500D03*
D13*
X351414985Y-115257500D03*
X337564985Y-117797500D03*
%TD*%
D12*
%TO.C,SW74*%
X273849985Y-177487500D03*
D10*
X278929985Y-177487500D03*
D11*
X276389985Y-172407500D03*
D10*
X268769985Y-177487500D03*
D11*
X270039985Y-174947500D03*
D13*
X280139985Y-172407500D03*
X266289985Y-174947500D03*
%TD*%
D12*
%TO.C,SW60*%
X164312485Y-158437500D03*
D10*
X159232485Y-158437500D03*
X169392485Y-158437500D03*
D11*
X166852485Y-153357500D03*
X160502485Y-155897500D03*
D13*
X170602485Y-153357500D03*
X156752485Y-155897500D03*
%TD*%
D14*
%TO.C,SW14*%
X338437485Y-79975000D03*
D15*
X338437485Y-74975000D03*
X338437485Y-77475000D03*
D16*
X330937485Y-83075000D03*
X330937485Y-71875000D03*
D15*
X323937485Y-74975000D03*
X323937485Y-79975000D03*
%TD*%
D11*
%TO.C,SW69*%
X357352485Y-158120000D03*
D10*
X349732485Y-163200000D03*
D12*
X354812485Y-163200000D03*
D11*
X351002485Y-160660000D03*
D10*
X359892485Y-163200000D03*
D13*
X361102485Y-158120000D03*
X347252485Y-160660000D03*
%TD*%
D17*
%TO.C,REF\u002A\u002A*%
X393000000Y-197000000D03*
%TD*%
D11*
%TO.C,SW67*%
X300202485Y-153357500D03*
X293852485Y-155897500D03*
D12*
X297662485Y-158437500D03*
D10*
X292582485Y-158437500D03*
X302742485Y-158437500D03*
D13*
X303952485Y-153357500D03*
X290102485Y-155897500D03*
%TD*%
D10*
%TO.C,SW31*%
X116842485Y-120337500D03*
D11*
X107952485Y-117797500D03*
D10*
X106682485Y-120337500D03*
D11*
X114302485Y-115257500D03*
D12*
X111762485Y-120337500D03*
D13*
X118052485Y-115257500D03*
X104202485Y-117797500D03*
%TD*%
D12*
%TO.C,SW72*%
X133381235Y-177487500D03*
D11*
X135921235Y-172407500D03*
D10*
X138461235Y-177487500D03*
D11*
X129571235Y-174947500D03*
D10*
X128301235Y-177487500D03*
D13*
X139671235Y-172407500D03*
X125821235Y-174947500D03*
%TD*%
D11*
%TO.C,SW53*%
X271464985Y-134307500D03*
X265114985Y-136847500D03*
D10*
X263844985Y-139387500D03*
X274004985Y-139387500D03*
D12*
X268924985Y-139387500D03*
D13*
X275214985Y-134307500D03*
X261364985Y-136847500D03*
%TD*%
D10*
%TO.C,SW34*%
X163832485Y-120337500D03*
D11*
X171452485Y-115257500D03*
D12*
X168912485Y-120337500D03*
D10*
X173992485Y-120337500D03*
D11*
X165102485Y-117797500D03*
D13*
X175202485Y-115257500D03*
X161352485Y-117797500D03*
%TD*%
D10*
%TO.C,SW22*%
X192507485Y-101287500D03*
D12*
X197587485Y-101287500D03*
D11*
X193777485Y-98747500D03*
D10*
X202667485Y-101287500D03*
D11*
X200127485Y-96207500D03*
D13*
X203877485Y-96207500D03*
X190027485Y-98747500D03*
%TD*%
D10*
%TO.C,SW48*%
X168594985Y-139387500D03*
D11*
X176214985Y-134307500D03*
D12*
X173674985Y-139387500D03*
D10*
X178754985Y-139387500D03*
D11*
X169864985Y-136847500D03*
D13*
X179964985Y-134307500D03*
X166114985Y-136847500D03*
%TD*%
D10*
%TO.C,SW4*%
X145517485Y-77475000D03*
D11*
X142977485Y-72395000D03*
D12*
X140437485Y-77475000D03*
D10*
X135357485Y-77475000D03*
D11*
X136627485Y-74935000D03*
D13*
X146727485Y-72395000D03*
X132877485Y-74935000D03*
%TD*%
D10*
%TO.C,SW58*%
X121157485Y-158437500D03*
D11*
X128777485Y-153357500D03*
X122427485Y-155897500D03*
D10*
X131317485Y-158437500D03*
D12*
X126237485Y-158437500D03*
D13*
X132527485Y-153357500D03*
X118677485Y-155897500D03*
%TD*%
D11*
%TO.C,SW36*%
X203202485Y-117797500D03*
D10*
X201932485Y-120337500D03*
X212092485Y-120337500D03*
D11*
X209552485Y-115257500D03*
D12*
X207012485Y-120337500D03*
D13*
X213302485Y-115257500D03*
X199452485Y-117797500D03*
%TD*%
D17*
%TO.C,REF\u002A\u002A*%
X225000000Y-197000000D03*
%TD*%
D12*
%TO.C,STAB1*%
X328562485Y-109542500D03*
D18*
X328562485Y-94302500D03*
X352362485Y-94302500D03*
D12*
X352362485Y-109542500D03*
%TD*%
D10*
%TO.C,SW38*%
X250192485Y-120337500D03*
X240032485Y-120337500D03*
D12*
X245112485Y-120337500D03*
D11*
X241302485Y-117797500D03*
X247652485Y-115257500D03*
D13*
X251402485Y-115257500D03*
X237552485Y-117797500D03*
%TD*%
D11*
%TO.C,SW35*%
X190502485Y-115257500D03*
D10*
X193042485Y-120337500D03*
D12*
X187962485Y-120337500D03*
D11*
X184152485Y-117797500D03*
D10*
X182882485Y-120337500D03*
D13*
X194252485Y-115257500D03*
X180402485Y-117797500D03*
%TD*%
D10*
%TO.C,SW9*%
X240767485Y-77475000D03*
D12*
X235687485Y-77475000D03*
D11*
X231877485Y-74935000D03*
X238227485Y-72395000D03*
D10*
X230607485Y-77475000D03*
D13*
X241977485Y-72395000D03*
X228127485Y-74935000D03*
%TD*%
D12*
%TO.C,SW52*%
X249874985Y-139387500D03*
D11*
X252414985Y-134307500D03*
X246064985Y-136847500D03*
D10*
X254954985Y-139387500D03*
X244794985Y-139387500D03*
D13*
X256164985Y-134307500D03*
X242314985Y-136847500D03*
%TD*%
D12*
%TO.C,STAB2*%
X349881235Y-147642500D03*
D18*
X326081235Y-132402500D03*
X349881235Y-132402500D03*
D12*
X326081235Y-147642500D03*
%TD*%
D11*
%TO.C,SW25*%
X250927485Y-98747500D03*
D10*
X259817485Y-101287500D03*
D11*
X257277485Y-96207500D03*
D12*
X254737485Y-101287500D03*
D10*
X249657485Y-101287500D03*
D13*
X261027485Y-96207500D03*
X247177485Y-98747500D03*
%TD*%
D17*
%TO.C,REF\u002A\u002A*%
X69000000Y-63000000D03*
%TD*%
D11*
%TO.C,SW41*%
X304802485Y-115257500D03*
D12*
X302262485Y-120337500D03*
D10*
X297182485Y-120337500D03*
X307342485Y-120337500D03*
D11*
X298452485Y-117797500D03*
D13*
X308552485Y-115257500D03*
X294702485Y-117797500D03*
%TD*%
D11*
%TO.C,SW56*%
X334171235Y-136847500D03*
X340521235Y-134307500D03*
D10*
X332901235Y-139387500D03*
D12*
X337981235Y-139387500D03*
D10*
X343061235Y-139387500D03*
D13*
X344271235Y-134307500D03*
X330421235Y-136847500D03*
%TD*%
D11*
%TO.C,SW2*%
X104877485Y-72395000D03*
D10*
X107417485Y-77475000D03*
X97257485Y-77475000D03*
D11*
X98527485Y-74935000D03*
D12*
X102337485Y-77475000D03*
D13*
X108627485Y-72395000D03*
X94777485Y-74935000D03*
%TD*%
D11*
%TO.C,SW7*%
X200127485Y-72395000D03*
D10*
X202667485Y-77475000D03*
D11*
X193777485Y-74935000D03*
D10*
X192507485Y-77475000D03*
D12*
X197587485Y-77475000D03*
D13*
X203877485Y-72395000D03*
X190027485Y-74935000D03*
%TD*%
D12*
%TO.C,SW42*%
X321312485Y-120337500D03*
D10*
X316232485Y-120337500D03*
D11*
X323852485Y-115257500D03*
D10*
X326392485Y-120337500D03*
D11*
X317502485Y-117797500D03*
D13*
X327602485Y-115257500D03*
X313752485Y-117797500D03*
%TD*%
D14*
%TO.C,SW15*%
X357487485Y-79975000D03*
D15*
X357487485Y-74975000D03*
X357487485Y-77475000D03*
D16*
X349987485Y-83075000D03*
X349987485Y-71875000D03*
D15*
X342987485Y-74975000D03*
X342987485Y-79975000D03*
%TD*%
D17*
%TO.C,REF\u002A\u002A*%
X237000000Y-197000000D03*
%TD*%
D11*
%TO.C,SW27*%
X295377485Y-96207500D03*
D10*
X297917485Y-101287500D03*
X287757485Y-101287500D03*
D12*
X292837485Y-101287500D03*
D11*
X289027485Y-98747500D03*
D13*
X299127485Y-96207500D03*
X285277485Y-98747500D03*
%TD*%
D10*
%TO.C,SW71*%
X114648735Y-177487500D03*
D12*
X109568735Y-177487500D03*
D11*
X105758735Y-174947500D03*
D10*
X104488735Y-177487500D03*
D11*
X112108735Y-172407500D03*
D13*
X115858735Y-172407500D03*
X102008735Y-174947500D03*
%TD*%
D11*
%TO.C,SW10*%
X250927485Y-74935000D03*
D12*
X254737485Y-77475000D03*
D10*
X249657485Y-77475000D03*
D11*
X257277485Y-72395000D03*
D10*
X259817485Y-77475000D03*
D13*
X261027485Y-72395000D03*
X247177485Y-74935000D03*
%TD*%
D17*
%TO.C,REF\u002A\u002A*%
X393000000Y-63000000D03*
%TD*%
D10*
%TO.C,SW77*%
X330682485Y-182250000D03*
D11*
X338302485Y-177170000D03*
D12*
X335762485Y-182250000D03*
D11*
X331952485Y-179710000D03*
D10*
X340842485Y-182250000D03*
D13*
X342052485Y-177170000D03*
X328202485Y-179710000D03*
%TD*%
D11*
%TO.C,SW17*%
X98527485Y-98747500D03*
X104877485Y-96207500D03*
D12*
X102337485Y-101287500D03*
D10*
X97257485Y-101287500D03*
X107417485Y-101287500D03*
D13*
X108627485Y-96207500D03*
X94777485Y-98747500D03*
%TD*%
D10*
%TO.C,SW20*%
X154407485Y-101287500D03*
X164567485Y-101287500D03*
D12*
X159487485Y-101287500D03*
D11*
X162027485Y-96207500D03*
X155677485Y-98747500D03*
D13*
X165777485Y-96207500D03*
X151927485Y-98747500D03*
%TD*%
D10*
%TO.C,SW73*%
X199713735Y-177487500D03*
D12*
X204793735Y-177487500D03*
D11*
X207333735Y-172407500D03*
X200983735Y-174947500D03*
D10*
X209873735Y-177487500D03*
D13*
X211083735Y-172407500D03*
X197233735Y-174947500D03*
%TD*%
D11*
%TO.C,SW51*%
X233364985Y-134307500D03*
X227014985Y-136847500D03*
D12*
X230824985Y-139387500D03*
D10*
X235904985Y-139387500D03*
X225744985Y-139387500D03*
D13*
X237114985Y-134307500D03*
X223264985Y-136847500D03*
%TD*%
D10*
%TO.C,SW28*%
X306807485Y-101287500D03*
D11*
X308077485Y-98747500D03*
X314427485Y-96207500D03*
D10*
X316967485Y-101287500D03*
D12*
X311887485Y-101287500D03*
D13*
X318177485Y-96207500D03*
X304327485Y-98747500D03*
%TD*%
D10*
%TO.C,SW46*%
X140654985Y-139387500D03*
D11*
X131764985Y-136847500D03*
D12*
X135574985Y-139387500D03*
D11*
X138114985Y-134307500D03*
D10*
X130494985Y-139387500D03*
D13*
X141864985Y-134307500D03*
X128014985Y-136847500D03*
%TD*%
D10*
%TO.C,SW30*%
X93029985Y-120337500D03*
X82869985Y-120337500D03*
D12*
X87949985Y-120337500D03*
D11*
X84139985Y-117797500D03*
X90489985Y-115257500D03*
D13*
X94239985Y-115257500D03*
X80389985Y-117797500D03*
%TD*%
D12*
%TO.C,STAB4*%
X254787485Y-169250000D03*
D18*
X154787485Y-184460000D03*
D12*
X154787485Y-169250000D03*
D18*
X254787485Y-184460000D03*
%TD*%
D11*
%TO.C,SW78*%
X357352485Y-177170000D03*
X351002485Y-179710000D03*
D10*
X359892485Y-182250000D03*
X349732485Y-182250000D03*
D12*
X354812485Y-182250000D03*
D13*
X361102485Y-177170000D03*
X347252485Y-179710000D03*
%TD*%
D12*
%TO.C,SW24*%
X235687485Y-101287500D03*
D11*
X238227485Y-96207500D03*
D10*
X240767485Y-101287500D03*
X230607485Y-101287500D03*
D11*
X231877485Y-98747500D03*
D13*
X241977485Y-96207500D03*
X228127485Y-98747500D03*
%TD*%
D10*
%TO.C,SW64*%
X245592485Y-158437500D03*
D11*
X236702485Y-155897500D03*
D12*
X240512485Y-158437500D03*
D10*
X235432485Y-158437500D03*
D11*
X243052485Y-153357500D03*
D13*
X246802485Y-153357500D03*
X232952485Y-155897500D03*
%TD*%
D12*
%TO.C,SW70*%
X85756235Y-177487500D03*
D10*
X90836235Y-177487500D03*
D11*
X81946235Y-174947500D03*
D10*
X80676235Y-177487500D03*
D11*
X88296235Y-172407500D03*
D13*
X92046235Y-172407500D03*
X78196235Y-174947500D03*
%TD*%
D10*
%TO.C,SW76*%
X317029985Y-177487500D03*
D12*
X311949985Y-177487500D03*
D11*
X308139985Y-174947500D03*
X314489985Y-172407500D03*
D10*
X306869985Y-177487500D03*
D13*
X318239985Y-172407500D03*
X304389985Y-174947500D03*
%TD*%
D10*
%TO.C,SW11*%
X278867485Y-77475000D03*
D12*
X273787485Y-77475000D03*
D11*
X269977485Y-74935000D03*
D10*
X268707485Y-77475000D03*
D11*
X276327485Y-72395000D03*
D13*
X280077485Y-72395000D03*
X266227485Y-74935000D03*
%TD*%
D10*
%TO.C,SW49*%
X197804985Y-139387500D03*
X187644985Y-139387500D03*
D11*
X188914985Y-136847500D03*
D12*
X192724985Y-139387500D03*
D11*
X195264985Y-134307500D03*
D13*
X199014985Y-134307500D03*
X185164985Y-136847500D03*
%TD*%
D10*
%TO.C,SW79*%
X368782485Y-182250000D03*
X378942485Y-182250000D03*
D11*
X370052485Y-179710000D03*
D12*
X373862485Y-182250000D03*
D11*
X376402485Y-177170000D03*
D13*
X380152485Y-177170000D03*
X366302485Y-179710000D03*
%TD*%
D10*
%TO.C,SW18*%
X116307485Y-101287500D03*
D12*
X121387485Y-101287500D03*
D11*
X123927485Y-96207500D03*
X117577485Y-98747500D03*
D10*
X126467485Y-101287500D03*
D13*
X127677485Y-96207500D03*
X113827485Y-98747500D03*
%TD*%
D10*
%TO.C,SW33*%
X144782485Y-120337500D03*
X154942485Y-120337500D03*
D11*
X146052485Y-117797500D03*
D12*
X149862485Y-120337500D03*
D11*
X152402485Y-115257500D03*
D13*
X156152485Y-115257500D03*
X142302485Y-117797500D03*
%TD*%
D10*
%TO.C,SW68*%
X318901235Y-158437500D03*
D11*
X326521235Y-153357500D03*
D10*
X329061235Y-158437500D03*
D12*
X323981235Y-158437500D03*
D11*
X320171235Y-155897500D03*
D13*
X330271235Y-153357500D03*
X316421235Y-155897500D03*
%TD*%
D10*
%TO.C,SW47*%
X159704985Y-139387500D03*
X149544985Y-139387500D03*
D11*
X150814985Y-136847500D03*
D12*
X154624985Y-139387500D03*
D11*
X157164985Y-134307500D03*
D13*
X160914985Y-134307500D03*
X147064985Y-136847500D03*
%TD*%
D17*
%TO.C,REF\u002A\u002A*%
X69000000Y-197000000D03*
%TD*%
D12*
%TO.C,SW50*%
X211774985Y-139387500D03*
D10*
X206694985Y-139387500D03*
D11*
X214314985Y-134307500D03*
X207964985Y-136847500D03*
D10*
X216854985Y-139387500D03*
D13*
X218064985Y-134307500D03*
X204214985Y-136847500D03*
%TD*%
D10*
%TO.C,SW32*%
X135892485Y-120337500D03*
D11*
X127002485Y-117797500D03*
D10*
X125732485Y-120337500D03*
D11*
X133352485Y-115257500D03*
D12*
X130812485Y-120337500D03*
D13*
X137102485Y-115257500D03*
X123252485Y-117797500D03*
%TD*%
D10*
%TO.C,SW57*%
X90201235Y-158437500D03*
D11*
X91471235Y-155897500D03*
X97821235Y-153357500D03*
D12*
X95281235Y-158437500D03*
D10*
X100361235Y-158437500D03*
D13*
X101571235Y-153357500D03*
X87721235Y-155897500D03*
%TD*%
D11*
%TO.C,SW26*%
X269977485Y-98747500D03*
D12*
X273787485Y-101287500D03*
D10*
X278867485Y-101287500D03*
D11*
X276327485Y-96207500D03*
D10*
X268707485Y-101287500D03*
D13*
X280077485Y-96207500D03*
X266227485Y-98747500D03*
%TD*%
D10*
%TO.C,SW21*%
X183617485Y-101287500D03*
D11*
X174727485Y-98747500D03*
X181077485Y-96207500D03*
D10*
X173457485Y-101287500D03*
D12*
X178537485Y-101287500D03*
D13*
X184827485Y-96207500D03*
X170977485Y-98747500D03*
%TD*%
D18*
%TO.C,STAB3*%
X83381235Y-151452500D03*
D12*
X83381235Y-166692500D03*
X107181235Y-166692500D03*
D18*
X107181235Y-151452500D03*
%TD*%
D11*
%TO.C,SW23*%
X212827485Y-98747500D03*
D10*
X211557485Y-101287500D03*
D12*
X216637485Y-101287500D03*
D11*
X219177485Y-96207500D03*
D10*
X221717485Y-101287500D03*
D13*
X222927485Y-96207500D03*
X209077485Y-98747500D03*
%TD*%
D17*
%TO.C,REF\u002A\u002A*%
X225000002Y-63000000D03*
%TD*%
D12*
%TO.C,SW44*%
X90331235Y-139387500D03*
D10*
X85251235Y-139387500D03*
D11*
X92871235Y-134307500D03*
D10*
X95411235Y-139387500D03*
D11*
X86521235Y-136847500D03*
D13*
X96621235Y-134307500D03*
X82771235Y-136847500D03*
%TD*%
D11*
%TO.C,SW19*%
X136627485Y-98747500D03*
D10*
X145517485Y-101287500D03*
D11*
X142977485Y-96207500D03*
D10*
X135357485Y-101287500D03*
D12*
X140437485Y-101287500D03*
D13*
X146727485Y-96207500D03*
X132877485Y-98747500D03*
%TD*%
D11*
%TO.C,SW40*%
X285752485Y-115257500D03*
D10*
X288292485Y-120337500D03*
X278132485Y-120337500D03*
D11*
X279402485Y-117797500D03*
D12*
X283212485Y-120337500D03*
D13*
X289502485Y-115257500D03*
X275652485Y-117797500D03*
%TD*%
D11*
%TO.C,SW12*%
X295377485Y-72395000D03*
X289027485Y-74935000D03*
D10*
X287757485Y-77475000D03*
X297917485Y-77475000D03*
D12*
X292837485Y-77475000D03*
D13*
X299127485Y-72395000D03*
X285277485Y-74935000D03*
%TD*%
D11*
%TO.C,SW65*%
X262102485Y-153357500D03*
D10*
X254482485Y-158437500D03*
X264642485Y-158437500D03*
D11*
X255752485Y-155897500D03*
D12*
X259562485Y-158437500D03*
D13*
X265852485Y-153357500D03*
X252002485Y-155897500D03*
%TD*%
D12*
%TO.C,SW16*%
X83287485Y-101287500D03*
D10*
X88367485Y-101287500D03*
D11*
X79477485Y-98747500D03*
D10*
X78207485Y-101287500D03*
D11*
X85827485Y-96207500D03*
D13*
X89577485Y-96207500D03*
X75727485Y-98747500D03*
%TD*%
D11*
%TO.C,SW45*%
X119064985Y-134307500D03*
D10*
X121604985Y-139387500D03*
D11*
X112714985Y-136847500D03*
D10*
X111444985Y-139387500D03*
D12*
X116524985Y-139387500D03*
D13*
X122814985Y-134307500D03*
X108964985Y-136847500D03*
%TD*%
D11*
%TO.C,SW37*%
X222252485Y-117797500D03*
D10*
X231142485Y-120337500D03*
D12*
X226062485Y-120337500D03*
D11*
X228602485Y-115257500D03*
D10*
X220982485Y-120337500D03*
D13*
X232352485Y-115257500D03*
X218502485Y-117797500D03*
%TD*%
D10*
%TO.C,SW5*%
X154407485Y-77475000D03*
D12*
X159487485Y-77475000D03*
D10*
X164567485Y-77475000D03*
D11*
X162027485Y-72395000D03*
X155677485Y-74935000D03*
D13*
X165777485Y-72395000D03*
X151927485Y-74935000D03*
%TD*%
D11*
%TO.C,SW59*%
X147802485Y-153357500D03*
D10*
X140182485Y-158437500D03*
D11*
X141452485Y-155897500D03*
D12*
X145262485Y-158437500D03*
D10*
X150342485Y-158437500D03*
D13*
X151552485Y-153357500D03*
X137702485Y-155897500D03*
%TD*%
D12*
%TO.C,SW75*%
X292899985Y-177487500D03*
D10*
X287819985Y-177487500D03*
D11*
X295439985Y-172407500D03*
D10*
X297979985Y-177487500D03*
D11*
X289089985Y-174947500D03*
D13*
X299189985Y-172407500D03*
X285339985Y-174947500D03*
%TD*%
D11*
%TO.C,SW39*%
X266702485Y-115257500D03*
D12*
X264162485Y-120337500D03*
D11*
X260352485Y-117797500D03*
D10*
X269242485Y-120337500D03*
X259082485Y-120337500D03*
D13*
X270452485Y-115257500D03*
X256602485Y-117797500D03*
%TD*%
D19*
%TO.C,U2*%
X371000000Y-127500000D03*
D20*
X373540000Y-127500000D03*
X376080000Y-127500000D03*
X378620000Y-127500000D03*
%TD*%
D11*
%TO.C,SW55*%
X303214985Y-136847500D03*
D12*
X307024985Y-139387500D03*
D10*
X301944985Y-139387500D03*
X312104985Y-139387500D03*
D11*
X309564985Y-134307500D03*
D13*
X313314985Y-134307500D03*
X299464985Y-136847500D03*
%TD*%
D10*
%TO.C,SW63*%
X226542485Y-158437500D03*
D12*
X221462485Y-158437500D03*
D11*
X217652485Y-155897500D03*
D10*
X216382485Y-158437500D03*
D11*
X224002485Y-153357500D03*
D13*
X227752485Y-153357500D03*
X213902485Y-155897500D03*
%TD*%
D11*
%TO.C,SW66*%
X274802485Y-155897500D03*
X281152485Y-153357500D03*
D10*
X273532485Y-158437500D03*
X283692485Y-158437500D03*
D12*
X278612485Y-158437500D03*
D13*
X284902485Y-153357500D03*
X271052485Y-155897500D03*
%TD*%
D17*
%TO.C,REF\u002A\u002A*%
X237000003Y-63000000D03*
%TD*%
D12*
%TO.C,SW61*%
X183362485Y-158437500D03*
D11*
X185902485Y-153357500D03*
X179552485Y-155897500D03*
D10*
X178282485Y-158437500D03*
X188442485Y-158437500D03*
D13*
X189652485Y-153357500D03*
X175802485Y-155897500D03*
%TD*%
D10*
%TO.C,SW3*%
X126467485Y-77475000D03*
D11*
X117577485Y-74935000D03*
D12*
X121387485Y-77475000D03*
D10*
X116307485Y-77475000D03*
D11*
X123927485Y-72395000D03*
D13*
X127677485Y-72395000D03*
X113827485Y-74935000D03*
%TD*%
D10*
%TO.C,SW8*%
X211557485Y-77475000D03*
X221717485Y-77475000D03*
D12*
X216637485Y-77475000D03*
D11*
X219177485Y-72395000D03*
X212827485Y-74935000D03*
D13*
X222927485Y-72395000D03*
X209077485Y-74935000D03*
%TD*%
D10*
%TO.C,SW29*%
X345542485Y-101287500D03*
X335382485Y-101287500D03*
D11*
X343002485Y-96207500D03*
X336652485Y-98747500D03*
D12*
X340462485Y-101287500D03*
D13*
X346752485Y-96207500D03*
X332902485Y-98747500D03*
%TD*%
D11*
%TO.C,SW13*%
X314427485Y-72395000D03*
X308077485Y-74935000D03*
D10*
X316967485Y-77475000D03*
X306807485Y-77475000D03*
D12*
X311887485Y-77475000D03*
D13*
X318177485Y-72395000D03*
X304327485Y-74935000D03*
%TD*%
D21*
%TO.C,C2*%
X358000000Y-88637500D03*
X358000000Y-90362500D03*
%TD*%
D22*
%TO.C,C4*%
X361000000Y-80112500D03*
X361000000Y-78387500D03*
%TD*%
%TO.C,R1*%
X371000000Y-132862500D03*
X371000000Y-131137500D03*
%TD*%
D21*
%TO.C,C1*%
X361000000Y-88637500D03*
X361000000Y-90362500D03*
%TD*%
D22*
%TO.C,R2*%
X373510000Y-132862500D03*
X373510000Y-131137500D03*
%TD*%
%TO.C,C3*%
X361000000Y-74862500D03*
X361000000Y-73137500D03*
%TD*%
D19*
%TO.C,U1*%
X382245000Y-72445000D03*
D23*
X382245000Y-74985000D03*
X382245000Y-77525000D03*
X382245000Y-80065000D03*
X382245000Y-82605000D03*
X382245000Y-85145000D03*
X382245000Y-87685000D03*
X382245000Y-90225000D03*
X382245000Y-92765000D03*
X382245000Y-95305000D03*
X382245000Y-97845000D03*
X382245000Y-100385000D03*
X382245000Y-102925000D03*
X382245000Y-105465000D03*
X382245000Y-108005000D03*
X382245000Y-110545000D03*
X382245000Y-113085000D03*
X382245000Y-115625000D03*
X382245000Y-118165000D03*
X382245000Y-120705000D03*
X367005000Y-120705000D03*
X367005000Y-118165000D03*
X367005000Y-115625000D03*
X367005000Y-113085000D03*
X367005000Y-110545000D03*
X367005000Y-108005000D03*
X367005000Y-105465000D03*
X367005000Y-102925000D03*
X367005000Y-100385000D03*
X367005000Y-97845000D03*
X367005000Y-95305000D03*
X367005000Y-92765000D03*
X367005000Y-90225000D03*
X367005000Y-87685000D03*
X367005000Y-85145000D03*
X367005000Y-82605000D03*
X367005000Y-80065000D03*
X367005000Y-77525000D03*
X367005000Y-74985000D03*
X367005000Y-72445000D03*
%TD*%
M02*
