%TF.GenerationSoftware,KiCad,Pcbnew,6.0.11-2627ca5db0~126~ubuntu22.04.1*%
%TF.CreationDate,2023-04-02T11:01:56+08:00*%
%TF.ProjectId,explorekb75,6578706c-6f72-4656-9b62-37352e6b6963,rev?*%
%TF.SameCoordinates,Original*%
%TF.FileFunction,Paste,Bot*%
%TF.FilePolarity,Positive*%
%FSLAX46Y46*%
G04 Gerber Fmt 4.6, Leading zero omitted, Abs format (unit mm)*
G04 Created by KiCad (PCBNEW 6.0.11-2627ca5db0~126~ubuntu22.04.1) date 2023-04-02 11:01:56*
%MOMM*%
%LPD*%
G01*
G04 APERTURE LIST*
G04 Aperture macros list*
%AMRoundRect*
0 Rectangle with rounded corners*
0 $1 Rounding radius*
0 $2 $3 $4 $5 $6 $7 $8 $9 X,Y pos of 4 corners*
0 Add a 4 corners polygon primitive as box body*
4,1,4,$2,$3,$4,$5,$6,$7,$8,$9,$2,$3,0*
0 Add four circle primitives for the rounded corners*
1,1,$1+$1,$2,$3*
1,1,$1+$1,$4,$5*
1,1,$1+$1,$6,$7*
1,1,$1+$1,$8,$9*
0 Add four rect primitives between the rounded corners*
20,1,$1+$1,$2,$3,$4,$5,0*
20,1,$1+$1,$4,$5,$6,$7,0*
20,1,$1+$1,$6,$7,$8,$9,0*
20,1,$1+$1,$8,$9,$2,$3,0*%
G04 Aperture macros list end*
%ADD10R,2.550000X2.500000*%
%ADD11RoundRect,0.237500X-0.237500X0.300000X-0.237500X-0.300000X0.237500X-0.300000X0.237500X0.300000X0*%
%ADD12RoundRect,0.237500X0.237500X-0.300000X0.237500X0.300000X-0.237500X0.300000X-0.237500X-0.300000X0*%
G04 APERTURE END LIST*
D10*
%TO.C,SW6*%
X184827485Y-72395000D03*
X170977485Y-74935000D03*
%TD*%
%TO.C,SW1*%
X89577485Y-72395000D03*
X75727485Y-74935000D03*
%TD*%
%TO.C,SW54*%
X294264985Y-134307500D03*
X280414985Y-136847500D03*
%TD*%
%TO.C,SW62*%
X208702485Y-153357500D03*
X194852485Y-155897500D03*
%TD*%
%TO.C,SW43*%
X351414985Y-115257500D03*
X337564985Y-117797500D03*
%TD*%
%TO.C,SW74*%
X280139985Y-172407500D03*
X266289985Y-174947500D03*
%TD*%
%TO.C,SW60*%
X170602485Y-153357500D03*
X156752485Y-155897500D03*
%TD*%
%TO.C,SW69*%
X361102485Y-158120000D03*
X347252485Y-160660000D03*
%TD*%
%TO.C,SW67*%
X303952485Y-153357500D03*
X290102485Y-155897500D03*
%TD*%
%TO.C,SW31*%
X118052485Y-115257500D03*
X104202485Y-117797500D03*
%TD*%
%TO.C,SW72*%
X139671235Y-172407500D03*
X125821235Y-174947500D03*
%TD*%
%TO.C,SW53*%
X275214985Y-134307500D03*
X261364985Y-136847500D03*
%TD*%
%TO.C,SW34*%
X175202485Y-115257500D03*
X161352485Y-117797500D03*
%TD*%
%TO.C,SW22*%
X203877485Y-96207500D03*
X190027485Y-98747500D03*
%TD*%
%TO.C,SW48*%
X179964985Y-134307500D03*
X166114985Y-136847500D03*
%TD*%
%TO.C,SW4*%
X146727485Y-72395000D03*
X132877485Y-74935000D03*
%TD*%
%TO.C,SW58*%
X132527485Y-153357500D03*
X118677485Y-155897500D03*
%TD*%
%TO.C,SW36*%
X213302485Y-115257500D03*
X199452485Y-117797500D03*
%TD*%
%TO.C,SW38*%
X251402485Y-115257500D03*
X237552485Y-117797500D03*
%TD*%
%TO.C,SW35*%
X194252485Y-115257500D03*
X180402485Y-117797500D03*
%TD*%
%TO.C,SW9*%
X241977485Y-72395000D03*
X228127485Y-74935000D03*
%TD*%
%TO.C,SW52*%
X256164985Y-134307500D03*
X242314985Y-136847500D03*
%TD*%
%TO.C,SW25*%
X261027485Y-96207500D03*
X247177485Y-98747500D03*
%TD*%
%TO.C,SW41*%
X308552485Y-115257500D03*
X294702485Y-117797500D03*
%TD*%
%TO.C,SW56*%
X344271235Y-134307500D03*
X330421235Y-136847500D03*
%TD*%
%TO.C,SW2*%
X108627485Y-72395000D03*
X94777485Y-74935000D03*
%TD*%
%TO.C,SW7*%
X203877485Y-72395000D03*
X190027485Y-74935000D03*
%TD*%
%TO.C,SW42*%
X327602485Y-115257500D03*
X313752485Y-117797500D03*
%TD*%
%TO.C,SW27*%
X299127485Y-96207500D03*
X285277485Y-98747500D03*
%TD*%
%TO.C,SW71*%
X115858735Y-172407500D03*
X102008735Y-174947500D03*
%TD*%
%TO.C,SW10*%
X261027485Y-72395000D03*
X247177485Y-74935000D03*
%TD*%
%TO.C,SW77*%
X342052485Y-177170000D03*
X328202485Y-179710000D03*
%TD*%
%TO.C,SW17*%
X108627485Y-96207500D03*
X94777485Y-98747500D03*
%TD*%
%TO.C,SW20*%
X165777485Y-96207500D03*
X151927485Y-98747500D03*
%TD*%
%TO.C,SW73*%
X211083735Y-172407500D03*
X197233735Y-174947500D03*
%TD*%
%TO.C,SW51*%
X237114985Y-134307500D03*
X223264985Y-136847500D03*
%TD*%
%TO.C,SW28*%
X318177485Y-96207500D03*
X304327485Y-98747500D03*
%TD*%
%TO.C,SW46*%
X141864985Y-134307500D03*
X128014985Y-136847500D03*
%TD*%
%TO.C,SW30*%
X94239985Y-115257500D03*
X80389985Y-117797500D03*
%TD*%
%TO.C,SW78*%
X361102485Y-177170000D03*
X347252485Y-179710000D03*
%TD*%
%TO.C,SW24*%
X241977485Y-96207500D03*
X228127485Y-98747500D03*
%TD*%
%TO.C,SW64*%
X246802485Y-153357500D03*
X232952485Y-155897500D03*
%TD*%
%TO.C,SW70*%
X92046235Y-172407500D03*
X78196235Y-174947500D03*
%TD*%
%TO.C,SW76*%
X318239985Y-172407500D03*
X304389985Y-174947500D03*
%TD*%
%TO.C,SW11*%
X280077485Y-72395000D03*
X266227485Y-74935000D03*
%TD*%
%TO.C,SW49*%
X199014985Y-134307500D03*
X185164985Y-136847500D03*
%TD*%
%TO.C,SW79*%
X380152485Y-177170000D03*
X366302485Y-179710000D03*
%TD*%
%TO.C,SW18*%
X127677485Y-96207500D03*
X113827485Y-98747500D03*
%TD*%
%TO.C,SW33*%
X156152485Y-115257500D03*
X142302485Y-117797500D03*
%TD*%
%TO.C,SW68*%
X330271235Y-153357500D03*
X316421235Y-155897500D03*
%TD*%
%TO.C,SW47*%
X160914985Y-134307500D03*
X147064985Y-136847500D03*
%TD*%
%TO.C,SW50*%
X218064985Y-134307500D03*
X204214985Y-136847500D03*
%TD*%
%TO.C,SW32*%
X137102485Y-115257500D03*
X123252485Y-117797500D03*
%TD*%
%TO.C,SW57*%
X101571235Y-153357500D03*
X87721235Y-155897500D03*
%TD*%
%TO.C,SW26*%
X280077485Y-96207500D03*
X266227485Y-98747500D03*
%TD*%
%TO.C,SW21*%
X184827485Y-96207500D03*
X170977485Y-98747500D03*
%TD*%
%TO.C,SW23*%
X222927485Y-96207500D03*
X209077485Y-98747500D03*
%TD*%
%TO.C,SW44*%
X96621235Y-134307500D03*
X82771235Y-136847500D03*
%TD*%
%TO.C,SW19*%
X146727485Y-96207500D03*
X132877485Y-98747500D03*
%TD*%
%TO.C,SW40*%
X289502485Y-115257500D03*
X275652485Y-117797500D03*
%TD*%
%TO.C,SW12*%
X299127485Y-72395000D03*
X285277485Y-74935000D03*
%TD*%
%TO.C,SW65*%
X265852485Y-153357500D03*
X252002485Y-155897500D03*
%TD*%
%TO.C,SW16*%
X89577485Y-96207500D03*
X75727485Y-98747500D03*
%TD*%
%TO.C,SW45*%
X122814985Y-134307500D03*
X108964985Y-136847500D03*
%TD*%
%TO.C,SW37*%
X232352485Y-115257500D03*
X218502485Y-117797500D03*
%TD*%
%TO.C,SW5*%
X165777485Y-72395000D03*
X151927485Y-74935000D03*
%TD*%
%TO.C,SW59*%
X151552485Y-153357500D03*
X137702485Y-155897500D03*
%TD*%
%TO.C,SW75*%
X299189985Y-172407500D03*
X285339985Y-174947500D03*
%TD*%
%TO.C,SW39*%
X270452485Y-115257500D03*
X256602485Y-117797500D03*
%TD*%
%TO.C,SW55*%
X313314985Y-134307500D03*
X299464985Y-136847500D03*
%TD*%
%TO.C,SW63*%
X227752485Y-153357500D03*
X213902485Y-155897500D03*
%TD*%
%TO.C,SW66*%
X284902485Y-153357500D03*
X271052485Y-155897500D03*
%TD*%
%TO.C,SW61*%
X189652485Y-153357500D03*
X175802485Y-155897500D03*
%TD*%
%TO.C,SW3*%
X127677485Y-72395000D03*
X113827485Y-74935000D03*
%TD*%
%TO.C,SW8*%
X222927485Y-72395000D03*
X209077485Y-74935000D03*
%TD*%
%TO.C,SW29*%
X346752485Y-96207500D03*
X332902485Y-98747500D03*
%TD*%
%TO.C,SW13*%
X318177485Y-72395000D03*
X304327485Y-74935000D03*
%TD*%
D11*
%TO.C,C2*%
X358000000Y-88637500D03*
X358000000Y-90362500D03*
%TD*%
D12*
%TO.C,C4*%
X361000000Y-80112500D03*
X361000000Y-78387500D03*
%TD*%
%TO.C,R1*%
X371000000Y-132862500D03*
X371000000Y-131137500D03*
%TD*%
D11*
%TO.C,C1*%
X361000000Y-88637500D03*
X361000000Y-90362500D03*
%TD*%
D12*
%TO.C,R2*%
X373510000Y-132862500D03*
X373510000Y-131137500D03*
%TD*%
%TO.C,C3*%
X361000000Y-74862500D03*
X361000000Y-73137500D03*
%TD*%
M02*
