%TF.GenerationSoftware,KiCad,Pcbnew,6.0.11-2627ca5db0~126~ubuntu22.04.1*%
%TF.CreationDate,2023-04-02T11:01:56+08:00*%
%TF.ProjectId,explorekb75,6578706c-6f72-4656-9b62-37352e6b6963,rev?*%
%TF.SameCoordinates,Original*%
%TF.FileFunction,Paste,Top*%
%TF.FilePolarity,Positive*%
%FSLAX46Y46*%
G04 Gerber Fmt 4.6, Leading zero omitted, Abs format (unit mm)*
G04 Created by KiCad (PCBNEW 6.0.11-2627ca5db0~126~ubuntu22.04.1) date 2023-04-02 11:01:56*
%MOMM*%
%LPD*%
G01*
G04 APERTURE LIST*
G04 Aperture macros list*
%AMRoundRect*
0 Rectangle with rounded corners*
0 $1 Rounding radius*
0 $2 $3 $4 $5 $6 $7 $8 $9 X,Y pos of 4 corners*
0 Add a 4 corners polygon primitive as box body*
4,1,4,$2,$3,$4,$5,$6,$7,$8,$9,$2,$3,0*
0 Add four circle primitives for the rounded corners*
1,1,$1+$1,$2,$3*
1,1,$1+$1,$4,$5*
1,1,$1+$1,$6,$7*
1,1,$1+$1,$8,$9*
0 Add four rect primitives between the rounded corners*
20,1,$1+$1,$2,$3,$4,$5,0*
20,1,$1+$1,$4,$5,$6,$7,0*
20,1,$1+$1,$6,$7,$8,$9,0*
20,1,$1+$1,$8,$9,$2,$3,0*%
G04 Aperture macros list end*
%ADD10RoundRect,0.150000X-0.150000X0.587500X-0.150000X-0.587500X0.150000X-0.587500X0.150000X0.587500X0*%
%ADD11RoundRect,0.150000X0.150000X-0.587500X0.150000X0.587500X-0.150000X0.587500X-0.150000X-0.587500X0*%
G04 APERTURE END LIST*
D10*
%TO.C,D27*%
X298524985Y-142950000D03*
X296624985Y-142950000D03*
X297574985Y-144825000D03*
%TD*%
%TO.C,D24*%
X184224985Y-142950000D03*
X182324985Y-142950000D03*
X183274985Y-144825000D03*
%TD*%
%TO.C,D8*%
X93737485Y-104850000D03*
X91837485Y-104850000D03*
X92787485Y-106725000D03*
%TD*%
%TO.C,D29*%
X117549985Y-162000000D03*
X115649985Y-162000000D03*
X116599985Y-163875000D03*
%TD*%
%TO.C,D30*%
X155649985Y-162000000D03*
X153749985Y-162000000D03*
X154699985Y-163875000D03*
%TD*%
%TO.C,D3*%
X169937485Y-81037500D03*
X168037485Y-81037500D03*
X168987485Y-82912500D03*
%TD*%
%TO.C,D28*%
X319956235Y-142950000D03*
X318056235Y-142950000D03*
X319006235Y-144825000D03*
%TD*%
%TO.C,D35*%
X342624985Y-162000000D03*
X340724985Y-162000000D03*
X341674985Y-163875000D03*
%TD*%
%TO.C,D2*%
X131837485Y-81037500D03*
X129937485Y-81037500D03*
X130887485Y-82912500D03*
%TD*%
%TO.C,D32*%
X231849985Y-162000000D03*
X229949985Y-162000000D03*
X230899985Y-163875000D03*
%TD*%
%TO.C,D20*%
X293762485Y-123900000D03*
X291862485Y-123900000D03*
X292812485Y-125775000D03*
%TD*%
%TO.C,D6*%
X284237485Y-81037500D03*
X282337485Y-81037500D03*
X283287485Y-82912500D03*
%TD*%
%TO.C,D9*%
X131837485Y-104850000D03*
X129937485Y-104850000D03*
X130887485Y-106725000D03*
%TD*%
%TO.C,D12*%
X246137485Y-104850000D03*
X244237485Y-104850000D03*
X245187485Y-106725000D03*
%TD*%
%TO.C,D13*%
X284237485Y-104850000D03*
X282337485Y-104850000D03*
X283287485Y-106725000D03*
%TD*%
%TO.C,D15*%
X103262485Y-123900000D03*
X101362485Y-123900000D03*
X102312485Y-125775000D03*
%TD*%
%TO.C,D37*%
X143743735Y-181050000D03*
X141843735Y-181050000D03*
X142793735Y-182925000D03*
%TD*%
%TO.C,D17*%
X179462485Y-123900000D03*
X177562485Y-123900000D03*
X178512485Y-125775000D03*
%TD*%
%TO.C,D36*%
X100881235Y-181050000D03*
X98981235Y-181050000D03*
X99931235Y-182925000D03*
%TD*%
%TO.C,D5*%
X246137485Y-81037500D03*
X244237485Y-81037500D03*
X245187485Y-82912500D03*
%TD*%
%TO.C,D31*%
X193749985Y-162000000D03*
X191849985Y-162000000D03*
X192799985Y-163875000D03*
%TD*%
%TO.C,D4*%
X208037485Y-81037500D03*
X206137485Y-81037500D03*
X207087485Y-82912500D03*
%TD*%
%TO.C,D10*%
X169937485Y-104850000D03*
X168037485Y-104850000D03*
X168987485Y-106725000D03*
%TD*%
%TO.C,D7*%
X322337485Y-83062500D03*
X320437485Y-83062500D03*
X321387485Y-84937500D03*
%TD*%
%TO.C,D38*%
X284237485Y-181050000D03*
X282337485Y-181050000D03*
X283287485Y-182925000D03*
%TD*%
%TO.C,D16*%
X141362485Y-123900000D03*
X139462485Y-123900000D03*
X140412485Y-125775000D03*
%TD*%
%TO.C,D11*%
X208037485Y-104850000D03*
X206137485Y-104850000D03*
X207087485Y-106725000D03*
%TD*%
%TO.C,D33*%
X269949985Y-162000000D03*
X268049985Y-162000000D03*
X268999985Y-163875000D03*
%TD*%
%TO.C,D22*%
X108024985Y-142950000D03*
X106124985Y-142950000D03*
X107074985Y-144825000D03*
%TD*%
%TO.C,D34*%
X308049985Y-162000000D03*
X306149985Y-162000000D03*
X307099985Y-163875000D03*
%TD*%
%TO.C,D14*%
X322337485Y-104850000D03*
X320437485Y-104850000D03*
X321387485Y-106725000D03*
%TD*%
%TO.C,D21*%
X331862485Y-123900000D03*
X329962485Y-123900000D03*
X330912485Y-125775000D03*
%TD*%
%TO.C,D25*%
X222324985Y-142950000D03*
X220424985Y-142950000D03*
X221374985Y-144825000D03*
%TD*%
%TO.C,D26*%
X260424985Y-142950000D03*
X258524985Y-142950000D03*
X259474985Y-144825000D03*
%TD*%
%TO.C,D23*%
X146124985Y-142950000D03*
X144224985Y-142950000D03*
X145174985Y-144825000D03*
%TD*%
%TO.C,D39*%
X322337485Y-181050000D03*
X320437485Y-181050000D03*
X321387485Y-182925000D03*
%TD*%
%TO.C,D18*%
X217562485Y-123900000D03*
X215662485Y-123900000D03*
X216612485Y-125775000D03*
%TD*%
%TO.C,D19*%
X255662485Y-123900000D03*
X253762485Y-123900000D03*
X254712485Y-125775000D03*
%TD*%
%TO.C,D1*%
X93737485Y-81037500D03*
X91837485Y-81037500D03*
X92787485Y-82912500D03*
%TD*%
D11*
%TO.C,D40*%
X320437485Y-186925000D03*
X322337485Y-186925000D03*
X321387485Y-185050000D03*
%TD*%
M02*
