0
SECTION
2
HEADER
9
$INSUNITS
70
4
9
$ACADVER
1
AC1014
9
$HANDSEED
5
FFFF
0
ENDSEC
0
SECTION
2
TABLES
0
TABLE
2
VPORT
5
8
100
AcDbSymbolTable
0
ENDTAB
0
TABLE
2
LTYPE
5
5
100
AcDbSymbolTable
0
LTYPE
5
14
100
AcDbSymbolTableRecord
100
AcDbLinetypeTableRecord
2
BYBLOCK
70
0
0
LTYPE
5
15
100
AcDbSymbolTableRecord
100
AcDbLinetypeTableRecord
2
BYLAYER
70
0
0
ENDTAB
0
TABLE
2
LAYER
5
2
100
AcDbSymbolTable
70
2
0
LAYER
5
50
100
AcDbSymbolTableRecord
100
AcDbLayerTableRecord
2
0
70
0
6
CONTINUOUS
0
ENDTAB
0
TABLE
2
STYLE
5
3
100
AcDbSymbolTable
70
1
0
STYLE
5
11
100
AcDbSymbolTableRecord
100
AcDbTextStyleTableRecord
2
STANDARD
70
0
0
ENDTAB
0
TABLE
2
VIEW
5
6
100
AcDbSymbolTable
70
0
0
ENDTAB
0
TABLE
2
UCS
5
7
100
AcDbSymbolTable
70
0
0
ENDTAB
0
TABLE
2
APPID
5
9
100
AcDbSymbolTable
70
2
0
APPID
5
12
100
AcDbSymbolTableRecord
100
AcDbRegAppTableRecord
2
ACAD
70
0
0
ENDTAB
0
TABLE
2
DIMSTYLE
5
A
100
AcDbSymbolTable
70
1
0
ENDTAB
0
TABLE
2
BLOCK_RECORD
5
1
100
AcDbSymbolTable
70
1
0
BLOCK_RECORD
5
1F
100
AcDbSymbolTableRecord
100
AcDbBlockTableRecord
2
*MODEL_SPACE
0
BLOCK_RECORD
5
1B
100
AcDbSymbolTableRecord
100
AcDbBlockTableRecord
2
*PAPER_SPACE
0
ENDTAB
0
ENDSEC
0
SECTION
2
BLOCKS
0
BLOCK
5
20
100
AcDbEntity
100
AcDbBlockBegin
2
*MODEL_SPACE
0
ENDBLK
5
21
100
AcDbEntity
100
AcDbBlockEnd
0
BLOCK
5
1C
100
AcDbEntity
100
AcDbBlockBegin
2
*PAPER_SPACE
0
ENDBLK
5
1D
100
AcDbEntity
100
AcDbBlockEnd
0
ENDSEC
0
SECTION
2
ENTITIES
0
LWPOLYLINE
5
100
100
AcDbEntity
8
0
100
AcDbPolyline
90
8
70
1
43
0.0
10
128.63750013477403
20
-67.475000146648384
42
0.41421356237309503
10
129.13750013477403
20
-66.975000146648384
10
129.13750013477403
20
-53.975000146648384
42
0.41421356237309503
10
128.63750013477403
20
-53.475000146648384
10
115.63750013477403
20
-53.475000146648384
42
0.41421356237309503
10
115.13750013477403
20
-53.975000146648384
10
115.13750013477403
20
-66.975000146648384
42
0.41421356237309503
10
115.63750013477403
20
-67.475000146648384
0
LWPOLYLINE
5
101
100
AcDbEntity
8
0
100
AcDbPolyline
90
8
70
1
43
0.0
10
114.35000013477404
20
-86.525000146648381
42
0.41421356237309503
10
114.85000013477404
20
-86.025000146648381
10
114.85000013477404
20
-73.025000146648381
42
0.41421356237309503
10
114.35000013477404
20
-72.525000146648381
10
101.35000013477402
20
-72.525000146648381
42
0.41421356237309503
10
100.85000013477401
20
-73.025000146648381
10
100.85000013477404
20
-86.025000146648381
42
0.41421356237309503
10
101.35000013477402
20
-86.525000146648381
0
LWPOLYLINE
5
102
100
AcDbEntity
8
0
100
AcDbPolyline
90
8
70
1
43
0.0
10
139.45000013477403
20
-72.525000146648381
42
0.41421356237309503
10
138.95000013477403
20
-73.025000146648381
10
138.95000013477403
20
-86.025000146648381
42
0.41421356237309503
10
139.45000013477403
20
-86.525000146648381
10
152.45000013477403
20
-86.525000146648381
42
0.41421356237309503
10
152.95000013477403
20
-86.025000146648381
10
152.95000013477403
20
-73.025000146648381
42
0.41421356237309503
10
152.45000013477403
20
-72.525000146648381
0
LWPOLYLINE
5
103
100
AcDbEntity
8
0
100
AcDbPolyline
90
8
70
1
43
0.0
10
119.90000013477402
20
-86.025000146648381
42
0.41421356237309503
10
120.40000013477403
20
-86.525000146648381
10
133.40000013477402
20
-86.525000146648381
42
0.41421356237309503
10
133.90000013477402
20
-86.025000146648381
10
133.90000013477402
20
-73.025000146648381
42
0.41421356237309503
10
133.40000013477402
20
-72.525000146648381
10
120.40000013477403
20
-72.525000146648381
42
0.41421356237309503
10
119.90000013477402
20
-73.025000146648381
0
LWPOLYLINE
5
104
100
AcDbEntity
8
0
100
AcDbPolyline
90
8
70
1
43
0.0
10
134.18750013477401
20
-66.975000146648384
42
0.41421356237309503
10
134.68750013477401
20
-67.475000146648384
10
147.68750013477401
20
-67.475000146648384
42
0.41421356237309503
10
148.18750013477401
20
-66.975000146648384
10
148.18750013477401
20
-53.975000146648384
42
0.41421356237309503
10
147.68750013477401
20
-53.475000146648384
10
134.68750013477401
20
-53.475000146648384
42
0.41421356237309503
10
134.18750013477401
20
-53.975000146648384
0
LWPOLYLINE
5
105
100
AcDbEntity
8
0
100
AcDbPolyline
90
4
70
1
43
0.0
10
0
20
0
10
330.00001519918442
20
0
10
330.00001519918442
20
-140.00000617466867
10
0
20
-140.00000617466867
0
LWPOLYLINE
5
106
100
AcDbEntity
8
0
100
AcDbPolyline
90
8
70
1
43
0.0
10
291.06250013477404
20
-11.112500146648381
10
291.06250013477404
20
-24.112500146648379
42
-0.41421356237309503
10
290.56250013477404
20
-24.612500146648379
10
277.56250013477404
20
-24.612500146648387
42
-0.41421356237309503
10
277.06250013477404
20
-24.112500146648379
10
277.06250013477404
20
-11.112500146648381
42
-0.41421356237309503
10
277.56250013477404
20
-10.612500146648379
10
290.56250013477404
20
-10.612500146648374
42
-0.41421356237309503
0
LWPOLYLINE
5
107
100
AcDbEntity
8
0
100
AcDbPolyline
90
8
70
1
43
0.0
10
265.15625013477404
20
-86.025000146648381
42
0.41421356237309503
10
265.65625013477404
20
-86.525000146648381
10
278.65625013477404
20
-86.525000146648381
42
0.41421356237309503
10
279.15625013477404
20
-86.025000146648381
10
279.15625013477404
20
-73.025000146648381
42
0.41421356237309503
10
278.65625013477404
20
-72.525000146648381
10
265.65625013477404
20
-72.525000146648381
42
0.41421356237309503
10
265.15625013477404
20
-73.025000146648381
0
LWPOLYLINE
5
108
100
AcDbEntity
8
0
100
AcDbPolyline
90
8
70
1
43
0.0
10
71.487500134774024
20
-67.475000146648384
42
0.41421356237309503
10
71.987500134774024
20
-66.975000146648384
10
71.987500134774024
20
-53.975000146648384
42
0.41421356237309503
10
71.487500134774024
20
-53.475000146648384
10
58.487500134774024
20
-53.475000146648384
42
0.41421356237309503
10
57.987500134774024
20
-53.975000146648384
10
57.987500134774024
20
-66.975000146648384
42
0.41421356237309503
10
58.487500134774024
20
-67.475000146648384
0
LWPOLYLINE
5
109
100
AcDbEntity
8
0
100
AcDbPolyline
90
8
70
1
43
0.0
10
281.53750013477401
20
-34.925000146648379
10
281.53750013477401
20
-47.925000146648387
42
-0.41421356237309503
10
281.03750013477401
20
-48.425000146648387
10
268.03750013477401
20
-48.425000146648394
42
-0.41421356237309503
10
267.53750013477401
20
-47.925000146648387
10
267.53750013477401
20
-34.925000146648379
42
-0.41421356237309503
10
268.03750013477401
20
-34.425000146648379
10
281.03750013477401
20
-34.425000146648372
42
-0.41421356237309503
0
LWPOLYLINE
5
110
100
AcDbEntity
8
0
100
AcDbPolyline
90
8
70
1
43
0.0
10
60.368750134774025
20
-124.12500014664838
42
0.41421356237309503
10
60.868750134774025
20
-124.62500014664839
10
73.868750134774018
20
-124.62500014664839
42
0.41421356237309503
10
74.368750134774018
20
-124.12500014664838
10
74.368750134774018
20
-111.12500014664839
42
0.41421356237309503
10
73.868750134774018
20
-110.62500014664838
10
60.868750134774025
20
-110.62500014664838
42
0.41421356237309503
10
60.368750134774025
20
-111.12500014664839
0
LWPOLYLINE
5
111
100
AcDbEntity
8
0
100
AcDbPolyline
90
8
70
1
43
0.0
10
195.31250013477401
20
-24.612500146648379
42
0.41421356237309503
10
195.81250013477401
20
-24.112500146648379
10
195.81250013477401
20
-11.112500146648381
42
0.41421356237309503
10
195.31250013477401
20
-10.612500146648379
10
182.31250013477404
20
-10.612500146648379
42
0.41421356237309503
10
181.81250013477404
20
-11.112500146648381
10
181.81250013477404
20
-24.112500146648379
42
0.41421356237309503
10
182.31250013477404
20
-24.612500146648379
0
LWPOLYLINE
5
112
100
AcDbEntity
8
0
100
AcDbPolyline
90
8
70
1
43
0.0
10
37.706750134774019
20
-93.075000146648378
10
37.706750134774019
20
-107.07500014664838
42
0.41421356237309503
10
38.206750134774019
20
-107.57500014664839
10
44.206750134774012
20
-107.57500014664839
42
0.41421356237309503
10
44.706750134774026
20
-107.07500014664838
10
44.706750134774026
20
-93.075000146648378
42
0.41421356237309503
10
44.206750134774012
20
-92.575000146648364
10
38.206750134774019
20
-92.575000146648364
42
0.41421356237309503
0
LWPOLYLINE
5
113
100
AcDbEntity
8
0
100
AcDbPolyline
90
8
70
1
43
0.0
10
20.330750134774014
20
-107.57500014664839
42
0.41421356237309503
10
20.830750134774018
20
-107.07500014664838
10
20.830750134774018
20
-93.075000146648378
42
0.41421356237309503
10
20.330750134774014
20
-92.575000146648392
10
14.33075013477402
20
-92.575000146648364
42
0.41421356237309503
10
13.830750134774018
20
-93.075000146648378
10
13.830750134774018
20
-107.07500014664838
42
0.41421356237309503
10
14.33075013477402
20
-107.57500014664839
0
LWPOLYLINE
5
114
100
AcDbEntity
8
0
100
AcDbPolyline
90
8
70
1
43
0.0
10
100.56250013477401
20
-34.925000146648379
10
100.56250013477403
20
-47.925000146648387
42
-0.41421356237309503
10
100.06250013477401
20
-48.425000146648387
10
87.062500134774012
20
-48.425000146648394
42
-0.41421356237309503
10
86.562500134774012
20
-47.925000146648387
10
86.562500134774012
20
-34.925000146648379
42
-0.41421356237309503
10
87.062500134774012
20
-34.425000146648379
10
100.06250013477401
20
-34.425000146648387
42
-0.41421356237309503
0
LWPOLYLINE
5
115
100
AcDbEntity
8
0
100
AcDbPolyline
90
8
70
1
43
0.0
10
57.700000134774015
20
-73.025000146648381
42
0.41421356237309503
10
57.200000134774022
20
-72.525000146648381
10
44.200000134774022
20
-72.525000146648381
42
0.41421356237309503
10
43.700000134774015
20
-73.025000146648381
10
43.700000134774015
20
-86.025000146648381
42
0.41421356237309503
10
44.200000134774022
20
-86.525000146648381
10
57.200000134774022
20
-86.525000146648381
42
0.41421356237309503
10
57.700000134774015
20
-86.025000146648381
0
LWPOLYLINE
5
116
100
AcDbEntity
8
0
100
AcDbPolyline
90
8
70
1
43
0.0
10
314.87500013477404
20
-115.88750014664839
42
0.41421356237309503
10
314.37500013477404
20
-115.38750014664839
10
301.37500013477404
20
-115.38750014664839
42
0.41421356237309503
10
300.87500013477404
20
-115.88750014664839
10
300.87500013477404
20
-128.88750014664839
42
0.41421356237309503
10
301.37500013477404
20
-129.38750014664839
10
314.37500013477404
20
-129.38750014664839
42
0.41421356237309503
10
314.87500013477404
20
-128.88750014664839
0
LWPOLYLINE
5
117
100
AcDbEntity
8
0
100
AcDbPolyline
90
8
70
1
43
0.0
10
287.59425013477403
20
-74.025000146648381
10
287.59425013477403
20
-88.025000146648381
42
-0.41421356237309503
10
287.09425013477403
20
-88.525000146648395
10
281.09425013477403
20
-88.525000146648395
42
-0.41421356237309503
10
280.59425013477403
20
-88.025000146648381
10
280.59425013477403
20
-74.025000146648381
42
-0.41421356237309503
10
281.09425013477403
20
-73.525000146648381
10
287.09425013477403
20
-73.525000146648381
42
-0.41421356237309503
0
LWPOLYLINE
5
118
100
AcDbEntity
8
0
100
AcDbPolyline
90
8
70
1
43
0.0
10
106.11250013477402
20
-10.612500146648379
42
0.41421356237309503
10
105.61250013477404
20
-11.112500146648381
10
105.61250013477404
20
-24.112500146648379
42
0.41421356237309503
10
106.11250013477402
20
-24.612500146648379
10
119.11250013477402
20
-24.612500146648379
42
0.41421356237309503
10
119.61250013477404
20
-24.112500146648379
10
119.61250013477404
20
-11.112500146648381
42
0.41421356237309503
10
119.11250013477402
20
-10.612500146648379
0
LWPOLYLINE
5
119
100
AcDbEntity
8
0
100
AcDbPolyline
90
8
70
1
43
0.0
10
86.562500134774012
20
-24.112500146648379
42
0.41421356237309503
10
87.062500134774012
20
-24.612500146648379
10
100.06250013477401
20
-24.612500146648379
42
0.41421356237309503
10
100.56250013477401
20
-24.112500146648379
10
100.56250013477401
20
-11.112500146648381
42
0.41421356237309503
10
100.06250013477401
20
-10.612500146648379
10
87.062500134774012
20
-10.612500146648379
42
0.41421356237309503
10
86.562500134774012
20
-11.112500146648381
0
LWPOLYLINE
5
120
100
AcDbEntity
8
0
100
AcDbPolyline
90
8
70
1
43
0.0
10
263.27500013477402
20
-129.38750014664839
10
276.27500013477402
20
-129.38750014664839
42
0.41421356237309503
10
276.77500013477402
20
-128.88750014664839
10
276.77500013477402
20
-115.88750014664839
42
0.41421356237309503
10
276.27500013477402
20
-115.38750014664839
10
263.27500013477402
20
-115.38750014664839
42
0.41421356237309503
10
262.77500013477402
20
-115.88750014664839
10
262.77500013477402
20
-128.88750014664839
42
0.41421356237309503
0
LWPOLYLINE
5
121
100
AcDbEntity
8
0
100
AcDbPolyline
90
8
70
1
43
0.0
10
272.01250013477409
20
-11.112500146648381
42
0.41421356237309503
10
271.51250013477403
20
-10.612500146648379
10
258.51250013477403
20
-10.612500146648379
42
0.41421356237309503
10
258.01250013477403
20
-11.112500146648381
10
258.01250013477403
20
-24.112500146648379
42
0.41421356237309503
10
258.51250013477403
20
-24.612500146648379
10
271.51250013477403
20
-24.612500146648379
42
0.41421356237309503
10
272.01250013477409
20
-24.112500146648379
0
LWPOLYLINE
5
122
100
AcDbEntity
8
0
100
AcDbPolyline
90
8
70
1
43
0.0
10
200.86250013477405
20
-24.112500146648379
42
0.41421356237309503
10
201.36250013477405
20
-24.612500146648379
10
214.36250013477405
20
-24.612500146648379
42
0.41421356237309503
10
214.86250013477402
20
-24.112500146648379
10
214.86250013477402
20
-11.112500146648381
42
0.41421356237309503
10
214.36250013477405
20
-10.612500146648379
10
201.36250013477405
20
-10.612500146648379
42
0.41421356237309503
10
200.86250013477405
20
-11.112500146648381
0
LWPOLYLINE
5
123
100
AcDbEntity
8
0
100
AcDbPolyline
90
8
70
1
43
0.0
10
185.78750013477401
20
-67.475000146648384
42
0.41421356237309503
10
186.28750013477401
20
-66.975000146648384
10
186.28750013477401
20
-53.975000146648384
42
0.41421356237309503
10
185.78750013477401
20
-53.475000146648384
10
172.78750013477404
20
-53.475000146648384
42
0.41421356237309503
10
172.28750013477401
20
-53.975000146648384
10
172.28750013477401
20
-66.975000146648384
42
0.41421356237309503
10
172.78750013477404
20
-67.475000146648384
0
LWPOLYLINE
5
124
100
AcDbEntity
8
0
100
AcDbPolyline
90
8
70
1
43
0.0
10
26.743750134774018
20
-111.12500014664839
42
0.41421356237309503
10
26.243750134774018
20
-110.62500014664838
10
13.243750134774018
20
-110.62500014664838
42
0.41421356237309503
10
12.743750134774018
20
-111.12500014664839
10
12.743750134774018
20
-124.12500014664838
42
0.41421356237309503
10
13.243750134774018
20
-124.62500014664839
10
26.243750134774018
20
-124.62500014664839
42
0.41421356237309503
10
26.743750134774018
20
-124.12500014664838
0
LWPOLYLINE
5
125
100
AcDbEntity
8
0
100
AcDbPolyline
90
8
70
1
43
0.0
10
219.91250013477401
20
-11.112500146648381
10
219.91250013477401
20
-24.112500146648379
42
0.41421356237309503
10
220.41250013477401
20
-24.612500146648379
10
233.41250013477404
20
-24.612500146648379
42
0.41421356237309503
10
233.91250013477404
20
-24.112500146648379
10
233.91250013477404
20
-11.112500146648381
42
0.41421356237309503
10
233.41250013477404
20
-10.612500146648379
10
220.41250013477401
20
-10.612500146648379
42
0.41421356237309503
0
LWPOLYLINE
5
126
100
AcDbEntity
8
0
100
AcDbPolyline
90
8
70
1
43
0.0
10
265.59950013477408
20
-50.425000146648379
42
0.41421356237309503
10
266.09950013477402
20
-49.925000146648379
10
266.09950013477402
20
-35.925000146648379
42
0.41421356237309503
10
265.59950013477408
20
-35.425000146648379
10
259.59950013477402
20
-35.425000146648379
42
0.41421356237309503
10
259.09950013477402
20
-35.925000146648379
10
259.09950013477402
20
-49.925000146648379
42
0.41421356237309503
10
259.59950013477402
20
-50.425000146648379
0
LWPOLYLINE
5
127
100
AcDbEntity
8
0
100
AcDbPolyline
90
8
70
1
43
0.0
10
177.55000013477402
20
-86.525000146648381
10
190.55000013477405
20
-86.525000146648381
42
0.41421356237309503
10
191.05000013477405
20
-86.025000146648381
10
191.05000013477405
20
-73.025000146648381
42
0.41421356237309503
10
190.55000013477405
20
-72.525000146648381
10
177.55000013477402
20
-72.525000146648381
42
0.41421356237309503
10
177.05000013477402
20
-73.025000146648381
10
177.05000013477402
20
-86.025000146648381
42
0.41421356237309503
0
LWPOLYLINE
5
128
100
AcDbEntity
8
0
100
AcDbPolyline
90
8
70
1
43
0.0
10
261.98750013477405
20
-67.475000146648384
42
0.41421356237309503
10
262.48750013477405
20
-66.975000146648384
10
262.48750013477405
20
-53.975000146648384
42
0.41421356237309503
10
261.98750013477405
20
-53.475000146648384
10
248.98750013477405
20
-53.475000146648384
42
0.41421356237309503
10
248.48750013477402
20
-53.975000146648384
10
248.48750013477402
20
-66.975000146648384
42
0.41421356237309503
10
248.98750013477405
20
-67.475000146648384
0
LWPOLYLINE
5
129
100
AcDbEntity
8
0
100
AcDbPolyline
90
8
70
1
43
0.0
10
36.556250134774018
20
-111.12500014664839
10
36.556250134774018
20
-124.12500014664838
42
0.41421356237309503
10
37.056250134774018
20
-124.62500014664839
10
50.056250134774018
20
-124.62500014664839
42
0.41421356237309503
10
50.556250134774018
20
-124.12500014664838
10
50.556250134774018
20
-111.12500014664839
42
0.41421356237309503
10
50.056250134774018
20
-110.62500014664838
10
37.056250134774018
20
-110.62500014664838
42
0.41421356237309503
0
LWPOLYLINE
5
130
100
AcDbEntity
8
0
100
AcDbPolyline
90
8
70
1
43
0.0
10
171.50000013477404
20
-86.525000146648381
42
0.41421356237309503
10
172.00000013477404
20
-86.025000146648381
10
172.00000013477404
20
-73.025000146648381
42
0.41421356237309503
10
171.50000013477404
20
-72.525000146648381
10
158.50000013477401
20
-72.525000146648381
42
0.41421356237309503
10
158.00000013477401
20
-73.025000146648381
10
158.00000013477401
20
-86.025000146648381
42
0.41421356237309503
10
158.50000013477401
20
-86.525000146648381
0
LWPOLYLINE
5
131
100
AcDbEntity
8
0
100
AcDbPolyline
90
8
70
1
43
0.0
10
295.32500013477403
20
-110.3375001466484
42
0.41421356237309503
10
295.82500013477403
20
-109.83750014664838
10
295.82500013477403
20
-96.837500146648381
42
0.41421356237309503
10
295.32500013477403
20
-96.337500146648381
10
282.32500013477409
20
-96.337500146648381
42
0.41421356237309503
10
281.82500013477403
20
-96.837500146648381
10
281.82500013477403
20
-109.83750014664838
42
0.41421356237309503
10
282.32500013477409
20
-110.3375001466484
0
LWPOLYLINE
5
132
100
AcDbEntity
8
0
100
AcDbPolyline
90
8
70
1
43
0.0
10
282.97550013477399
20
-49.925000146648379
42
0.41421356237309503
10
283.47550013477405
20
-50.425000146648379
10
289.47550013477399
20
-50.425000146648379
42
0.41421356237309503
10
289.97550013477399
20
-49.925000146648379
10
289.97550013477399
20
-35.925000146648379
42
0.41421356237309503
10
289.47550013477399
20
-35.425000146648379
10
283.47550013477405
20
-35.425000146648379
42
0.41421356237309503
10
282.97550013477399
20
-35.925000146648379
0
LWPOLYLINE
5
133
100
AcDbEntity
8
0
100
AcDbPolyline
90
8
70
1
43
0.0
10
272.800000134774
20
-53.475000146648384
10
285.800000134774
20
-53.475000146648412
42
-0.41421356237309503
10
286.300000134774
20
-53.975000146648384
10
286.30000013477405
20
-66.975000146648384
42
-0.41421356237309503
10
285.800000134774
20
-67.475000146648384
10
272.800000134774
20
-67.475000146648398
42
-0.41421356237309503
10
272.300000134774
20
-66.975000146648384
10
272.300000134774
20
-53.975000146648384
42
-0.41421356237309503
0
LWPOLYLINE
5
134
100
AcDbEntity
8
0
100
AcDbPolyline
90
8
70
1
43
0.0
10
81.512500134774015
20
-34.925000146648379
42
0.41421356237309503
10
81.012500134774001
20
-34.425000146648379
10
68.012500134774015
20
-34.425000146648379
42
0.41421356237309503
10
67.512500134774015
20
-34.925000146648379
10
67.512500134774015
20
-47.925000146648387
42
0.41421356237309503
10
68.012500134774015
20
-48.425000146648387
10
81.012500134774001
20
-48.425000146648387
42
0.41421356237309503
10
81.512500134774015
20
-47.925000146648387
0
LWPOLYLINE
5
135
100
AcDbEntity
8
0
100
AcDbPolyline
90
8
70
1
43
0.0
10
295.32500013477403
20
-129.38750014664839
42
0.41421356237309503
10
295.82500013477403
20
-128.88750014664839
10
295.82500013477403
20
-115.88750014664839
42
0.41421356237309503
10
295.32500013477403
20
-115.38750014664839
10
282.32500013477409
20
-115.38750014664839
42
0.41421356237309503
10
281.82500013477403
20
-115.88750014664839
10
281.82500013477403
20
-128.88750014664839
42
0.41421356237309503
10
282.32500013477409
20
-129.38750014664839
0
LWPOLYLINE
5
136
100
AcDbEntity
8
0
100
AcDbPolyline
90
8
70
1
43
0.0
10
263.71825013477405
20
-74.025000146648381
10
263.71825013477405
20
-88.025000146648381
42
-0.41421356237309503
10
263.21825013477405
20
-88.525000146648395
10
257.21825013477405
20
-88.525000146648395
42
-0.41421356237309503
10
256.71825013477405
20
-88.025000146648381
10
256.71825013477405
20
-74.025000146648381
42
-0.41421356237309503
10
257.21825013477405
20
-73.525000146648381
10
263.21825013477405
20
-73.525000146648381
42
-0.41421356237309503
0
LWPOLYLINE
5
137
100
AcDbEntity
8
0
100
AcDbPolyline
90
8
70
1
43
0.0
10
62.750000134774027
20
-73.025000146648381
10
62.750000134774027
20
-86.025000146648381
42
0.41421356237309503
10
63.250000134774027
20
-86.525000146648381
10
76.250000134774012
20
-86.525000146648381
42
0.41421356237309503
10
76.750000134774012
20
-86.025000146648381
10
76.750000134774012
20
-73.025000146648381
42
0.41421356237309503
10
76.250000134774012
20
-72.525000146648381
10
63.250000134774027
20
-72.525000146648381
42
0.41421356237309503
0
LWPOLYLINE
5
138
100
AcDbEntity
8
0
100
AcDbPolyline
90
8
70
1
43
0.0
10
52.43750013477402
20
-67.475000146648384
42
0.41421356237309503
10
52.937500134774027
20
-66.975000146648384
10
52.937500134774012
20
-53.975000146648384
42
0.41421356237309503
10
52.43750013477402
20
-53.475000146648384
10
39.43750013477402
20
-53.475000146648384
42
0.41421356237309503
10
38.93750013477402
20
-53.975000146648384
10
38.93750013477402
20
-66.975000146648384
42
0.41421356237309503
10
39.43750013477402
20
-67.475000146648384
0
LWPOLYLINE
5
139
100
AcDbEntity
8
0
100
AcDbPolyline
90
8
70
1
43
0.0
10
81.512500134774015
20
-11.112500146648381
42
0.41421356237309503
10
81.012500134774001
20
-10.612500146648379
10
68.012500134774015
20
-10.612500146648379
42
0.41421356237309503
10
67.512500134774015
20
-11.112500146648381
10
67.512500134774015
20
-24.112500146648379
42
0.41421356237309503
10
68.012500134774015
20
-24.612500146648379
10
81.012500134774001
20
-24.612500146648379
42
0.41421356237309503
10
81.512500134774015
20
-24.112500146648379
0
LWPOLYLINE
5
140
100
AcDbEntity
8
0
100
AcDbPolyline
90
8
70
1
43
0.0
10
264.36875013477402
20
-105.57500014664839
42
0.41421356237309503
10
264.86875013477402
20
-105.07500014664839
10
264.86875013477407
20
-92.075000146648378
42
0.41421356237309503
10
264.36875013477402
20
-91.575000146648364
10
251.36875013477405
20
-91.575000146648364
42
0.41421356237309503
10
250.86875013477402
20
-92.075000146648378
10
250.86875013477402
20
-105.07500014664839
42
0.41421356237309503
10
251.36875013477405
20
-105.57500014664839
0
LWPOLYLINE
5
141
100
AcDbEntity
8
0
100
AcDbPolyline
90
8
70
1
43
0.0
10
77.537500134774021
20
-53.475000146648384
42
0.41421356237309503
10
77.037500134774021
20
-53.975000146648384
10
77.037500134774021
20
-66.975000146648384
42
0.41421356237309503
10
77.537500134774021
20
-67.475000146648384
10
90.537500134774035
20
-67.475000146648384
42
0.41421356237309503
10
91.037500134774021
20
-66.975000146648384
10
91.037500134774021
20
-53.975000146648384
42
0.41421356237309503
10
90.537500134774035
20
-53.475000146648384
0
LWPOLYLINE
5
142
100
AcDbEntity
8
0
100
AcDbPolyline
90
8
70
1
43
0.0
10
106.11250013477402
20
-34.425000146648379
42
0.41421356237309503
10
105.61250013477404
20
-34.925000146648379
10
105.61250013477404
20
-47.925000146648387
42
0.41421356237309503
10
106.11250013477402
20
-48.425000146648387
10
119.11250013477402
20
-48.425000146648387
42
0.41421356237309503
10
119.61250013477404
20
-47.925000146648387
10
119.61250013477404
20
-34.925000146648379
42
0.41421356237309503
10
119.11250013477402
20
-34.425000146648379
0
LWPOLYLINE
5
143
100
AcDbEntity
8
0
100
AcDbPolyline
90
8
70
1
43
0.0
10
144.21250013477402
20
-48.425000146648387
10
157.21250013477402
20
-48.425000146648387
42
0.41421356237309503
10
157.71250013477402
20
-47.925000146648387
10
157.71250013477402
20
-34.925000146648379
42
0.41421356237309503
10
157.21250013477402
20
-34.425000146648379
10
144.21250013477402
20
-34.425000146648379
42
0.41421356237309503
10
143.71250013477402
20
-34.925000146648379
10
143.71250013477402
20
-47.925000146648387
42
0.41421356237309503
0
LWPOLYLINE
5
144
100
AcDbEntity
8
0
100
AcDbPolyline
90
8
70
1
43
0.0
10
220.41250013477401
20
-48.425000146648387
10
233.41250013477404
20
-48.425000146648387
42
0.41421356237309503
10
233.91250013477404
20
-47.925000146648387
10
233.91250013477404
20
-34.925000146648379
42
0.41421356237309503
10
233.41250013477404
20
-34.425000146648379
10
220.41250013477401
20
-34.425000146648379
42
0.41421356237309503
10
219.91250013477401
20
-34.925000146648379
10
219.91250013477401
20
-47.925000146648387
42
0.41421356237309503
0
LWPOLYLINE
5
145
100
AcDbEntity
8
0
100
AcDbPolyline
90
8
70
1
43
0.0
10
220.41250013477401
20
-110.62500014664838
10
233.41250013477404
20
-110.62500014664838
42
-0.41421356237309503
10
233.91250013477404
20
-111.12500014664839
10
233.91250013477404
20
-124.12500014664838
42
-0.41421356237309503
10
233.41250013477404
20
-124.62500014664839
10
220.41250013477401
20
-124.62500014664839
42
-0.41421356237309503
10
219.91250013477401
20
-124.12500014664838
10
219.91250013477401
20
-111.12500014664839
42
-0.41421356237309503
0
LWPOLYLINE
5
146
100
AcDbEntity
8
0
100
AcDbPolyline
90
8
70
1
43
0.0
10
72.775000134774018
20
-105.57500014664839
10
85.775000134774018
20
-105.57500014664839
42
0.41421356237309503
10
86.275000134774018
20
-105.07500014664839
10
86.275000134774018
20
-92.075000146648378
42
0.41421356237309503
10
85.775000134774018
20
-91.575000146648364
10
72.775000134774018
20
-91.575000146648364
42
0.41421356237309503
10
72.275000134774018
20
-92.075000146648378
10
72.275000134774018
20
-105.07500014664839
42
0.41421356237309503
0
LWPOLYLINE
5
147
100
AcDbEntity
8
0
100
AcDbPolyline
90
8
70
1
43
0.0
10
148.47500013477401
20
-92.075000146648378
10
148.47500013477401
20
-105.07500014664839
42
0.41421356237309503
10
148.97500013477401
20
-105.57500014664839
10
161.97500013477401
20
-105.57500014664839
42
0.41421356237309503
10
162.47500013477404
20
-105.07500014664839
10
162.47500013477401
20
-92.075000146648378
42
0.41421356237309503
10
161.97500013477401
20
-91.575000146648364
10
148.97500013477401
20
-91.575000146648364
42
0.41421356237309503
0
LWPOLYLINE
5
148
100
AcDbEntity
8
0
100
AcDbPolyline
90
8
70
1
43
0.0
10
143.42500013477402
20
-92.075000146648378
10
143.42500013477402
20
-105.07500014664839
42
-0.41421356237309503
10
142.92500013477402
20
-105.57500014664839
10
129.92500013477405
20
-105.57500014664839
42
-0.41421356237309503
10
129.42500013477402
20
-105.07500014664839
10
129.42500013477402
20
-92.075000146648378
42
-0.41421356237309503
10
129.92500013477405
20
-91.575000146648364
10
142.92500013477402
20
-91.575000146648364
42
-0.41421356237309503
0
LWPOLYLINE
5
149
100
AcDbEntity
8
0
100
AcDbPolyline
90
8
70
1
43
0.0
10
132.30625013477402
20
-124.62500014664839
10
145.30625013477402
20
-124.62500014664839
42
0.41421356237309503
10
145.80625013477402
20
-124.12500014664838
10
145.80625013477405
20
-111.12500014664839
42
0.41421356237309503
10
145.30625013477402
20
-110.62500014664838
10
132.30625013477402
20
-110.62500014664838
42
0.41421356237309503
10
131.80625013477402
20
-111.12500014664839
10
131.80625013477402
20
-124.12500014664838
42
0.41421356237309503
0
LWPOLYLINE
5
150
100
AcDbEntity
8
0
100
AcDbPolyline
90
8
70
1
43
0.0
10
124.37500013477403
20
-92.075000146648378
10
124.37500013477403
20
-105.07500014664839
42
-0.41421356237309503
10
123.87500013477401
20
-105.57500014664839
10
110.87500013477403
20
-105.57500014664839
42
-0.41421356237309503
10
110.37500013477401
20
-105.07500014664839
10
110.37500013477401
20
-92.075000146648378
42
-0.41421356237309503
10
110.87500013477403
20
-91.575000146648364
10
123.87500013477401
20
-91.575000146648364
42
-0.41421356237309503
0
LWPOLYLINE
5
151
100
AcDbEntity
8
0
100
AcDbPolyline
90
8
70
1
43
0.0
10
95.800000134774038
20
-73.025000146648381
10
95.800000134774038
20
-86.025000146648381
42
-0.41421356237309503
10
95.300000134774038
20
-86.525000146648381
10
82.300000134774024
20
-86.525000146648367
42
-0.41421356237309503
10
81.800000134774038
20
-86.025000146648381
10
81.800000134774038
20
-73.025000146648381
42
-0.41421356237309503
10
82.300000134774024
20
-72.525000146648381
10
95.300000134774038
20
-72.525000146648381
42
-0.41421356237309503
0
LWPOLYLINE
5
152
100
AcDbEntity
8
0
100
AcDbPolyline
90
8
70
1
43
0.0
10
96.587500134774018
20
-67.475000146648384
10
109.58750013477402
20
-67.475000146648384
42
0.41421356237309503
10
110.08750013477403
20
-66.975000146648384
10
110.08750013477403
20
-53.975000146648384
42
0.41421356237309503
10
109.58750013477402
20
-53.475000146648384
10
96.587500134774018
20
-53.475000146648384
42
0.41421356237309503
10
96.087500134774018
20
-53.975000146648384
10
96.087500134774032
20
-66.975000146648384
42
0.41421356237309503
0
LWPOLYLINE
5
153
100
AcDbEntity
8
0
100
AcDbPolyline
90
8
70
1
43
0.0
10
229.93750013477404
20
-67.475000146648384
10
242.93750013477404
20
-67.475000146648384
42
0.41421356237309503
10
243.43750013477404
20
-66.975000146648384
10
243.43750013477404
20
-53.975000146648384
42
0.41421356237309503
10
242.93750013477404
20
-53.475000146648384
10
229.93750013477404
20
-53.475000146648384
42
0.41421356237309503
10
229.43750013477401
20
-53.975000146648384
10
229.43750013477401
20
-66.975000146648384
42
0.41421356237309503
0
LWPOLYLINE
5
154
100
AcDbEntity
8
0
100
AcDbPolyline
90
8
70
1
43
0.0
10
23.862500134774017
20
-24.612500146648379
42
0.41421356237309503
10
24.362500134774017
20
-24.112500146648379
10
24.362500134774017
20
-11.112500146648381
42
0.41421356237309503
10
23.862500134774017
20
-10.612500146648379
10
10.862500134774018
20
-10.612500146648379
42
0.41421356237309503
10
10.362500134774017
20
-11.112500146648381
10
10.362500134774017
20
-24.112500146648379
42
0.41421356237309503
10
10.862500134774018
20
-24.612500146648379
0
LWPOLYLINE
5
155
100
AcDbEntity
8
0
100
AcDbPolyline
90
8
70
1
43
0.0
10
182.31250013477404
20
-34.425000146648379
42
0.41421356237309503
10
181.81250013477404
20
-34.925000146648379
10
181.81250013477404
20
-47.925000146648387
42
0.41421356237309503
10
182.31250013477404
20
-48.425000146648387
10
195.31250013477401
20
-48.425000146648387
42
0.41421356237309503
10
195.81250013477401
20
-47.925000146648387
10
195.81250013477401
20
-34.925000146648379
42
0.41421356237309503
10
195.31250013477401
20
-34.425000146648379
0
LWPOLYLINE
5
156
100
AcDbEntity
8
0
100
AcDbPolyline
90
8
70
1
43
0.0
10
167.23750013477402
20
-53.975000146648384
42
0.41421356237309503
10
166.73750013477402
20
-53.475000146648384
10
153.73750013477402
20
-53.475000146648384
42
0.41421356237309503
10
153.23750013477402
20
-53.975000146648384
10
153.23750013477402
20
-66.975000146648384
42
0.41421356237309503
10
153.73750013477402
20
-67.475000146648384
10
166.73750013477402
20
-67.475000146648384
42
0.41421356237309503
10
167.23750013477402
20
-66.975000146648384
0
LWPOLYLINE
5
157
100
AcDbEntity
8
0
100
AcDbPolyline
90
8
70
1
43
0.0
10
225.17500013477402
20
-91.575000146648364
42
0.41421356237309503
10
224.67500013477402
20
-92.075000146648378
10
224.67500013477402
20
-105.07500014664839
42
0.41421356237309503
10
225.17500013477402
20
-105.57500014664839
10
238.17500013477402
20
-105.57500014664839
42
0.41421356237309503
10
238.67500013477405
20
-105.07500014664839
10
238.67500013477405
20
-92.075000146648378
42
0.41421356237309503
10
238.17500013477402
20
-91.575000146648364
0
LWPOLYLINE
5
158
100
AcDbEntity
8
0
100
AcDbPolyline
90
8
70
1
43
0.0
10
200.86250013477405
20
-124.12500014664838
42
0.41421356237309503
10
201.36250013477405
20
-124.62500014664839
10
214.36250013477405
20
-124.62500014664839
42
0.41421356237309503
10
214.86250013477402
20
-124.12500014664838
10
214.86250013477402
20
-111.12500014664839
42
0.41421356237309503
10
214.36250013477405
20
-110.62500014664838
10
201.36250013477405
20
-110.62500014664838
42
0.41421356237309503
10
200.86250013477405
20
-111.12500014664839
0
LWPOLYLINE
5
159
100
AcDbEntity
8
0
100
AcDbPolyline
90
8
70
1
43
0.0
10
157.71250013477402
20
-11.112500146648381
42
0.41421356237309503
10
157.21250013477402
20
-10.612500146648379
10
144.21250013477402
20
-10.612500146648379
42
0.41421356237309503
10
143.71250013477402
20
-11.112500146648381
10
143.71250013477402
20
-24.112500146648379
42
0.41421356237309503
10
144.21250013477402
20
-24.612500146648379
10
157.21250013477402
20
-24.612500146648379
42
0.41421356237309503
10
157.71250013477402
20
-24.112500146648379
0
LWPOLYLINE
5
160
100
AcDbEntity
8
0
100
AcDbPolyline
90
8
70
1
43
0.0
10
234.70000013477403
20
-86.525000146648381
10
247.70000013477403
20
-86.525000146648381
42
0.41421356237309503
10
248.20000013477403
20
-86.025000146648381
10
248.20000013477403
20
-73.025000146648381
42
0.41421356237309503
10
247.70000013477403
20
-72.525000146648381
10
234.70000013477403
20
-72.525000146648381
42
0.41421356237309503
10
234.20000013477403
20
-73.025000146648381
10
234.20000013477403
20
-86.025000146648381
42
0.41421356237309503
0
LWPOLYLINE
5
161
100
AcDbEntity
8
0
100
AcDbPolyline
90
8
70
1
43
0.0
10
67.225000134774021
20
-92.075000146648378
42
0.41421356237309503
10
66.725000134774021
20
-91.575000146648392
10
53.725000134774021
20
-91.575000146648392
42
0.41421356237309503
10
53.225000134774021
20
-92.075000146648378
10
53.225000134774021
20
-105.07500014664839
42
0.41421356237309503
10
53.725000134774021
20
-105.57500014664839
10
66.725000134774021
20
-105.57500014664839
42
0.41421356237309503
10
67.225000134774021
20
-105.07500014664839
0
LWPOLYLINE
5
162
100
AcDbEntity
8
0
100
AcDbPolyline
90
8
70
1
43
0.0
10
48.462500134774018
20
-11.112500146648381
10
48.462500134774018
20
-24.112500146648379
42
0.41421356237309503
10
48.962500134774018
20
-24.612500146648379
10
61.962500134774025
20
-24.612500146648379
42
0.41421356237309503
10
62.462500134774018
20
-24.112500146648379
10
62.462500134774018
20
-11.112500146648381
42
0.41421356237309503
10
61.962500134774025
20
-10.612500146648379
10
48.962500134774018
20
-10.612500146648379
42
0.41421356237309503
0
LWPOLYLINE
5
163
100
AcDbEntity
8
0
100
AcDbPolyline
90
8
70
1
43
0.0
10
186.57500013477403
20
-105.07500014664839
42
0.41421356237309503
10
187.07500013477403
20
-105.57500014664839
10
200.07500013477403
20
-105.57500014664839
42
0.41421356237309503
10
200.57500013477406
20
-105.07500014664839
10
200.57500013477406
20
-92.075000146648378
42
0.41421356237309503
10
200.07500013477403
20
-91.575000146648364
10
187.07500013477403
20
-91.575000146648364
42
0.41421356237309503
10
186.57500013477403
20
-92.075000146648378
0
LWPOLYLINE
5
164
100
AcDbEntity
8
0
100
AcDbPolyline
90
8
70
1
43
0.0
10
29.412500134774021
20
-11.112500146648381
10
29.412500134774021
20
-24.112500146648379
42
0.41421356237309503
10
29.912500134774017
20
-24.612500146648379
10
42.912500134774021
20
-24.612500146648379
42
0.41421356237309503
10
43.412500134774028
20
-24.112500146648379
10
43.412500134774028
20
-11.112500146648381
42
0.41421356237309503
10
42.912500134774021
20
-10.612500146648379
10
29.912500134774017
20
-10.612500146648379
42
0.41421356237309503
0
LWPOLYLINE
5
165
100
AcDbEntity
8
0
100
AcDbPolyline
90
8
70
1
43
0.0
10
229.15000013477402
20
-73.025000146648381
42
0.41421356237309503
10
228.65000013477402
20
-72.525000146648381
10
215.65000013477402
20
-72.525000146648381
42
0.41421356237309503
10
215.15000013477405
20
-73.025000146648381
10
215.15000013477402
20
-86.025000146648381
42
0.41421356237309503
10
215.65000013477402
20
-86.525000146648381
10
228.65000013477402
20
-86.525000146648381
42
0.41421356237309503
10
229.15000013477402
20
-86.025000146648381
0
LWPOLYLINE
5
166
100
AcDbEntity
8
0
100
AcDbPolyline
90
8
70
1
43
0.0
10
205.62500013477401
20
-105.07500014664839
42
0.41421356237309503
10
206.12500013477401
20
-105.57500014664839
10
219.12500013477401
20
-105.57500014664839
42
0.41421356237309503
10
219.62500013477404
20
-105.07500014664839
10
219.62500013477404
20
-92.075000146648378
42
0.41421356237309503
10
219.12500013477401
20
-91.575000146648392
10
206.12500013477401
20
-91.575000146648392
42
0.41421356237309503
10
205.62500013477404
20
-92.075000146648378
0
LWPOLYLINE
5
167
100
AcDbEntity
8
0
100
AcDbPolyline
90
8
70
1
43
0.0
10
162.76250013477403
20
-34.925000146648379
10
162.76250013477403
20
-47.925000146648387
42
0.41421356237309503
10
163.26250013477406
20
-48.425000146648387
10
176.26250013477403
20
-48.425000146648387
42
0.41421356237309503
10
176.76250013477403
20
-47.925000146648387
10
176.76250013477403
20
-34.925000146648379
42
0.41421356237309503
10
176.26250013477403
20
-34.425000146648379
10
163.26250013477406
20
-34.425000146648379
42
0.41421356237309503
0
LWPOLYLINE
5
168
100
AcDbEntity
8
0
100
AcDbPolyline
90
8
70
1
43
0.0
10
176.76250013477403
20
-11.112500146648381
10
176.76250013477403
20
-24.112500146648379
42
-0.41421356237309503
10
176.26250013477403
20
-24.612500146648379
10
163.26250013477406
20
-24.612500146648422
42
-0.41421356237309503
10
162.76250013477403
20
-24.112500146648379
10
162.76250013477406
20
-11.112500146648381
42
-0.41421356237309503
10
163.26250013477406
20
-10.612500146648379
10
176.26250013477403
20
-10.612500146648374
42
-0.41421356237309503
0
LWPOLYLINE
5
169
100
AcDbEntity
8
0
100
AcDbPolyline
90
8
70
1
43
0.0
10
192.30625013477405
20
-112.12500014664839
10
192.30625013477405
20
-126.12500014664839
42
-0.41421356237309503
10
191.80625013477402
20
-126.6250001466484
10
185.80625013477402
20
-126.6250001466484
42
-0.41421356237309503
10
185.30625013477402
20
-126.12500014664839
10
185.30625013477402
20
-112.12500014664839
42
-0.41421356237309503
10
185.80625013477402
20
-111.62500014664838
10
191.80625013477402
20
-111.62500014664838
42
-0.41421356237309503
0
LWPOLYLINE
5
170
100
AcDbEntity
8
0
100
AcDbPolyline
90
8
70
1
43
0.0
10
214.86250013477402
20
-34.925000146648379
42
0.41421356237309503
10
214.36250013477405
20
-34.425000146648379
10
201.36250013477405
20
-34.425000146648379
42
0.41421356237309503
10
200.86250013477405
20
-34.925000146648379
10
200.86250013477405
20
-47.925000146648387
42
0.41421356237309503
10
201.36250013477405
20
-48.425000146648387
10
214.36250013477405
20
-48.425000146648387
42
0.41421356237309503
10
214.86250013477402
20
-47.925000146648387
0
LWPOLYLINE
5
171
100
AcDbEntity
8
0
100
AcDbPolyline
90
8
70
1
43
0.0
10
238.96250013477402
20
-11.112500146648381
10
238.96250013477402
20
-24.112500146648379
42
0.41421356237309503
10
239.46250013477402
20
-24.612500146648379
10
252.46250013477405
20
-24.612500146648379
42
0.41421356237309503
10
252.96250013477405
20
-24.112500146648379
10
252.96250013477405
20
-11.112500146648381
42
0.41421356237309503
10
252.46250013477405
20
-10.612500146648379
10
239.46250013477402
20
-10.612500146648379
42
0.41421356237309503
0
LWPOLYLINE
5
172
100
AcDbEntity
8
0
100
AcDbPolyline
90
8
70
1
43
0.0
10
204.83750013477405
20
-67.475000146648384
42
0.41421356237309503
10
205.33750013477402
20
-66.975000146648384
10
205.33750013477405
20
-53.975000146648384
42
0.41421356237309503
10
204.83750013477405
20
-53.475000146648384
10
191.83750013477405
20
-53.475000146648384
42
0.41421356237309503
10
191.33750013477402
20
-53.975000146648384
10
191.33750013477402
20
-66.975000146648384
42
0.41421356237309503
10
191.83750013477405
20
-67.475000146648384
0
LWPOLYLINE
5
173
100
AcDbEntity
8
0
100
AcDbPolyline
90
8
70
1
43
0.0
10
210.88750013477406
20
-67.475000146648384
10
223.88750013477406
20
-67.475000146648384
42
0.41421356237309503
10
224.38750013477403
20
-66.975000146648384
10
224.38750013477406
20
-53.975000146648384
42
0.41421356237309503
10
223.88750013477406
20
-53.475000146648384
10
210.88750013477406
20
-53.475000146648384
42
0.41421356237309503
10
210.38750013477403
20
-53.975000146648384
10
210.38750013477403
20
-66.975000146648384
42
0.41421356237309503
0
LWPOLYLINE
5
174
100
AcDbEntity
8
0
100
AcDbPolyline
90
8
70
1
43
0.0
10
10.862500134774018
20
-48.425000146648387
10
23.862500134774017
20
-48.425000146648387
42
0.41421356237309503
10
24.362500134774017
20
-47.925000146648387
10
24.362500134774017
20
-34.925000146648379
42
0.41421356237309503
10
23.862500134774017
20
-34.425000146648379
10
10.862500134774018
20
-34.425000146648379
42
0.41421356237309503
10
10.362500134774017
20
-34.925000146648379
10
10.362500134774017
20
-47.925000146648387
42
0.41421356237309503
0
LWPOLYLINE
5
175
100
AcDbEntity
8
0
100
AcDbPolyline
90
8
70
1
43
0.0
10
18.006250134774017
20
-72.525000146648381
42
0.41421356237309503
10
17.506250134774017
20
-73.025000146648381
10
17.506250134774017
20
-86.025000146648381
42
0.41421356237309503
10
18.006250134774017
20
-86.525000146648381
10
31.006250134774017
20
-86.525000146648381
42
0.41421356237309503
10
31.506250134774017
20
-86.025000146648381
10
31.506250134774017
20
-73.025000146648381
42
0.41421356237309503
10
31.006250134774017
20
-72.525000146648381
0
LWPOLYLINE
5
176
100
AcDbEntity
8
0
100
AcDbPolyline
90
8
70
1
43
0.0
10
29.412500134774021
20
-34.925000146648379
10
29.412500134774021
20
-47.925000146648387
42
0.41421356237309503
10
29.912500134774017
20
-48.425000146648387
10
42.912500134774021
20
-48.425000146648387
42
0.41421356237309503
10
43.412500134774028
20
-47.925000146648387
10
43.412500134774028
20
-34.925000146648379
42
0.41421356237309503
10
42.912500134774021
20
-34.425000146648379
10
29.912500134774017
20
-34.425000146648379
42
0.41421356237309503
0
LWPOLYLINE
5
177
100
AcDbEntity
8
0
100
AcDbPolyline
90
8
70
1
43
0.0
10
196.60000013477401
20
-86.525000146648381
10
209.60000013477401
20
-86.525000146648381
42
0.41421356237309503
10
210.10000013477401
20
-86.025000146648381
10
210.10000013477401
20
-73.025000146648381
42
0.41421356237309503
10
209.60000013477401
20
-72.525000146648381
10
196.60000013477401
20
-72.525000146648381
42
0.41421356237309503
10
196.10000013477401
20
-73.025000146648381
10
196.10000013477401
20
-86.025000146648381
42
0.41421356237309503
0
LWPOLYLINE
5
178
100
AcDbEntity
8
0
100
AcDbPolyline
90
8
70
1
43
0.0
10
181.52500013477405
20
-92.075000146648378
42
0.41421356237309503
10
181.02500013477402
20
-91.575000146648392
10
168.02500013477402
20
-91.575000146648364
42
0.41421356237309503
10
167.52500013477402
20
-92.075000146648378
10
167.52500013477402
20
-105.07500014664839
42
0.41421356237309503
10
168.02500013477402
20
-105.57500014664839
10
181.02500013477402
20
-105.57500014664839
42
0.41421356237309503
10
181.52500013477405
20
-105.07500014664839
0
LWPOLYLINE
5
179
100
AcDbEntity
8
0
100
AcDbPolyline
90
8
70
1
43
0.0
10
36.268750134774017
20
-92.075000146648378
10
36.268750134774024
20
-105.07500014664839
42
-0.41421356237309503
10
35.768750134774017
20
-105.57500014664839
10
22.768750134774017
20
-105.57500014664839
42
-0.41421356237309503
10
22.26875013477402
20
-105.07500014664839
10
22.26875013477401
20
-92.075000146648378
42
-0.41421356237309503
10
22.768750134774017
20
-91.575000146648364
10
35.768750134774017
20
-91.575000146648364
42
-0.41421356237309503
0
LWPOLYLINE
5
180
100
AcDbEntity
8
0
100
AcDbPolyline
90
8
70
1
43
0.0
10
15.62500013477402
20
-53.475000146648384
10
28.62500013477402
20
-53.475000146648384
42
-0.41421356237309503
10
29.12500013477402
20
-53.975000146648384
10
29.12500013477402
20
-66.975000146648384
42
-0.41421356237309503
10
28.62500013477402
20
-67.475000146648384
10
15.62500013477402
20
-67.475000146648384
42
-0.41421356237309503
10
15.125000134774018
20
-66.975000146648384
10
15.12500013477402
20
-53.975000146648384
42
-0.41421356237309503
0
LWPOLYLINE
5
181
100
AcDbEntity
8
0
100
AcDbPolyline
90
8
70
1
43
0.0
10
138.16250013477401
20
-48.425000146648387
42
0.41421356237309503
10
138.66250013477401
20
-47.925000146648387
10
138.66250013477401
20
-34.925000146648379
42
0.41421356237309503
10
138.16250013477401
20
-34.425000146648379
10
125.16250013477404
20
-34.425000146648379
42
0.41421356237309503
10
124.66250013477404
20
-34.925000146648379
10
124.66250013477404
20
-47.925000146648387
42
0.41421356237309503
10
125.16250013477404
20
-48.425000146648387
0
LWPOLYLINE
5
182
100
AcDbEntity
8
0
100
AcDbPolyline
90
8
70
1
43
0.0
10
252.96250013477405
20
-34.925000146648379
42
0.41421356237309503
10
252.46250013477405
20
-34.425000146648379
10
239.46250013477402
20
-34.425000146648379
42
0.41421356237309503
10
238.96250013477402
20
-34.925000146648379
10
238.96250013477402
20
-47.925000146648387
42
0.41421356237309503
10
239.46250013477402
20
-48.425000146648387
10
252.46250013477405
20
-48.425000146648387
42
0.41421356237309503
10
252.96250013477405
20
-47.925000146648387
0
LWPOLYLINE
5
183
100
AcDbEntity
8
0
100
AcDbPolyline
90
8
70
1
43
0.0
10
48.462500134774018
20
-34.925000146648379
10
48.462500134774018
20
-47.925000146648387
42
0.41421356237309503
10
48.962500134774018
20
-48.425000146648387
10
61.962500134774025
20
-48.425000146648387
42
0.41421356237309503
10
62.462500134774018
20
-47.925000146648387
10
62.462500134774018
20
-34.925000146648379
42
0.41421356237309503
10
61.962500134774025
20
-34.425000146648379
10
48.962500134774018
20
-34.425000146648379
42
0.41421356237309503
0
LWPOLYLINE
5
184
100
AcDbEntity
8
0
100
AcDbPolyline
90
8
70
1
43
0.0
10
238.96250013477402
20
-124.12500014664838
42
0.41421356237309503
10
239.46250013477402
20
-124.62500014664839
10
252.46250013477405
20
-124.62500014664839
42
0.41421356237309503
10
252.96250013477405
20
-124.12500014664838
10
252.96250013477405
20
-111.12500014664839
42
0.41421356237309503
10
252.46250013477405
20
-110.62500014664838
10
239.46250013477402
20
-110.62500014664838
42
0.41421356237309503
10
238.96250013477402
20
-111.12500014664839
0
LWPOLYLINE
5
185
100
AcDbEntity
8
0
100
AcDbPolyline
90
8
70
1
43
0.0
10
91.825000134774015
20
-105.57500014664839
10
104.82500013477403
20
-105.57500014664839
42
0.41421356237309503
10
105.32500013477403
20
-105.07500014664839
10
105.32500013477403
20
-92.075000146648378
42
0.41421356237309503
10
104.82500013477403
20
-91.575000146648364
10
91.825000134774015
20
-91.575000146648364
42
0.41421356237309503
10
91.325000134774001
20
-92.075000146648378
10
91.325000134774029
20
-105.07500014664839
42
0.41421356237309503
0
LWPOLYLINE
5
186
100
AcDbEntity
8
0
100
AcDbPolyline
90
8
70
1
43
0.0
10
92.306250134774018
20
-112.12500014664839
42
0.41421356237309503
10
91.806250134774018
20
-111.62500014664838
10
85.806250134774018
20
-111.62500014664838
42
0.41421356237309503
10
85.306250134774018
20
-112.12500014664839
10
85.306250134774018
20
-126.12500014664839
42
0.41421356237309503
10
85.806250134774018
20
-126.62500014664838
10
91.806250134774018
20
-126.6250001466484
42
0.41421356237309503
10
92.306250134774018
20
-126.12500014664839
0
LWPOLYLINE
5
187
100
AcDbEntity
8
0
100
AcDbPolyline
90
8
70
1
43
0.0
10
138.66250013477401
20
-11.112500146648381
10
138.66250013477401
20
-24.112500146648379
42
-0.41421356237309503
10
138.16250013477401
20
-24.612500146648379
10
125.16250013477404
20
-24.612500146648387
42
-0.41421356237309503
10
124.66250013477404
20
-24.112500146648379
10
124.66250013477404
20
-11.112500146648381
42
-0.41421356237309503
10
125.16250013477404
20
-10.612500146648379
10
138.16250013477401
20
-10.612500146648374
42
-0.41421356237309503
0
ENDSEC
0
SECTION
2
OBJECTS
0
DICTIONARY
5
C
100
AcDbDictionary
3
ACAD_GROUP
350
D
3
ACAD_MLINESTYLE
350
17
0
DICTIONARY
5
D
100
AcDbDictionary
0
DICTIONARY
5
1A
330
C
100
AcDbDictionary
0
DICTIONARY
5
17
100
AcDbDictionary
0
ENDSEC
0
EOF
